<svg id="Layer_1" data-name="Layer 1" xmlns="http://www.w3.org/2000/svg" viewBox="0 0 135.26 135.79"><defs><style>.cls-1{fill:none;stroke:#2b3c47;stroke-miterlimit:10;}.cls-2{fill:#2b3c47;}</style></defs><path class="cls-1" d="M83.62,186.93c1.46-2.26,4.83-2.36,6.37-2.41a16.33,16.33,0,0,1,8.58,2.32c6.61,3.9,18,4.19,29.2,4.47,23.92.6,45.25-14.94,47.12-16.34,7.59-5.66,28-20.86,30.61-47.22,1.69-16.86-4.67-30.17-8-36a8,8,0,0,1-1.24-5.91c.1-.42.75-3.21,2.49-3.48a2.81,2.81,0,0,1,2.46,1.16c1,1.3.13,2.45,1,5a9.82,9.82,0,0,0,1.12,2.18,16.94,16.94,0,0,0,3.17,3.55,33.44,33.44,0,0,1,3.79,5.06c4.67,7,6.13,23.79,6.13,23.79.72,8.32,1.27,14.64,0,23.35a69.27,69.27,0,0,1-7.14,23.17c-3.09,5.89-6.22,9.64-10.06,14.18-6.52,7.7-14.44,17.06-27.64,24.38-7.33,4.07-15.41,8.55-26.83,8.95-12.2.43-25.76-3.89-32.31-9.11a65.51,65.51,0,0,0-9.11-5.86c-4.58-2.45-6.38-2.72-7.29-2.8-3.1-.3-4.18.7-6.56-.19a9.45,9.45,0,0,1-4.61-4.16C84.36,194,81.77,189.81,83.62,186.93Z" transform="translate(-82.46 -81.79)"/><path class="cls-1" d="M95.59,181.58a28.28,28.28,0,0,0,9.83-3.72,27.43,27.43,0,0,0,5.27-4.25c21.37-21.82,45.51-40.75,67.6-61.84l17.12-16.34" transform="translate(-82.46 -81.79)"/><path class="cls-1" d="M120.84,169q-1.66,6.72-3.34,13.44" transform="translate(-82.46 -81.79)"/><path class="cls-1" d="M133.11,156.86c.47,2.88.85,6,1.09,9.28a103.09,103.09,0,0,1-.27,17.79" transform="translate(-82.46 -81.79)"/><path class="cls-1" d="M157,143.07c-.17.75.51,1.43,1.86,2.77a11.2,11.2,0,0,0,2.84,2.25,7.19,7.19,0,0,0,2.52.83c.85.1,1.58.18,2.07-.24.77-.66.59-2.22.11-3.24-.65-1.36-1.89-1.86-4.38-2.88-2.69-1.1-3.6-.79-4-.58A1.8,1.8,0,0,0,157,143.07Z" transform="translate(-82.46 -81.79)"/><path class="cls-1" d="M149.75,149.65c-1.45-.43-3.59,2.87-3.69,3a9.94,9.94,0,0,0-1.29,5.48,5.17,5.17,0,0,0,.3,2.55c.76,1.61,2.88,2.86,4.16,2.41C152.33,162,152.23,150.4,149.75,149.65Z" transform="translate(-82.46 -81.79)"/><path class="cls-1" d="M168.3,130.92a7.77,7.77,0,0,0-2.72,1.61,3.69,3.69,0,0,0-1.49,2.44,2.75,2.75,0,0,0,.9,2.15c1,.92,2.61.57,4.53.12,2.87-.68,5.46-1.3,6.6-3.6.14-.27,1.06-2.15.27-3.26C175.06,128.51,170,130.31,168.3,130.92Z" transform="translate(-82.46 -81.79)"/><path class="cls-1" d="M148.1,146.62l.29,1.82" transform="translate(-82.46 -81.79)"/><path class="cls-1" d="M149.82,164l3.75,16.11" transform="translate(-82.46 -81.79)"/><path class="cls-1" d="M152.19,144.36a301.25,301.25,0,0,1,18.16,26c.23.38.46.76.7,1.13" transform="translate(-82.46 -81.79)"/><path class="cls-1" d="M160,138.68l24.46,17.62.5.36" transform="translate(-82.46 -81.79)"/><path class="cls-1" d="M176.91,135.56l15.5,5.45" transform="translate(-82.46 -81.79)"/><path class="cls-1" d="M173.67,123a57.7,57.7,0,0,1,24.44,6.73" transform="translate(-82.46 -81.79)"/><path class="cls-1" d="M180.48,113.67a61.62,61.62,0,0,0,13-1.6l1.81-.46" transform="translate(-82.46 -81.79)"/><path class="cls-2" d="M90.9,195.08a3.52,3.52,0,0,0,2-.55c.37-.29.47-.61-.17-.61a3.6,3.6,0,0,0-2,.55c-.37.3-.47.61.17.61Z" transform="translate(-82.46 -81.79)"/><path class="cls-2" d="M91.25,195.23c.55,0,1.64-.21,1.93-.75s-.26-.7-.75-.7-1.63.2-1.92.75.25.7.74.7Z" transform="translate(-82.46 -81.79)"/><path class="cls-2" d="M91.29,195.39c.61,0,1.62-.19,1.91-.82s-.23-.95-.81-.95-1.62.19-1.91.82.24.95.81.95Z" transform="translate(-82.46 -81.79)"/><path class="cls-2" d="M91.29,195.38c.61,0,1.62-.19,1.91-.81s-.23-.94-.81-.94-1.62.19-1.91.81.24.94.81.94Z" transform="translate(-82.46 -81.79)"/><path class="cls-2" d="M95.85,194.09a3.28,3.28,0,0,0,2.05-.55c.35-.31.47-.7-.19-.7a3.33,3.33,0,0,0-2,.54c-.36.32-.47.71.19.71Z" transform="translate(-82.46 -81.79)"/><path class="cls-2" d="M95.83,194a3.68,3.68,0,0,0,2-.55c.38-.29.47-.56-.15-.56a3.67,3.67,0,0,0-2,.54c-.38.3-.47.57.15.57Z" transform="translate(-82.46 -81.79)"/><path class="cls-2" d="M96.24,194.4c.63,0,1.62-.19,1.9-.84s-.22-1-.83-1-1.61.18-1.9.84.23,1,.83,1Z" transform="translate(-82.46 -81.79)"/><path class="cls-2" d="M95.83,194a3.68,3.68,0,0,0,2-.55c.38-.29.47-.58-.15-.58a3.6,3.6,0,0,0-2,.55c-.38.29-.48.58.15.58Z" transform="translate(-82.46 -81.79)"/><path class="cls-2" d="M98.63,197.1c.62,0,1.61-.18,1.9-.84s-.23-1-.83-1-1.61.18-1.9.83.23,1,.83,1Z" transform="translate(-82.46 -81.79)"/><path class="cls-2" d="M98.57,196.88c.55,0,1.64-.21,1.93-.74s-.26-.68-.74-.68-1.64.21-1.92.75.25.67.73.67Z" transform="translate(-82.46 -81.79)"/><path class="cls-2" d="M98.63,197.09c.62,0,1.61-.18,1.9-.83s-.23-1-.83-1-1.61.18-1.9.83.23,1,.83,1Z" transform="translate(-82.46 -81.79)"/><path class="cls-2" d="M98.65,197.15c.65,0,1.59-.17,1.89-.85s-.24-1.11-.85-1.11-1.59.18-1.9.86.24,1.1.86,1.1Z" transform="translate(-82.46 -81.79)"/><path class="cls-2" d="M107.18,194.61c1.61,0,2.27-2,.3-2-1.61,0-2.27,2-.3,2Z" transform="translate(-82.46 -81.79)"/><path class="cls-2" d="M106.81,194.59c.65,0,1.59-.17,1.89-.85s-.23-1.11-.85-1.11-1.59.18-1.9.86.24,1.1.86,1.1Z" transform="translate(-82.46 -81.79)"/><path class="cls-2" d="M106.72,194.28c.53,0,1.65-.22,1.93-.73s-.26-.6-.72-.6-1.64.21-1.93.72.27.61.72.61Z" transform="translate(-82.46 -81.79)"/><path class="cls-2" d="M106.38,194.17a3.68,3.68,0,0,0,2.05-.55c.38-.29.47-.56-.15-.56a3.75,3.75,0,0,0-2,.54c-.38.3-.47.57.15.57Z" transform="translate(-82.46 -81.79)"/><path class="cls-2" d="M108.43,198.94c.53,0,1.63-.21,1.92-.74s-.26-.65-.73-.65-1.64.21-1.93.74.26.65.74.65Z" transform="translate(-82.46 -81.79)"/><path class="cls-2" d="M108.46,199.08c.59,0,1.62-.19,1.91-.8s-.23-.87-.79-.87-1.62.19-1.91.79.24.88.79.88Z" transform="translate(-82.46 -81.79)"/><path class="cls-2" d="M108.07,198.79a3.76,3.76,0,0,0,2.05-.55c.39-.29.47-.55-.15-.55a3.81,3.81,0,0,0-2,.55c-.38.29-.47.55.15.55Z" transform="translate(-82.46 -81.79)"/><path class="cls-2" d="M108.07,198.79a3.76,3.76,0,0,0,2.05-.55c.39-.29.47-.55-.15-.55a3.81,3.81,0,0,0-2,.55c-.38.29-.47.55.15.55Z" transform="translate(-82.46 -81.79)"/><path class="cls-2" d="M113,203.54a3.48,3.48,0,0,0,2-.55c.37-.3.48-.62-.16-.62a3.48,3.48,0,0,0-2,.55c-.37.3-.47.62.16.62Z" transform="translate(-82.46 -81.79)"/><path class="cls-2" d="M113.38,203.76c.58,0,1.62-.19,1.91-.78s-.24-.83-.78-.83-1.62.19-1.91.78.24.83.78.83Z" transform="translate(-82.46 -81.79)"/><path class="cls-2" d="M113.41,203.88c.62,0,1.61-.18,1.9-.84s-.23-1-.83-1-1.61.18-1.9.84.23,1,.83,1Z" transform="translate(-82.46 -81.79)"/><path class="cls-2" d="M113.4,203.84c.6,0,1.61-.19,1.9-.82s-.23-1-.81-1-1.61.19-1.9.82.23,1,.81,1Z" transform="translate(-82.46 -81.79)"/><path class="cls-2" d="M113.8,204c1.6,0,2.27-2,.29-2-1.6,0-2.27,2-.29,2Z" transform="translate(-82.46 -81.79)"/><path class="cls-2" d="M113.38,203.76c.58,0,1.62-.19,1.91-.78s-.24-.84-.78-.84-1.62.2-1.91.79.24.83.78.83Z" transform="translate(-82.46 -81.79)"/><path class="cls-2" d="M113.39,203.79c.58,0,1.62-.19,1.91-.8s-.24-.87-.79-.87-1.63.19-1.92.8.24.87.8.87Z" transform="translate(-82.46 -81.79)"/><path class="cls-2" d="M113.81,204c1.62,0,2.25-2,.27-2-1.62,0-2.24,2-.27,2Z" transform="translate(-82.46 -81.79)"/><path class="cls-2" d="M113.33,203.6c.52,0,1.65-.22,1.94-.72s-.27-.57-.71-.57-1.65.22-1.94.72.27.57.71.57Z" transform="translate(-82.46 -81.79)"/><path class="cls-2" d="M113.4,203.84c.6,0,1.61-.19,1.9-.82s-.23-1-.81-1-1.61.19-1.9.82.23,1,.81,1Z" transform="translate(-82.46 -81.79)"/><path class="cls-2" d="M103.84,199.54a3.6,3.6,0,0,0,2-.55c.37-.3.47-.6-.16-.6a3.52,3.52,0,0,0-2,.55c-.38.29-.47.6.16.6Z" transform="translate(-82.46 -81.79)"/><path class="cls-2" d="M104.26,199.94c.66,0,1.59-.17,1.9-.85s-.24-1.11-.86-1.11-1.59.18-1.89.86.24,1.1.85,1.1Z" transform="translate(-82.46 -81.79)"/><path class="cls-2" d="M104.2,199.71c.56,0,1.63-.2,1.92-.76s-.25-.73-.75-.73-1.63.2-1.92.76.25.73.75.73Z" transform="translate(-82.46 -81.79)"/><path class="cls-2" d="M103.84,199.53a3.68,3.68,0,0,0,2-.55c.38-.3.47-.58-.16-.58a3.68,3.68,0,0,0-2,.55c-.38.3-.47.58.16.58Z" transform="translate(-82.46 -81.79)"/><path class="cls-2" d="M111.05,195.45c.64,0,1.59-.18,1.89-.85s-.24-1.06-.84-1.06-1.59.17-1.9.84.24,1.07.85,1.07Z" transform="translate(-82.46 -81.79)"/><path class="cls-2" d="M110.63,195.08a3.41,3.41,0,0,0,2.05-.55c.37-.3.47-.63-.17-.63a3.52,3.52,0,0,0-2.05.55c-.37.31-.47.63.17.63Z" transform="translate(-82.46 -81.79)"/><path class="cls-2" d="M111.44,195.55c1.65,0,2.23-2.11.26-2.11-1.65,0-2.23,2.11-.26,2.11Z" transform="translate(-82.46 -81.79)"/><path class="cls-2" d="M111.43,195.5c1.62,0,2.26-2,.28-2-1.61,0-2.25,2-.28,2Z" transform="translate(-82.46 -81.79)"/><path class="cls-2" d="M119.67,200.52c.59,0,1.62-.19,1.91-.8s-.24-.87-.79-.87-1.62.2-1.91.8.24.87.79.87Z" transform="translate(-82.46 -81.79)"/><path class="cls-2" d="M119.65,200.44c.56,0,1.63-.2,1.92-.76s-.25-.75-.76-.75-1.63.2-1.92.76.25.75.76.75Z" transform="translate(-82.46 -81.79)"/><path class="cls-2" d="M119.29,200.26a3.54,3.54,0,0,0,2-.55c.38-.3.48-.59-.15-.59a3.6,3.6,0,0,0-2.05.55c-.38.29-.48.59.16.59Z" transform="translate(-82.46 -81.79)"/><path class="cls-2" d="M119.7,200.63c.64,0,1.59-.18,1.9-.84s-.24-1-.84-1-1.59.19-1.9.85.24,1,.84,1Z" transform="translate(-82.46 -81.79)"/><path class="cls-2" d="M120.12,200.8c1.68,0,2.19-2.22.23-2.22-1.69,0-2.2,2.22-.23,2.22Z" transform="translate(-82.46 -81.79)"/><path class="cls-2" d="M119.63,200.35c.52,0,1.64-.21,1.93-.72s-.27-.61-.72-.61-1.65.22-1.93.73.26.6.72.6Z" transform="translate(-82.46 -81.79)"/><path class="cls-2" d="M122.6,206c.55,0,1.64-.21,1.92-.75s-.25-.69-.74-.69-1.63.21-1.92.75.25.69.74.69Z" transform="translate(-82.46 -81.79)"/><path class="cls-2" d="M122.66,206.27c.65,0,1.59-.18,1.9-.84s-.24-1.07-.84-1.07-1.59.18-1.9.85.24,1.06.84,1.06Z" transform="translate(-82.46 -81.79)"/><path class="cls-2" d="M123.05,206.31c1.6,0,2.26-2,.29-2-1.61,0-2.27,2-.29,2Z" transform="translate(-82.46 -81.79)"/><path class="cls-2" d="M122.26,205.94a3.34,3.34,0,0,0,2-.55c.36-.31.47-.69-.19-.69a3.31,3.31,0,0,0-2.05.55c-.35.31-.46.69.19.69Z" transform="translate(-82.46 -81.79)"/><path class="cls-2" d="M129,207.79c1.68,0,2.21-2.19.24-2.19-1.68,0-2.2,2.19-.24,2.19Z" transform="translate(-82.46 -81.79)"/><path class="cls-2" d="M128.56,207.6c.61,0,1.61-.19,1.9-.83s-.23-1-.81-1-1.62.19-1.91.83.23,1,.82,1Z" transform="translate(-82.46 -81.79)"/><path class="cls-2" d="M128.54,207.52c.59,0,1.62-.19,1.91-.79s-.24-.86-.78-.86-1.63.19-1.92.79.24.86.79.86Z" transform="translate(-82.46 -81.79)"/><path class="cls-2" d="M129,207.78c1.67,0,2.21-2.17.24-2.17-1.67,0-2.2,2.17-.24,2.17Z" transform="translate(-82.46 -81.79)"/><path class="cls-2" d="M128.51,207.39c.53,0,1.63-.21,1.92-.74s-.26-.65-.73-.65-1.64.21-1.93.74.26.65.74.65Z" transform="translate(-82.46 -81.79)"/><path class="cls-2" d="M128.17,207.3a3.38,3.38,0,0,0,2.05-.55c.36-.3.47-.66-.18-.66a3.34,3.34,0,0,0-2,.55c-.36.3-.47.66.18.66Z" transform="translate(-82.46 -81.79)"/><path class="cls-2" d="M129,207.76c1.65,0,2.22-2.13.25-2.13-1.66,0-2.22,2.13-.25,2.13Z" transform="translate(-82.46 -81.79)"/><path class="cls-2" d="M128.17,207.3a3.45,3.45,0,0,0,2.05-.55c.36-.31.47-.66-.18-.66a3.41,3.41,0,0,0-2,.55c-.36.31-.47.66.18.66Z" transform="translate(-82.46 -81.79)"/><path class="cls-2" d="M129,207.83c1.71,0,2.18-2.27.22-2.27-1.7,0-2.18,2.27-.22,2.27Z" transform="translate(-82.46 -81.79)"/><path class="cls-2" d="M117.71,207.24c.6,0,1.61-.19,1.9-.82s-.23-.94-.81-.94-1.61.19-1.9.81.23,1,.81,1Z" transform="translate(-82.46 -81.79)"/><path class="cls-2" d="M117.73,207.33c.66,0,1.59-.17,1.9-.85s-.24-1.1-.85-1.1-1.59.18-1.9.86.24,1.09.85,1.09Z" transform="translate(-82.46 -81.79)"/><path class="cls-2" d="M117.71,207.24c.6,0,1.61-.19,1.9-.82s-.23-.94-.81-.94-1.61.18-1.9.81.23,1,.81,1Z" transform="translate(-82.46 -81.79)"/><path class="cls-2" d="M117.64,207c.51,0,1.66-.22,1.93-.72s-.25-.56-.7-.56-1.66.22-1.94.72.26.56.71.56Z" transform="translate(-82.46 -81.79)"/><path class="cls-2" d="M120.06,196c.62,0,1.62-.19,1.91-.83s-.23-1-.82-1-1.62.19-1.91.83.24,1,.82,1Z" transform="translate(-82.46 -81.79)"/><path class="cls-2" d="M120,195.71c.53,0,1.64-.22,1.93-.73s-.26-.6-.72-.6-1.64.22-1.93.73.27.6.72.6Z" transform="translate(-82.46 -81.79)"/><path class="cls-2" d="M120,195.86c.58,0,1.62-.2,1.91-.79s-.24-.84-.78-.84-1.62.19-1.91.79.24.84.78.84Z" transform="translate(-82.46 -81.79)"/><path class="cls-2" d="M120.49,196.15c1.69,0,2.2-2.21.23-2.21-1.68,0-2.19,2.21-.23,2.21Z" transform="translate(-82.46 -81.79)"/><path class="cls-2" d="M119.67,195.65a3.43,3.43,0,0,0,2-.55c.36-.31.47-.66-.18-.66a3.45,3.45,0,0,0-2.05.55c-.36.3-.47.66.18.66Z" transform="translate(-82.46 -81.79)"/><path class="cls-2" d="M120.48,196.1c1.64,0,2.23-2.11.26-2.11-1.65,0-2.23,2.11-.26,2.11Z" transform="translate(-82.46 -81.79)"/><path class="cls-2" d="M120.08,196c.65,0,1.59-.18,1.9-.85s-.24-1.09-.85-1.09-1.59.18-1.9.86.24,1.08.85,1.08Z" transform="translate(-82.46 -81.79)"/><path class="cls-2" d="M114,197.13c.53,0,1.64-.22,1.93-.74s-.26-.63-.73-.63-1.64.21-1.93.73.26.64.73.64Z" transform="translate(-82.46 -81.79)"/><path class="cls-2" d="M114,197.17c.55,0,1.64-.21,1.93-.75s-.26-.7-.75-.7-1.63.2-1.92.75.25.7.74.7Z" transform="translate(-82.46 -81.79)"/><path class="cls-2" d="M114,197.38c.64,0,1.59-.19,1.9-.84s-.25-1-.84-1-1.59.18-1.9.84.25,1,.84,1Z" transform="translate(-82.46 -81.79)"/><path class="cls-2" d="M114,197.13c.54,0,1.64-.21,1.93-.73s-.26-.65-.73-.65-1.64.22-1.93.74.26.64.73.64Z" transform="translate(-82.46 -81.79)"/><path class="cls-2" d="M114,197.39c.64,0,1.59-.19,1.9-.85s-.24-1-.84-1-1.59.18-1.9.84.24,1,.84,1Z" transform="translate(-82.46 -81.79)"/><path class="cls-2" d="M114,197.1c.52,0,1.65-.22,1.93-.73s-.26-.58-.71-.58-1.64.22-1.93.72.26.59.71.59Z" transform="translate(-82.46 -81.79)"/><path class="cls-2" d="M114.42,197.44c1.6,0,2.26-2,.29-2-1.61,0-2.27,2-.29,2Z" transform="translate(-82.46 -81.79)"/><path class="cls-2" d="M114,197.36c.62,0,1.61-.19,1.9-.83s-.23-1-.82-1-1.61.18-1.9.83.23,1,.82,1Z" transform="translate(-82.46 -81.79)"/><path class="cls-2" d="M114.45,197.57c1.71,0,2.18-2.26.22-2.26-1.7,0-2.18,2.26-.22,2.26Z" transform="translate(-82.46 -81.79)"/><path class="cls-2" d="M114,197.23c.57,0,1.63-.2,1.92-.77s-.25-.81-.78-.81-1.62.2-1.91.78.24.8.77.8Z" transform="translate(-82.46 -81.79)"/><path class="cls-2" d="M114.45,197.56c1.69,0,2.19-2.23.23-2.23-1.7,0-2.2,2.23-.23,2.23Z" transform="translate(-82.46 -81.79)"/><path class="cls-2" d="M120,196c.65,0,1.59-.19,1.9-.85s-.24-1-.84-1-1.59.18-1.89.84.24,1.05.83,1.05Z" transform="translate(-82.46 -81.79)"/><path class="cls-2" d="M120,196c.66,0,1.59-.18,1.9-.86s-.24-1.1-.85-1.1-1.59.18-1.9.86.24,1.1.85,1.1Z" transform="translate(-82.46 -81.79)"/><path class="cls-2" d="M119.93,195.8c.57,0,1.63-.2,1.92-.77s-.25-.79-.77-.79-1.63.2-1.92.77.25.79.77.79Z" transform="translate(-82.46 -81.79)"/><path class="cls-2" d="M140,196.47c.62,0,1.61-.18,1.9-.84s-.23-1-.83-1-1.62.18-1.9.84.22,1,.83,1Z" transform="translate(-82.46 -81.79)"/><path class="cls-2" d="M140.43,196.58c1.63,0,2.24-2.08.27-2.08-1.64,0-2.24,2.08-.27,2.08Z" transform="translate(-82.46 -81.79)"/><path class="cls-2" d="M140,196.47c.62,0,1.61-.18,1.9-.83s-.23-1-.83-1-1.62.18-1.91.84.23,1,.84,1Z" transform="translate(-82.46 -81.79)"/><path class="cls-2" d="M140,196.48c.64,0,1.59-.18,1.9-.84s-.24-1-.84-1-1.59.18-1.9.84.24,1,.84,1Z" transform="translate(-82.46 -81.79)"/><path class="cls-2" d="M140.45,196.68c1.71,0,2.18-2.28.22-2.28-1.71,0-2.18,2.28-.22,2.28Z" transform="translate(-82.46 -81.79)"/><path class="cls-2" d="M140,196.36c.58,0,1.62-.19,1.91-.79s-.24-.85-.79-.85-1.62.19-1.91.79.24.85.79.85Z" transform="translate(-82.46 -81.79)"/><path class="cls-2" d="M139.62,196.12a3.59,3.59,0,0,0,2-.54c.37-.3.47-.62-.17-.62a3.52,3.52,0,0,0-2.05.55c-.37.3-.47.61.17.61Z" transform="translate(-82.46 -81.79)"/><path class="cls-2" d="M140.14,196.73c1.65,0,2.22-2.11.26-2.11-1.65,0-2.23,2.11-.26,2.11Z" transform="translate(-82.46 -81.79)"/><path class="cls-2" d="M140.15,196.78c1.69,0,2.2-2.21.23-2.21-1.68,0-2.19,2.21-.23,2.21Z" transform="translate(-82.46 -81.79)"/><path class="cls-2" d="M135.84,199c.56,0,1.63-.21,1.92-.77s-.25-.75-.76-.75-1.63.21-1.92.77.25.75.76.75Z" transform="translate(-82.46 -81.79)"/><path class="cls-2" d="M135.86,199c.59,0,1.62-.19,1.91-.8s-.24-.88-.79-.88-1.62.19-1.91.8.24.88.79.88Z" transform="translate(-82.46 -81.79)"/><path class="cls-2" d="M136.28,199.22c1.62,0,2.25-2,.28-2-1.62,0-2.25,2-.28,2Z" transform="translate(-82.46 -81.79)"/><path class="cls-2" d="M135.88,199.1c.61,0,1.61-.19,1.9-.82s-.23-1-.82-1-1.61.18-1.9.82.23,1,.82,1Z" transform="translate(-82.46 -81.79)"/><path class="cls-2" d="M135.49,198.82a3.38,3.38,0,0,0,2-.55c.36-.31.47-.69-.19-.69a3.36,3.36,0,0,0-2,.55c-.36.31-.47.69.19.69Z" transform="translate(-82.46 -81.79)"/><path class="cls-2" d="M135.82,198.87c.53,0,1.64-.21,1.93-.72s-.27-.62-.73-.62-1.64.21-1.93.73.27.61.73.61Z" transform="translate(-82.46 -81.79)"/><path class="cls-2" d="M139.84,199.79a3.81,3.81,0,0,0,2-.55c.38-.29.47-.54-.15-.54a3.76,3.76,0,0,0-2.05.55c-.39.29-.47.54.15.54Z" transform="translate(-82.46 -81.79)"/><path class="cls-2" d="M140.26,200.18c.64,0,1.59-.18,1.9-.84s-.25-1-.84-1-1.59.18-1.9.84.24,1,.84,1Z" transform="translate(-82.46 -81.79)"/><path class="cls-2" d="M139.84,199.8a3.68,3.68,0,0,0,2-.55c.38-.29.47-.57-.15-.57a3.68,3.68,0,0,0-2.05.55c-.38.3-.48.57.15.57Z" transform="translate(-82.46 -81.79)"/><path class="cls-2" d="M140.67,200.35c1.69,0,2.2-2.22.23-2.22-1.69,0-2.19,2.22-.23,2.22Z" transform="translate(-82.46 -81.79)"/><path class="cls-2" d="M140.26,200.21c.66,0,1.6-.18,1.9-.85s-.24-1.09-.85-1.09-1.59.18-1.89.86.23,1.08.84,1.08Z" transform="translate(-82.46 -81.79)"/><path class="cls-2" d="M140.25,200.17c.63,0,1.61-.18,1.9-.84s-.22-1-.83-1-1.61.18-1.9.83.23,1,.83,1Z" transform="translate(-82.46 -81.79)"/><path class="cls-2" d="M139.84,199.79a3.68,3.68,0,0,0,2-.55c.38-.29.47-.55-.15-.55a3.76,3.76,0,0,0-2.05.55c-.39.29-.47.55.15.55Z" transform="translate(-82.46 -81.79)"/><path class="cls-2" d="M139.84,199.79a3.81,3.81,0,0,0,2-.55c.38-.29.47-.54-.15-.54a3.76,3.76,0,0,0-2.05.55c-.39.29-.47.54.15.54Z" transform="translate(-82.46 -81.79)"/><path class="cls-2" d="M140.2,200c.55,0,1.63-.21,1.92-.75s-.25-.7-.74-.7-1.64.21-1.93.75.26.7.75.7Z" transform="translate(-82.46 -81.79)"/><path class="cls-2" d="M140.22,200c.57,0,1.62-.2,1.91-.78s-.24-.79-.77-.79-1.63.2-1.92.77.25.8.78.8Z" transform="translate(-82.46 -81.79)"/><path class="cls-2" d="M140.19,199.93c.54,0,1.64-.21,1.93-.73s-.26-.65-.73-.65-1.64.21-1.93.74.26.64.73.64Z" transform="translate(-82.46 -81.79)"/><path class="cls-2" d="M140.2,200c.55,0,1.63-.21,1.92-.75s-.25-.7-.74-.7-1.64.21-1.93.75.26.7.75.7Z" transform="translate(-82.46 -81.79)"/><path class="cls-2" d="M140.27,200.23c.65,0,1.59-.18,1.89-.86s-.23-1.11-.85-1.11-1.59.17-1.9.86.24,1.11.86,1.11Z" transform="translate(-82.46 -81.79)"/><path class="cls-2" d="M140.22,200c.57,0,1.62-.2,1.91-.78s-.24-.82-.77-.82-1.63.2-1.92.79.25.81.78.81Z" transform="translate(-82.46 -81.79)"/><path class="cls-2" d="M132.35,206.47c.54,0,1.64-.21,1.93-.74s-.26-.64-.73-.64-1.64.21-1.93.74.26.64.73.64Z" transform="translate(-82.46 -81.79)"/><path class="cls-2" d="M132.34,206.43c.52,0,1.65-.22,1.93-.72s-.26-.58-.71-.58-1.64.22-1.93.72.27.58.71.58Z" transform="translate(-82.46 -81.79)"/><path class="cls-2" d="M132,206.33a3.76,3.76,0,0,0,2.05-.55c.39-.29.47-.55-.15-.55a3.81,3.81,0,0,0-2.05.55c-.38.29-.47.55.15.55Z" transform="translate(-82.46 -81.79)"/><path class="cls-2" d="M132.36,206.48c.53,0,1.63-.21,1.92-.74s-.26-.66-.73-.66-1.64.21-1.93.74.26.66.74.66Z" transform="translate(-82.46 -81.79)"/><path class="cls-2" d="M132.36,206.48c.53,0,1.63-.22,1.92-.74s-.26-.66-.73-.66-1.64.22-1.93.74.26.66.74.66Z" transform="translate(-82.46 -81.79)"/><path class="cls-2" d="M132,206.4a3.34,3.34,0,0,0,2-.55c.36-.31.47-.69-.19-.69a3.33,3.33,0,0,0-2,.55c-.36.31-.47.69.18.69Z" transform="translate(-82.46 -81.79)"/><path class="cls-2" d="M132.4,206.64c.6,0,1.62-.19,1.91-.81s-.24-.91-.8-.91-1.62.19-1.91.81.23.91.8.91Z" transform="translate(-82.46 -81.79)"/><path class="cls-2" d="M132.41,206.66c.6,0,1.61-.18,1.9-.81s-.23-.95-.81-.95-1.62.18-1.91.81.24.95.82.95Z" transform="translate(-82.46 -81.79)"/><path class="cls-2" d="M132.81,206.8c1.63,0,2.25-2,.28-2-1.62,0-2.25,2-.28,2Z" transform="translate(-82.46 -81.79)"/><path class="cls-2" d="M131.87,210.33c.53,0,1.64-.22,1.93-.72s-.26-.6-.72-.6-1.64.21-1.93.72.27.6.72.6Z" transform="translate(-82.46 -81.79)"/><path class="cls-2" d="M132.36,210.79c1.7,0,2.19-2.24.23-2.24-1.7,0-2.19,2.24-.23,2.24Z" transform="translate(-82.46 -81.79)"/><path class="cls-2" d="M131.87,210.33c.52,0,1.64-.22,1.93-.73s-.26-.59-.72-.59-1.64.22-1.93.72.27.6.72.6Z" transform="translate(-82.46 -81.79)"/><path class="cls-2" d="M131.94,210.6c.64,0,1.59-.18,1.9-.84s-.24-1-.83-1-1.59.18-1.9.83.24,1,.83,1Z" transform="translate(-82.46 -81.79)"/><path class="cls-2" d="M131.88,210.36c.53,0,1.64-.21,1.93-.74s-.26-.64-.73-.64-1.64.21-1.93.73.26.65.73.65Z" transform="translate(-82.46 -81.79)"/><path class="cls-2" d="M141.2,214a3.34,3.34,0,0,0,2.05-.55c.36-.31.47-.69-.18-.69a3.34,3.34,0,0,0-2,.55c-.36.31-.47.69.18.69Z" transform="translate(-82.46 -81.79)"/><path class="cls-2" d="M142,214.45c1.64,0,2.23-2.09.27-2.09-1.65,0-2.24,2.09-.27,2.09Z" transform="translate(-82.46 -81.79)"/><path class="cls-2" d="M141.2,214a3.38,3.38,0,0,0,2.05-.55c.36-.3.47-.67-.18-.67a3.34,3.34,0,0,0-2,.55c-.36.31-.47.67.18.67Z" transform="translate(-82.46 -81.79)"/><path class="cls-2" d="M141.59,214.29c.6,0,1.61-.19,1.9-.82s-.23-.95-.81-.95-1.62.18-1.91.81.24,1,.82,1Z" transform="translate(-82.46 -81.79)"/><path class="cls-2" d="M141.19,214a3.6,3.6,0,0,0,2.05-.55c.37-.3.47-.6-.16-.6a3.52,3.52,0,0,0-2.05.55c-.38.29-.47.6.16.6Z" transform="translate(-82.46 -81.79)"/><path class="cls-2" d="M142,214.52c1.7,0,2.19-2.24.23-2.24-1.7,0-2.19,2.24-.23,2.24Z" transform="translate(-82.46 -81.79)"/><path class="cls-2" d="M141.57,214.24c.6,0,1.63-.19,1.92-.79s-.24-.89-.8-.89-1.62.19-1.91.8.24.88.79.88Z" transform="translate(-82.46 -81.79)"/><path class="cls-2" d="M141.52,214.06c.53,0,1.65-.22,1.94-.72s-.27-.59-.72-.59-1.64.21-1.93.72.27.59.71.59Z" transform="translate(-82.46 -81.79)"/><path class="cls-2" d="M141.2,214a3.36,3.36,0,0,0,2.05-.55c.36-.31.47-.68-.18-.68a3.34,3.34,0,0,0-2,.55c-.36.31-.47.68.18.68Z" transform="translate(-82.46 -81.79)"/><path class="cls-2" d="M145.26,212.14c.59,0,1.62-.19,1.91-.79s-.24-.87-.79-.87-1.62.2-1.91.8.24.86.79.86Z" transform="translate(-82.46 -81.79)"/><path class="cls-2" d="M145.25,212.12c.58,0,1.63-.2,1.92-.79s-.24-.82-.78-.82-1.62.19-1.91.78.24.83.77.83Z" transform="translate(-82.46 -81.79)"/><path class="cls-2" d="M144.88,211.88a3.68,3.68,0,0,0,2.05-.55c.37-.3.47-.58-.16-.58a3.6,3.6,0,0,0-2.05.55c-.38.29-.47.58.16.58Z" transform="translate(-82.46 -81.79)"/><path class="cls-2" d="M145.71,212.44c1.7,0,2.19-2.25.22-2.25-1.7,0-2.18,2.25-.22,2.25Z" transform="translate(-82.46 -81.79)"/><path class="cls-2" d="M145.27,212.16c.59,0,1.62-.19,1.91-.8s-.24-.89-.8-.89-1.62.19-1.91.8.24.89.8.89Z" transform="translate(-82.46 -81.79)"/><path class="cls-2" d="M145.29,212.26c.65,0,1.59-.18,1.9-.84s-.24-1.06-.84-1.06-1.59.19-1.9.85.25,1,.84,1Z" transform="translate(-82.46 -81.79)"/><path class="cls-2" d="M145.68,212.33c1.62,0,2.26-2,.28-2-1.62,0-2.25,2-.28,2Z" transform="translate(-82.46 -81.79)"/><path class="cls-2" d="M145.46,205.32a3.45,3.45,0,0,0,2-.55c.36-.3.47-.65-.18-.65a3.45,3.45,0,0,0-2.05.55c-.36.3-.47.65.18.65Z" transform="translate(-82.46 -81.79)"/><path class="cls-2" d="M145.44,205.27a3.76,3.76,0,0,0,2.05-.55c.39-.29.48-.55-.14-.55a3.76,3.76,0,0,0-2,.55c-.39.29-.47.55.14.55Z" transform="translate(-82.46 -81.79)"/><path class="cls-2" d="M146.25,205.72c1.61,0,2.27-2,.29-2-1.61,0-2.26,2-.29,2Z" transform="translate(-82.46 -81.79)"/><path class="cls-2" d="M145.8,205.43c.54,0,1.64-.21,1.93-.75s-.26-.67-.74-.67-1.64.21-1.93.75.26.67.74.67Z" transform="translate(-82.46 -81.79)"/><path class="cls-2" d="M145.82,205.5c.57,0,1.63-.2,1.92-.77s-.25-.79-.77-.79-1.63.2-1.92.77.25.79.77.79Z" transform="translate(-82.46 -81.79)"/><path class="cls-2" d="M145.83,205.53c.58,0,1.62-.2,1.91-.79s-.24-.83-.78-.83-1.62.2-1.91.79.24.83.78.83Z" transform="translate(-82.46 -81.79)"/><path class="cls-2" d="M145.87,205.69c.65,0,1.59-.18,1.9-.86s-.24-1.08-.85-1.08-1.59.18-1.9.86.24,1.08.85,1.08Z" transform="translate(-82.46 -81.79)"/><path class="cls-2" d="M145.84,205.57c.59,0,1.62-.19,1.91-.8s-.24-.9-.8-.9-1.62.19-1.91.8.24.9.8.9Z" transform="translate(-82.46 -81.79)"/><path class="cls-2" d="M146.28,205.81c1.67,0,2.2-2.18.24-2.18-1.68,0-2.21,2.18-.24,2.18Z" transform="translate(-82.46 -81.79)"/><path class="cls-2" d="M145.79,205.39c.53,0,1.64-.21,1.93-.73s-.26-.61-.72-.61-1.64.21-1.93.73.26.61.72.61Z" transform="translate(-82.46 -81.79)"/><path class="cls-2" d="M145.82,205.49c.56,0,1.63-.2,1.92-.77s-.25-.77-.77-.77-1.63.2-1.92.77.25.77.77.77Z" transform="translate(-82.46 -81.79)"/><path class="cls-2" d="M145.79,205.4c.53,0,1.64-.22,1.93-.73s-.26-.63-.72-.63-1.64.22-1.93.73.26.63.72.63Z" transform="translate(-82.46 -81.79)"/><path class="cls-2" d="M145.79,205.4c.54,0,1.64-.21,1.93-.73s-.26-.63-.72-.63-1.64.21-1.93.73.26.63.72.63Z" transform="translate(-82.46 -81.79)"/><path class="cls-2" d="M146.27,205.81c1.68,0,2.21-2.18.25-2.18-1.68,0-2.21,2.18-.25,2.18Z" transform="translate(-82.46 -81.79)"/><path class="cls-2" d="M145.85,205.6c.61,0,1.61-.18,1.9-.81s-.23-.95-.81-.95-1.61.18-1.9.81.23.95.81.95Z" transform="translate(-82.46 -81.79)"/><path class="cls-2" d="M140.91,206.18c.54,0,1.64-.21,1.93-.73s-.26-.63-.72-.63-1.64.21-1.93.73.26.63.72.63Z" transform="translate(-82.46 -81.79)"/><path class="cls-2" d="M141.4,206.62c1.7,0,2.19-2.24.23-2.24-1.7,0-2.19,2.24-.23,2.24Z" transform="translate(-82.46 -81.79)"/><path class="cls-2" d="M141.38,206.52c1.62,0,2.25-2,.28-2-1.63,0-2.26,2-.28,2Z" transform="translate(-82.46 -81.79)"/><path class="cls-2" d="M141,206.31c.58,0,1.62-.2,1.91-.79s-.24-.83-.78-.83-1.62.2-1.91.79.24.83.78.83Z" transform="translate(-82.46 -81.79)"/><path class="cls-2" d="M140.56,206a3.76,3.76,0,0,0,2.05-.55c.39-.28.48-.53-.14-.53a3.76,3.76,0,0,0-2.05.55c-.39.28-.47.53.14.53Z" transform="translate(-82.46 -81.79)"/><path class="cls-2" d="M145.33,211.82c.58,0,1.62-.19,1.91-.79s-.24-.87-.79-.87-1.62.2-1.91.8.24.86.79.86Z" transform="translate(-82.46 -81.79)"/><path class="cls-2" d="M145,211.62a3.28,3.28,0,0,0,2-.55c.35-.31.47-.7-.19-.7a3.33,3.33,0,0,0-2,.54c-.36.32-.47.71.19.71Z" transform="translate(-82.46 -81.79)"/><path class="cls-2" d="M145.32,211.78c.56,0,1.62-.2,1.91-.78s-.24-.79-.77-.79-1.62.2-1.91.78.24.79.77.79Z" transform="translate(-82.46 -81.79)"/><path class="cls-2" d="M145.78,212.13c1.71,0,2.18-2.27.22-2.27-1.71,0-2.18,2.27-.22,2.27Z" transform="translate(-82.46 -81.79)"/><path class="cls-2" d="M145.28,211.65c.53,0,1.64-.21,1.93-.72s-.26-.6-.71-.6-1.65.22-1.93.73.26.59.71.59Z" transform="translate(-82.46 -81.79)"/><path class="cls-2" d="M145.37,212c.65,0,1.59-.17,1.89-.85S147,210,146.41,210s-1.59.18-1.89.86.23,1.08.85,1.08Z" transform="translate(-82.46 -81.79)"/><path class="cls-2" d="M144.94,211.56A3.6,3.6,0,0,0,147,211c.38-.29.47-.58-.16-.58a3.61,3.61,0,0,0-2,.54c-.38.3-.48.59.15.59Z" transform="translate(-82.46 -81.79)"/><path class="cls-2" d="M145.3,211.71c.55,0,1.63-.2,1.92-.74s-.25-.7-.74-.7-1.64.21-1.92.75.25.69.74.69Z" transform="translate(-82.46 -81.79)"/><path class="cls-2" d="M158.35,195.08c.51,0,1.66-.22,1.93-.72s-.25-.56-.7-.56-1.66.22-1.94.72.26.56.71.56Z" transform="translate(-82.46 -81.79)"/><path class="cls-2" d="M158.42,195.34c.61,0,1.61-.19,1.9-.82s-.23-1-.81-1-1.62.18-1.91.82.23,1,.82,1Z" transform="translate(-82.46 -81.79)"/><path class="cls-2" d="M158.35,195.09c.52,0,1.65-.22,1.93-.72s-.26-.57-.71-.57-1.64.22-1.93.71.27.58.71.58Z" transform="translate(-82.46 -81.79)"/><path class="cls-2" d="M158.41,195.3c.59,0,1.62-.19,1.91-.81s-.24-.9-.8-.9-1.62.19-1.91.8.24.91.8.91Z" transform="translate(-82.46 -81.79)"/><path class="cls-2" d="M158,195.06a3.34,3.34,0,0,0,2.05-.55c.36-.31.47-.69-.18-.69a3.34,3.34,0,0,0-2.05.55c-.36.31-.47.69.18.69Z" transform="translate(-82.46 -81.79)"/><path class="cls-2" d="M158.84,195.52c1.67,0,2.21-2.16.25-2.16-1.67,0-2.22,2.16-.25,2.16Z" transform="translate(-82.46 -81.79)"/><path class="cls-2" d="M170.64,196.26c.6,0,1.62-.19,1.91-.81s-.24-.93-.81-.93-1.61.19-1.9.81.23.93.8.93Z" transform="translate(-82.46 -81.79)"/><path class="cls-2" d="M170.65,196.29c.62,0,1.61-.18,1.9-.82s-.23-1-.82-1-1.61.19-1.9.83.23,1,.82,1Z" transform="translate(-82.46 -81.79)"/><path class="cls-2" d="M170.65,196.29c.62,0,1.61-.18,1.9-.82s-.23-1-.82-1-1.61.19-1.9.83.23,1,.82,1Z" transform="translate(-82.46 -81.79)"/><path class="cls-2" d="M170.25,196a3.48,3.48,0,0,0,2.05-.55c.37-.3.47-.63-.17-.63a3.45,3.45,0,0,0-2,.55c-.37.3-.47.63.17.63Z" transform="translate(-82.46 -81.79)"/><path class="cls-2" d="M171.05,196.41c1.62,0,2.25-2,.28-2-1.62,0-2.25,2-.28,2Z" transform="translate(-82.46 -81.79)"/><path class="cls-2" d="M167.39,206.36c.64,0,1.59-.18,1.89-.84s-.23-1.07-.84-1.07-1.59.18-1.9.84.24,1.07.85,1.07Z" transform="translate(-82.46 -81.79)"/><path class="cls-2" d="M167.78,206.45c1.64,0,2.24-2.09.27-2.09-1.64,0-2.24,2.09-.27,2.09Z" transform="translate(-82.46 -81.79)"/><path class="cls-2" d="M167.8,206.54c1.71,0,2.19-2.27.22-2.27-1.7,0-2.18,2.27-.22,2.27Z" transform="translate(-82.46 -81.79)"/><path class="cls-2" d="M167.34,206.19c.57,0,1.63-.2,1.92-.77s-.25-.8-.77-.8-1.63.2-1.92.77.25.8.77.8Z" transform="translate(-82.46 -81.79)"/><path class="cls-2" d="M167.37,206.3c.61,0,1.62-.18,1.91-.82s-.24-1-.82-1-1.62.18-1.91.82.24,1,.82,1Z" transform="translate(-82.46 -81.79)"/><path class="cls-2" d="M159.59,204.64c.54,0,1.63-.21,1.92-.74s-.25-.68-.74-.68-1.63.21-1.92.74.26.68.74.68Z" transform="translate(-82.46 -81.79)"/><path class="cls-2" d="M159.66,204.91c.65,0,1.59-.17,1.9-.86s-.24-1.1-.86-1.1-1.59.18-1.89.86.23,1.1.85,1.1Z" transform="translate(-82.46 -81.79)"/><path class="cls-2" d="M159.6,204.7c.57,0,1.63-.2,1.92-.77s-.25-.77-.76-.77-1.63.2-1.92.77.25.77.76.77Z" transform="translate(-82.46 -81.79)"/><path class="cls-2" d="M159.58,204.59c.52,0,1.64-.21,1.93-.72s-.27-.6-.72-.6-1.65.21-1.93.72.26.6.72.6Z" transform="translate(-82.46 -81.79)"/><path class="cls-2" d="M160.05,205c1.66,0,2.23-2.14.26-2.14-1.66,0-2.22,2.14-.26,2.14Z" transform="translate(-82.46 -81.79)"/><path class="cls-2" d="M150.81,210.72c.66,0,1.59-.18,1.9-.86s-.24-1.11-.86-1.11-1.59.17-1.89.86.23,1.11.85,1.11Z" transform="translate(-82.46 -81.79)"/><path class="cls-2" d="M151.21,210.8c1.65,0,2.22-2.13.25-2.13-1.66,0-2.22,2.13-.25,2.13Z" transform="translate(-82.46 -81.79)"/><path class="cls-2" d="M151.21,210.83c1.69,0,2.21-2.19.24-2.19-1.68,0-2.2,2.19-.24,2.19Z" transform="translate(-82.46 -81.79)"/><path class="cls-2" d="M150.77,210.55c.58,0,1.62-.2,1.91-.79s-.24-.84-.78-.84-1.62.2-1.91.79.24.84.78.84Z" transform="translate(-82.46 -81.79)"/><path class="cls-2" d="M150.75,210.48c.55,0,1.63-.21,1.92-.76s-.25-.73-.75-.73-1.63.2-1.92.76.25.73.75.73Z" transform="translate(-82.46 -81.79)"/><path class="cls-2" d="M150.81,210.7c.65,0,1.59-.18,1.9-.85s-.24-1.08-.85-1.08-1.59.17-1.9.85.24,1.08.85,1.08Z" transform="translate(-82.46 -81.79)"/><path class="cls-2" d="M150.81,210.71c.66,0,1.59-.17,1.9-.85s-.24-1.11-.86-1.11-1.59.18-1.89.86.24,1.1.85,1.1Z" transform="translate(-82.46 -81.79)"/><path class="cls-2" d="M150.78,210.58c.59,0,1.62-.19,1.91-.8s-.24-.89-.8-.89-1.62.19-1.91.8.24.89.8.89Z" transform="translate(-82.46 -81.79)"/><path class="cls-2" d="M151.19,210.73c1.6,0,2.26-2,.29-2-1.6,0-2.27,2-.29,2Z" transform="translate(-82.46 -81.79)"/><path class="cls-2" d="M151.21,210.82c1.67,0,2.21-2.17.25-2.17-1.68,0-2.21,2.17-.25,2.17Z" transform="translate(-82.46 -81.79)"/><path class="cls-2" d="M150.72,210.36c.51,0,1.66-.22,1.93-.71s-.26-.55-.7-.55-1.66.22-1.94.71.26.55.71.55Z" transform="translate(-82.46 -81.79)"/><path class="cls-2" d="M150.74,210.45c.55,0,1.64-.21,1.93-.75s-.26-.68-.74-.68-1.64.21-1.93.74.26.69.74.69Z" transform="translate(-82.46 -81.79)"/><path class="cls-2" d="M159.22,191c.54,0,1.64-.21,1.93-.73s-.26-.63-.73-.63-1.63.21-1.92.73.26.63.72.63Z" transform="translate(-82.46 -81.79)"/><path class="cls-2" d="M159.7,191.39c1.68,0,2.21-2.18.25-2.18-1.68,0-2.21,2.18-.25,2.18Z" transform="translate(-82.46 -81.79)"/><path class="cls-2" d="M159.22,191c.52,0,1.64-.21,1.93-.72s-.27-.6-.72-.6-1.64.22-1.93.72.26.6.72.6Z" transform="translate(-82.46 -81.79)"/><path class="cls-2" d="M159.28,191.2c.62,0,1.62-.18,1.91-.82s-.24-1-.82-1-1.62.18-1.91.82.23,1,.82,1Z" transform="translate(-82.46 -81.79)"/><path class="cls-2" d="M159.22,191c.52,0,1.64-.22,1.93-.72s-.27-.6-.72-.6-1.64.22-1.93.73.27.59.72.59Z" transform="translate(-82.46 -81.79)"/><path class="cls-2" d="M159.25,191.07c.56,0,1.63-.2,1.92-.77s-.25-.77-.77-.77-1.63.2-1.92.77.25.77.77.77Z" transform="translate(-82.46 -81.79)"/><path class="cls-2" d="M159.69,191.33c1.63,0,2.24-2.06.27-2.06-1.63,0-2.24,2.06-.27,2.06Z" transform="translate(-82.46 -81.79)"/><path class="cls-2" d="M159.26,191.13c.59,0,1.62-.19,1.91-.79s-.23-.87-.78-.87-1.63.2-1.92.8.24.86.79.86Z" transform="translate(-82.46 -81.79)"/><path class="cls-2" d="M158.87,190.85a3.76,3.76,0,0,0,2-.55c.39-.29.47-.54-.14-.54a3.76,3.76,0,0,0-2.05.55c-.39.28-.48.54.14.54Z" transform="translate(-82.46 -81.79)"/><path class="cls-2" d="M159.28,191.21c.62,0,1.62-.18,1.91-.83s-.23-1-.83-1-1.61.18-1.9.83.23,1,.82,1Z" transform="translate(-82.46 -81.79)"/><path class="cls-2" d="M158.88,190.89a3.6,3.6,0,0,0,2.05-.55c.37-.3.47-.62-.16-.62a3.48,3.48,0,0,0-2.05.55c-.38.3-.48.62.16.62Z" transform="translate(-82.46 -81.79)"/><path class="cls-2" d="M159.29,191.23c.64,0,1.59-.18,1.9-.83s-.24-1-.83-1-1.59.18-1.9.84.24,1,.83,1Z" transform="translate(-82.46 -81.79)"/><path class="cls-2" d="M159.71,191.43c1.71,0,2.18-2.26.22-2.26-1.7,0-2.18,2.26-.22,2.26Z" transform="translate(-82.46 -81.79)"/><path class="cls-2" d="M159.3,191.26c.64,0,1.59-.18,1.89-.85s-.24-1.06-.84-1.06-1.59.18-1.9.84.24,1.07.85,1.07Z" transform="translate(-82.46 -81.79)"/><path class="cls-2" d="M159.24,191c.54,0,1.63-.21,1.92-.75s-.25-.71-.75-.71-1.63.21-1.92.76.25.7.75.7Z" transform="translate(-82.46 -81.79)"/><path class="cls-2" d="M159.26,191.13c.59,0,1.62-.19,1.91-.79s-.24-.87-.78-.87-1.63.2-1.92.8.24.86.79.86Z" transform="translate(-82.46 -81.79)"/><path class="cls-2" d="M159.22,191c.52,0,1.64-.22,1.93-.72s-.27-.6-.72-.6-1.64.22-1.93.73.26.59.72.59Z" transform="translate(-82.46 -81.79)"/><path class="cls-2" d="M159.26,191.14c.59,0,1.63-.2,1.92-.8s-.24-.87-.8-.87-1.62.19-1.91.79.24.88.79.88Z" transform="translate(-82.46 -81.79)"/><path class="cls-2" d="M159.71,191.42c1.7,0,2.19-2.24.23-2.24-1.7,0-2.19,2.24-.23,2.24Z" transform="translate(-82.46 -81.79)"/><path class="cls-2" d="M152.59,194.24c.61,0,1.62-.18,1.91-.81s-.23-1-.81-1-1.62.19-1.91.82.24.94.81.94Z" transform="translate(-82.46 -81.79)"/><path class="cls-2" d="M153,194.38c1.63,0,2.25-2,.28-2-1.62,0-2.25,2-.28,2Z" transform="translate(-82.46 -81.79)"/><path class="cls-2" d="M153,194.37c1.61,0,2.26-2,.28-2-1.61,0-2.25,2-.28,2Z" transform="translate(-82.46 -81.79)"/><path class="cls-2" d="M152.57,194.17c.58,0,1.63-.2,1.92-.78s-.24-.83-.78-.83-1.63.19-1.92.78.25.83.78.83Z" transform="translate(-82.46 -81.79)"/><path class="cls-2" d="M152.6,194.27c.62,0,1.61-.18,1.9-.82s-.23-1-.82-1-1.61.19-1.9.83.23,1,.82,1Z" transform="translate(-82.46 -81.79)"/><path class="cls-2" d="M181.86,177.2c1.68,0,2.2-2.19.24-2.19-1.68,0-2.21,2.19-.24,2.19Z" transform="translate(-82.46 -81.79)"/><path class="cls-2" d="M181.05,176.72a3.37,3.37,0,0,0,2-.54c.35-.32.46-.7-.19-.7a3.28,3.28,0,0,0-2,.55c-.36.31-.47.69.19.69Z" transform="translate(-82.46 -81.79)"/><path class="cls-2" d="M181.37,176.75c.52,0,1.64-.22,1.93-.72s-.27-.58-.71-.58-1.65.22-1.93.72.26.58.71.58Z" transform="translate(-82.46 -81.79)"/><path class="cls-2" d="M181.44,177c.62,0,1.61-.18,1.9-.83s-.23-1-.83-1-1.61.18-1.9.83.23,1,.83,1Z" transform="translate(-82.46 -81.79)"/><path class="cls-2" d="M181.38,176.8c.54,0,1.64-.21,1.93-.74s-.26-.66-.74-.66-1.63.21-1.92.74.26.66.73.66Z" transform="translate(-82.46 -81.79)"/><path class="cls-2" d="M181,176.71a3.41,3.41,0,0,0,2.05-.55c.37-.31.47-.66-.18-.66a3.44,3.44,0,0,0-2,.54c-.36.31-.47.67.18.67Z" transform="translate(-82.46 -81.79)"/><path class="cls-2" d="M181.4,176.87c.56,0,1.63-.21,1.92-.77s-.25-.76-.76-.76-1.63.2-1.92.76.25.77.76.77Z" transform="translate(-82.46 -81.79)"/><path class="cls-2" d="M192,189.26c.63,0,1.61-.18,1.9-.84s-.23-1-.83-1-1.61.18-1.9.83.23,1,.83,1Z" transform="translate(-82.46 -81.79)"/><path class="cls-2" d="M192,189.16c.58,0,1.62-.2,1.91-.8s-.24-.86-.79-.86-1.62.19-1.91.79.24.87.79.87Z" transform="translate(-82.46 -81.79)"/><path class="cls-2" d="M192,189.19c.6,0,1.62-.19,1.91-.81s-.23-.91-.8-.91-1.62.19-1.91.8.24.92.8.92Z" transform="translate(-82.46 -81.79)"/><path class="cls-2" d="M191.94,189.08c.56,0,1.64-.21,1.92-.76s-.25-.74-.75-.74-1.63.2-1.92.76.25.74.75.74Z" transform="translate(-82.46 -81.79)"/><path class="cls-2" d="M192,189.29c.65,0,1.59-.18,1.9-.85s-.24-1.08-.85-1.08-1.59.18-1.89.85.23,1.08.84,1.08Z" transform="translate(-82.46 -81.79)"/><path class="cls-2" d="M191.59,188.92a3.52,3.52,0,0,0,2-.55c.37-.3.47-.64-.17-.64a3.48,3.48,0,0,0-2.05.55c-.37.31-.47.64.17.64Z" transform="translate(-82.46 -81.79)"/><path class="cls-2" d="M192,189.25c.62,0,1.61-.18,1.9-.83s-.23-1-.83-1-1.61.18-1.9.84.23,1,.83,1Z" transform="translate(-82.46 -81.79)"/><path class="cls-2" d="M192,189.31c.65,0,1.59-.18,1.89-.86s-.24-1.1-.85-1.1-1.59.18-1.9.85.24,1.11.86,1.11Z" transform="translate(-82.46 -81.79)"/><path class="cls-2" d="M191.94,189.05c.54,0,1.63-.21,1.92-.75s-.25-.7-.74-.7-1.64.21-1.93.75.26.7.75.7Z" transform="translate(-82.46 -81.79)"/><path class="cls-2" d="M207,165.7c.65,0,1.6-.18,1.9-.85s-.24-1.06-.84-1.06-1.59.18-1.9.84.24,1.07.84,1.07Z" transform="translate(-82.46 -81.79)"/><path class="cls-2" d="M207,165.65c.62,0,1.62-.18,1.91-.83s-.24-1-.83-1-1.61.19-1.9.83.23,1,.82,1Z" transform="translate(-82.46 -81.79)"/><path class="cls-2" d="M206.57,165.34a3.41,3.41,0,0,0,2.05-.55c.37-.3.47-.65-.17-.65a3.52,3.52,0,0,0-2,.55c-.37.31-.47.65.17.65Z" transform="translate(-82.46 -81.79)"/><path class="cls-2" d="M207,165.72c.66,0,1.59-.17,1.9-.85s-.24-1.11-.86-1.11-1.59.18-1.89.86.23,1.1.85,1.1Z" transform="translate(-82.46 -81.79)"/><path class="cls-2" d="M207.37,165.75c1.62,0,2.26-2,.28-2-1.61,0-2.25,2-.28,2Z" transform="translate(-82.46 -81.79)"/><path class="cls-2" d="M206.93,165.49c.55,0,1.63-.21,1.92-.76s-.25-.73-.75-.73-1.64.2-1.92.76.25.73.75.73Z" transform="translate(-82.46 -81.79)"/><path class="cls-2" d="M156.29,202c1.67,0,2.21-2.15.25-2.15-1.67,0-2.22,2.15-.25,2.15Z" transform="translate(-82.46 -81.79)"/><path class="cls-2" d="M89.71,189.18c.6,0,1.62-.19,1.91-.81s-.23-.91-.8-.91-1.62.19-1.91.81.24.91.8.91Z" transform="translate(-82.46 -81.79)"/><path class="cls-2" d="M89.68,189.05c.55,0,1.63-.2,1.92-.75s-.25-.71-.75-.71-1.63.2-1.92.75.25.71.75.71Z" transform="translate(-82.46 -81.79)"/><path class="cls-2" d="M181.75,183.38c.51,0,1.65-.22,1.93-.71s-.26-.55-.7-.55-1.66.22-1.94.72.26.54.71.54Z" transform="translate(-82.46 -81.79)"/><path class="cls-2" d="M181.78,183.49c.55,0,1.63-.21,1.92-.76s-.25-.71-.75-.71-1.63.21-1.92.75.25.72.75.72Z" transform="translate(-82.46 -81.79)"/><path class="cls-2" d="M182.23,183.8c1.65,0,2.23-2.09.26-2.09-1.64,0-2.23,2.09-.26,2.09Z" transform="translate(-82.46 -81.79)"/><path class="cls-2" d="M161,210.68c.58,0,1.63-.2,1.92-.79s-.24-.82-.78-.82-1.62.2-1.91.78.24.83.77.83Z" transform="translate(-82.46 -81.79)"/><path class="cls-2" d="M161.48,211c1.67,0,2.21-2.16.25-2.16-1.67,0-2.22,2.16-.25,2.16Z" transform="translate(-82.46 -81.79)"/><path class="cls-2" d="M161,210.69c.58,0,1.62-.19,1.91-.79s-.24-.84-.78-.84-1.63.19-1.91.79.24.84.78.84Z" transform="translate(-82.46 -81.79)"/><path class="cls-2" d="M161.06,210.78c.62,0,1.62-.19,1.91-.83s-.24-1-.82-1-1.62.18-1.91.83.23,1,.82,1Z" transform="translate(-82.46 -81.79)"/><path class="cls-2" d="M161,210.65c.56,0,1.63-.2,1.92-.77s-.25-.78-.77-.78-1.63.2-1.92.77.25.78.77.78Z" transform="translate(-82.46 -81.79)"/><path class="cls-2" d="M161.06,210.76c.61,0,1.61-.18,1.9-.82s-.23-1-.81-1-1.62.19-1.91.82.24,1,.82,1Z" transform="translate(-82.46 -81.79)"/><path class="cls-2" d="M155.48,208.09c.65,0,1.59-.18,1.89-.86s-.24-1.09-.85-1.09-1.59.18-1.9.85.24,1.1.86,1.1Z" transform="translate(-82.46 -81.79)"/><path class="cls-2" d="M155.42,207.9c.57,0,1.63-.2,1.92-.78s-.24-.79-.77-.79-1.63.2-1.92.78.25.79.77.79Z" transform="translate(-82.46 -81.79)"/><path class="cls-2" d="M155.46,208c.61,0,1.61-.19,1.9-.83s-.23-1-.82-1-1.61.18-1.9.83.23,1,.82,1Z" transform="translate(-82.46 -81.79)"/><path class="cls-2" d="M155.43,207.9c.57,0,1.62-.2,1.91-.77s-.24-.8-.77-.8-1.63.19-1.92.77.25.8.78.8Z" transform="translate(-82.46 -81.79)"/><path class="cls-2" d="M155.88,208.2c1.67,0,2.2-2.17.24-2.17-1.67,0-2.21,2.17-.24,2.17Z" transform="translate(-82.46 -81.79)"/><path class="cls-2" d="M155.41,207.86c.56,0,1.64-.2,1.93-.76s-.26-.73-.76-.73-1.63.2-1.92.76.25.73.75.73Z" transform="translate(-82.46 -81.79)"/><path class="cls-2" d="M155.39,207.78c.53,0,1.64-.21,1.93-.72s-.26-.61-.72-.61-1.64.21-1.93.72.27.61.72.61Z" transform="translate(-82.46 -81.79)"/><path class="cls-2" d="M178.7,199c.55,0,1.64-.21,1.93-.75s-.26-.67-.74-.67-1.64.21-1.92.74.25.68.73.68Z" transform="translate(-82.46 -81.79)"/><path class="cls-2" d="M178.69,198.94c.53,0,1.65-.21,1.93-.73s-.26-.61-.72-.61-1.64.21-1.93.72.26.62.72.62Z" transform="translate(-82.46 -81.79)"/><path class="cls-2" d="M178.37,198.9a3.29,3.29,0,0,0,2-.55c.35-.31.47-.71-.19-.71a3.28,3.28,0,0,0-2,.55c-.36.31-.47.71.19.71Z" transform="translate(-82.46 -81.79)"/><path class="cls-2" d="M178.73,199.07c.57,0,1.62-.2,1.91-.78s-.24-.82-.77-.82-1.63.2-1.92.78.25.82.78.82Z" transform="translate(-82.46 -81.79)"/><path class="cls-2" d="M178.72,199c.55,0,1.63-.2,1.92-.76s-.25-.75-.76-.75-1.63.21-1.92.77.25.74.76.74Z" transform="translate(-82.46 -81.79)"/><path class="cls-2" d="M179.17,199.34c1.67,0,2.22-2.14.25-2.14-1.66,0-2.21,2.14-.25,2.14Z" transform="translate(-82.46 -81.79)"/><path class="cls-2" d="M178.7,199c.54,0,1.64-.21,1.93-.73s-.26-.66-.73-.66-1.64.22-1.93.74.26.65.73.65Z" transform="translate(-82.46 -81.79)"/><path class="cls-2" d="M170.5,196.2c.54,0,1.64-.21,1.93-.74s-.26-.65-.73-.65-1.64.21-1.93.73.26.66.73.66Z" transform="translate(-82.46 -81.79)"/><path class="cls-2" d="M170.53,196.28c.56,0,1.62-.2,1.91-.77s-.24-.78-.76-.78-1.63.2-1.92.77.25.78.77.78Z" transform="translate(-82.46 -81.79)"/><path class="cls-2" d="M170.17,196.12a3.36,3.36,0,0,0,2.05-.55c.36-.31.47-.68-.19-.68a3.27,3.27,0,0,0-2,.55c-.36.3-.47.68.18.68Z" transform="translate(-82.46 -81.79)"/><path class="cls-2" d="M163.73,197.51c1.65,0,2.23-2.1.26-2.1-1.64,0-2.23,2.1-.26,2.1Z" transform="translate(-82.46 -81.79)"/><path class="cls-2" d="M163.31,197.31c.59,0,1.62-.19,1.91-.8s-.24-.91-.81-.91-1.61.19-1.9.8.23.91.8.91Z" transform="translate(-82.46 -81.79)"/><path class="cls-2" d="M163.26,197.13c.53,0,1.64-.21,1.93-.73s-.26-.62-.73-.62-1.64.21-1.93.73.27.62.73.62Z" transform="translate(-82.46 -81.79)"/><path class="cls-2" d="M163.29,197.24c.57,0,1.62-.2,1.91-.78s-.24-.79-.77-.79-1.62.2-1.91.78.24.79.77.79Z" transform="translate(-82.46 -81.79)"/><path class="cls-2" d="M164,200.88c.65,0,1.59-.17,1.9-.85s-.24-1.1-.86-1.1-1.59.17-1.89.85.24,1.1.85,1.1Z" transform="translate(-82.46 -81.79)"/><path class="cls-2" d="M163.93,200.81c.61,0,1.61-.19,1.9-.83s-.23-1-.82-1-1.61.19-1.9.83.23,1,.82,1Z" transform="translate(-82.46 -81.79)"/><path class="cls-2" d="M164.36,201c1.71,0,2.18-2.27.22-2.27-1.7,0-2.18,2.27-.22,2.27Z" transform="translate(-82.46 -81.79)"/><path class="cls-2" d="M163.9,200.68c.56,0,1.62-.2,1.91-.77s-.24-.78-.76-.78-1.63.21-1.92.77.25.78.77.78Z" transform="translate(-82.46 -81.79)"/><path class="cls-2" d="M164,200.89c.66,0,1.59-.17,1.9-.86s-.24-1.11-.86-1.11-1.59.17-1.89.86.23,1.11.85,1.11Z" transform="translate(-82.46 -81.79)"/><path class="cls-2" d="M164.34,201c1.66,0,2.23-2.13.26-2.13-1.66,0-2.22,2.13-.26,2.13Z" transform="translate(-82.46 -81.79)"/><path class="cls-2" d="M155.79,208.34c1.69,0,2.2-2.22.23-2.22-1.68,0-2.19,2.22-.23,2.22Z" transform="translate(-82.46 -81.79)"/><path class="cls-2" d="M155.76,208.24c1.62,0,2.26-2,.29-2-1.61,0-2.26,2-.29,2Z" transform="translate(-82.46 -81.79)"/><path class="cls-2" d="M155,207.85a3.31,3.31,0,0,0,2.05-.55c.35-.31.46-.69-.19-.69a3.33,3.33,0,0,0-2.05.54c-.36.32-.47.7.19.7Z" transform="translate(-82.46 -81.79)"/><path class="cls-2" d="M155.32,208c.54,0,1.63-.21,1.92-.75s-.25-.69-.74-.69-1.64.2-1.93.75.26.69.75.69Z" transform="translate(-82.46 -81.79)"/><path class="cls-2" d="M155,207.83a3.41,3.41,0,0,0,2.05-.55c.37-.3.47-.66-.18-.66a3.45,3.45,0,0,0-2.05.55c-.36.31-.47.66.18.66Z" transform="translate(-82.46 -81.79)"/><path class="cls-2" d="M167.24,184.1c.59,0,1.62-.19,1.91-.8s-.23-.89-.79-.89-1.62.19-1.91.8.24.89.79.89Z" transform="translate(-82.46 -81.79)"/><path class="cls-2" d="M167.21,184c.54,0,1.63-.21,1.92-.75s-.25-.68-.74-.68-1.63.21-1.92.74.25.69.74.69Z" transform="translate(-82.46 -81.79)"/><path class="cls-2" d="M167.27,184.21c.65,0,1.59-.18,1.9-.85s-.24-1.06-.84-1.06-1.59.18-1.9.85.24,1.06.84,1.06Z" transform="translate(-82.46 -81.79)"/><path class="cls-2" d="M163.18,185.81c.55,0,1.63-.2,1.92-.75s-.25-.72-.75-.72-1.63.2-1.92.75.25.72.75.72Z" transform="translate(-82.46 -81.79)"/><path class="cls-2" d="M162.84,185.7a3.38,3.38,0,0,0,2-.55c.35-.31.46-.7-.19-.7a3.34,3.34,0,0,0-2,.55c-.36.31-.47.7.19.7Z" transform="translate(-82.46 -81.79)"/><path class="cls-2" d="M162.83,185.68a3.41,3.41,0,0,0,2-.55c.36-.31.47-.66-.18-.66a3.45,3.45,0,0,0-2,.55c-.36.3-.47.66.18.66Z" transform="translate(-82.46 -81.79)"/><path class="cls-2" d="M163.65,186.18c1.68,0,2.2-2.21.23-2.21-1.68,0-2.19,2.21-.23,2.21Z" transform="translate(-82.46 -81.79)"/><path class="cls-2" d="M100.85,192.86c.61,0,1.62-.19,1.91-.82s-.23-.94-.81-.94-1.62.19-1.91.82.24.94.81.94Z" transform="translate(-82.46 -81.79)"/><path class="cls-2" d="M100.88,193c.65,0,1.59-.18,1.9-.86s-.24-1.1-.86-1.1-1.59.18-1.89.86.23,1.1.85,1.1Z" transform="translate(-82.46 -81.79)"/><path class="cls-2" d="M100.85,192.86c.61,0,1.62-.18,1.91-.81s-.23-1-.81-1-1.62.19-1.91.81.24,1,.81,1Z" transform="translate(-82.46 -81.79)"/><path class="cls-2" d="M100.46,192.58a3.48,3.48,0,0,0,2.05-.55c.37-.31.47-.64-.17-.64a3.51,3.51,0,0,0-2,.54c-.37.31-.47.65.17.65Z" transform="translate(-82.46 -81.79)"/><path class="cls-2" d="M100.83,192.76c.57,0,1.63-.2,1.91-.77s-.24-.79-.76-.79-1.63.2-1.92.77.24.79.77.79Z" transform="translate(-82.46 -81.79)"/><path class="cls-2" d="M100.86,192.9c.63,0,1.62-.18,1.91-.83s-.23-1-.83-1-1.61.18-1.9.83.23,1,.82,1Z" transform="translate(-82.46 -81.79)"/><path class="cls-2" d="M185.6,171.63c.56,0,1.63-.2,1.92-.76s-.25-.75-.75-.75-1.63.21-1.92.77.25.74.75.74Z" transform="translate(-82.46 -81.79)"/><path class="cls-2" d="M185.61,171.65c.57,0,1.63-.2,1.92-.77s-.25-.78-.77-.78-1.63.2-1.92.77.25.78.77.78Z" transform="translate(-82.46 -81.79)"/><path class="cls-2" d="M185.66,171.84c.65,0,1.59-.18,1.9-.85s-.24-1.07-.85-1.07-1.59.17-1.9.84.24,1.08.85,1.08Z" transform="translate(-82.46 -81.79)"/><path class="cls-2" d="M185.65,171.81c.64,0,1.59-.18,1.9-.84s-.24-1-.83-1-1.59.18-1.9.84.24,1,.83,1Z" transform="translate(-82.46 -81.79)"/><path class="cls-2" d="M179.85,189.79c1.65,0,2.22-2.13.25-2.13-1.65,0-2.22,2.13-.25,2.13Z" transform="translate(-82.46 -81.79)"/><path class="cls-2" d="M179.43,189.62c.61,0,1.62-.19,1.91-.82s-.24-1-.82-1-1.61.18-1.9.82.23,1,.81,1Z" transform="translate(-82.46 -81.79)"/><path class="cls-2" d="M179.41,189.56c.59,0,1.63-.19,1.92-.8s-.24-.86-.79-.86-1.63.19-1.92.79.24.87.79.87Z" transform="translate(-82.46 -81.79)"/><path class="cls-2" d="M179.84,189.76c1.63,0,2.24-2.06.27-2.06-1.63,0-2.24,2.06-.27,2.06Z" transform="translate(-82.46 -81.79)"/><path class="cls-2" d="M179.85,189.81c1.67,0,2.22-2.16.25-2.16-1.67,0-2.21,2.16-.25,2.16Z" transform="translate(-82.46 -81.79)"/><path class="cls-2" d="M179,189.35a3.28,3.28,0,0,0,2.05-.55c.36-.31.47-.7-.18-.7a3.34,3.34,0,0,0-2,.55c-.36.31-.47.7.18.7Z" transform="translate(-82.46 -81.79)"/><path class="cls-2" d="M124.16,212.37a3.34,3.34,0,0,0,2-.55c.37-.3.47-.66-.18-.66a3.38,3.38,0,0,0-2,.55c-.36.3-.47.66.18.66Z" transform="translate(-82.46 -81.79)"/><path class="cls-2" d="M125,212.89c1.69,0,2.18-2.25.22-2.25-1.7,0-2.19,2.25-.22,2.25Z" transform="translate(-82.46 -81.79)"/><path class="cls-2" d="M124.55,212.66c.62,0,1.62-.19,1.91-.82s-.23-1-.82-1-1.61.19-1.9.82.23,1,.81,1Z" transform="translate(-82.46 -81.79)"/><path class="cls-2" d="M124.54,212.6c.59,0,1.62-.19,1.91-.8s-.24-.87-.79-.87-1.62.19-1.91.79.24.88.79.88Z" transform="translate(-82.46 -81.79)"/><path class="cls-2" d="M124.53,212.59c.59,0,1.63-.2,1.92-.8s-.24-.85-.79-.85-1.62.2-1.91.79.24.86.78.86Z" transform="translate(-82.46 -81.79)"/><path class="cls-2" d="M124.51,212.49c.55,0,1.63-.21,1.92-.75s-.25-.7-.74-.7-1.64.21-1.92.75.25.7.74.7Z" transform="translate(-82.46 -81.79)"/><path class="cls-2" d="M125,212.77c1.61,0,2.25-2,.28-2-1.62,0-2.26,2-.28,2Z" transform="translate(-82.46 -81.79)"/><path class="cls-2" d="M189.73,183.35c1.62,0,2.25-2,.28-2-1.62,0-2.26,2-.28,2Z" transform="translate(-82.46 -81.79)"/><path class="cls-2" d="M188.92,182.88a3.66,3.66,0,0,0,2-.55c.39-.29.48-.54-.14-.54a3.76,3.76,0,0,0-2,.55c-.39.29-.47.54.15.54Z" transform="translate(-82.46 -81.79)"/><path class="cls-2" d="M188.93,182.94a3.34,3.34,0,0,0,2-.55c.36-.3.47-.66-.18-.66a3.38,3.38,0,0,0-2.05.55c-.36.3-.47.66.18.66Z" transform="translate(-82.46 -81.79)"/><path class="cls-2" d="M179,189.46a3.34,3.34,0,0,0,2.05-.55c.36-.31.47-.68-.18-.68a3.33,3.33,0,0,0-2,.54c-.36.31-.47.69.18.69Z" transform="translate(-82.46 -81.79)"/><path class="cls-2" d="M179.77,190c1.7,0,2.19-2.25.23-2.25-1.7,0-2.19,2.25-.23,2.25Z" transform="translate(-82.46 -81.79)"/><path class="cls-2" d="M196.76,167c1.61,0,2.26-2,.28-2-1.61,0-2.26,2-.28,2Z" transform="translate(-82.46 -81.79)"/><path class="cls-2" d="M196.29,166.64c.52,0,1.64-.22,1.93-.72s-.27-.57-.71-.57-1.64.22-1.93.72.27.57.71.57Z" transform="translate(-82.46 -81.79)"/><path class="cls-2" d="M196,166.61a3.38,3.38,0,0,0,2.05-.55c.36-.31.47-.68-.19-.68a3.38,3.38,0,0,0-2.05.55c-.36.31-.47.68.19.68Z" transform="translate(-82.46 -81.79)"/><path class="cls-2" d="M175.34,179.07c1.66,0,2.22-2.14.26-2.14-1.67,0-2.22,2.14-.26,2.14Z" transform="translate(-82.46 -81.79)"/><path class="cls-2" d="M174.86,178.64c.5,0,1.65-.22,1.93-.72s-.26-.55-.71-.55-1.65.22-1.93.71.26.56.71.56Z" transform="translate(-82.46 -81.79)"/><path class="cls-2" d="M174.87,178.69c.54,0,1.64-.21,1.93-.73s-.26-.65-.73-.65-1.64.22-1.93.74.26.64.73.64Z" transform="translate(-82.46 -81.79)"/><path class="cls-2" d="M174.87,178.7c.54,0,1.64-.21,1.93-.74s-.26-.65-.73-.65-1.64.21-1.93.74.26.65.73.65Z" transform="translate(-82.46 -81.79)"/><path class="cls-2" d="M174.52,178.56a3.68,3.68,0,0,0,2-.55c.38-.29.47-.56-.15-.56a3.68,3.68,0,0,0-2,.55c-.38.29-.47.56.15.56Z" transform="translate(-82.46 -81.79)"/></svg>