<svg id="Layer_1" data-name="Layer 1" xmlns="http://www.w3.org/2000/svg" viewBox="0 0 153.28 181.95"><defs><style>.cls-1{fill:none;stroke:#2b3c47;stroke-miterlimit:10;}.cls-2{fill:#2b3c47;}</style></defs><path class="cls-1" d="M197.28,60.72c-1.23,1-1.37,1.76-2.51,2.9A11.6,11.6,0,0,1,191,65.89c-4,1.59-8.81-.14-9.47-.36-8.72-3-29.43,4-33.84,5.54-24,8.17-39.41,24.8-43.87,29.93-1.8,2.07-24.21,28.37-25.08,56.67-.15,5.05.44,9,.09,21.44-.37,13.14-.2,14.6,1.1,22.14a19.73,19.73,0,0,1,.72,6.69,17.77,17.77,0,0,1-2.85,7.17c-1.47,2.35-2.2,2.57-3.25,4.87a9.39,9.39,0,0,0-1.17,4.88c.12,1.28.62,2.26,2.68,5,3.08,4.1,4.61,6.15,6.62,7.53,1.83,1.26,3.73,2.58,6.43,2.74,4,.24,7.16-2.17,9.18-3.7,2.94-2.22,2.87-3.35,5.65-5a17.67,17.67,0,0,1,6.25-2,58.76,58.76,0,0,1,13.32-.55c4.42.16,8.29-.49,16-1.78,13.06-2.18,23.88-8.42,31.18-12.63,12.5-7.21,25.44-14.68,34.5-30,1.62-2.75,3.15-6.44,6.21-13.81,5.76-13.88,10.36-25,12.6-39.78,1.27-8.41,2.6-17.17.47-28.2-.92-4.77-3.58-18.56-8.3-23.25-.62-.61-2.56-2.34-2.58-4.69,0-1.65.93-2.33,1-4.47a8.28,8.28,0,0,0-.92-3.86c-1-2.05-2.63-3-5.7-4.71-3.28-1.85-5.06-2.82-7.37-2.43A8.05,8.05,0,0,0,197.28,60.72Z" transform="translate(-72.86 -58.7)"/><path class="cls-1" d="M77,228.79c.21-1.51.77-1.7.88-1.73s.52-.1,2.23,1.63c.46.46.84.89,2.07,2.33a11.57,11.57,0,0,1,1.56,2,5.16,5.16,0,0,1,.3,3.3" transform="translate(-72.86 -58.7)"/><path class="cls-1" d="M202,61.18A3.08,3.08,0,0,0,200.38,63a3.23,3.23,0,0,0,1.32,3.23c1.59,1.2,3.82.53,5-.21A5.5,5.5,0,0,0,208.67,64" transform="translate(-72.86 -58.7)"/><path class="cls-2" d="M113.35,106.93c.61,0,1.61-.18,1.9-.82s-.23-1-.82-1-1.61.18-1.9.82.23,1,.82,1Z" transform="translate(-72.86 -58.7)"/><path class="cls-2" d="M121.24,99.53c.55,0,1.64-.21,1.92-.75s-.25-.69-.74-.69-1.63.21-1.92.75.25.69.74.69Z" transform="translate(-72.86 -58.7)"/><path class="cls-2" d="M121.27,99.65c.6,0,1.62-.19,1.91-.8S123,98,122.39,98s-1.62.19-1.91.8.24.88.79.88Z" transform="translate(-72.86 -58.7)"/><path class="cls-2" d="M121.3,99.73c.62,0,1.61-.18,1.9-.83s-.23-1-.83-1-1.61.18-1.9.83.23,1,.83,1Z" transform="translate(-72.86 -58.7)"/><path class="cls-2" d="M121.24,99.51c.54,0,1.63-.21,1.92-.74s-.26-.66-.73-.66-1.64.21-1.93.74.26.66.74.66Z" transform="translate(-72.86 -58.7)"/><path class="cls-2" d="M133.88,90.4c1.7,0,2.18-2.27.22-2.27-1.71,0-2.18,2.27-.22,2.27Z" transform="translate(-72.86 -58.7)"/><path class="cls-2" d="M133.05,89.85a3.52,3.52,0,0,0,2-.55c.37-.3.47-.62-.17-.62a3.52,3.52,0,0,0-2.05.55c-.37.3-.47.62.17.62Z" transform="translate(-72.86 -58.7)"/><path class="cls-2" d="M112.9,120c1.65,0,2.23-2.1.27-2.1-1.65,0-2.24,2.1-.27,2.1Z" transform="translate(-72.86 -58.7)"/><path class="cls-2" d="M112.5,119.92c.64,0,1.59-.18,1.9-.84s-.24-1-.83-1-1.59.18-1.9.83.24,1,.83,1Z" transform="translate(-72.86 -58.7)"/><path class="cls-2" d="M112.51,119.93c.64,0,1.59-.18,1.89-.84s-.24-1.06-.84-1.06-1.59.18-1.89.85.24,1.05.84,1.05Z" transform="translate(-72.86 -58.7)"/><path class="cls-2" d="M107.31,114.86c.54,0,1.63-.21,1.92-.75s-.26-.67-.74-.67-1.63.21-1.92.74.25.68.74.68Z" transform="translate(-72.86 -58.7)"/><path class="cls-2" d="M107.76,115.19c1.64,0,2.24-2.08.27-2.08-1.63,0-2.24,2.08-.27,2.08Z" transform="translate(-72.86 -58.7)"/><path class="cls-2" d="M107,114.77a3.29,3.29,0,0,0,2-.55c.35-.31.47-.7-.19-.7a3.34,3.34,0,0,0-2,.55c-.36.31-.47.7.19.7Z" transform="translate(-72.86 -58.7)"/><path class="cls-2" d="M97.74,119.14a3.76,3.76,0,0,0,2.05-.55c.38-.3.47-.56-.15-.56a3.76,3.76,0,0,0-2,.55c-.38.29-.47.56.15.56Z" transform="translate(-72.86 -58.7)"/><path class="cls-2" d="M98.55,119.6c1.62,0,2.25-2,.28-2-1.62,0-2.25,2-.28,2Z" transform="translate(-72.86 -58.7)"/><path class="cls-2" d="M97.74,119.16a3.55,3.55,0,0,0,2.05-.55c.38-.3.48-.6-.16-.6a3.6,3.6,0,0,0-2,.55c-.37.3-.47.6.16.6Z" transform="translate(-72.86 -58.7)"/><path class="cls-2" d="M113.4,106.34c.54,0,1.64-.21,1.93-.74s-.26-.67-.74-.67-1.63.22-1.92.75.25.66.73.66Z" transform="translate(-72.86 -58.7)"/><path class="cls-2" d="M113.88,106.75c1.7,0,2.19-2.23.23-2.23-1.69,0-2.19,2.23-.23,2.23Z" transform="translate(-72.86 -58.7)"/><path class="cls-2" d="M114.13,138.81c.53,0,1.65-.22,1.93-.73s-.26-.61-.72-.61-1.64.22-1.93.73.27.61.72.61Z" transform="translate(-72.86 -58.7)"/><path class="cls-2" d="M114.13,138.8c.53,0,1.64-.22,1.93-.73s-.26-.59-.71-.59-1.65.22-1.93.73.26.59.71.59Z" transform="translate(-72.86 -58.7)"/><path class="cls-2" d="M114.14,138.83c.54,0,1.64-.21,1.93-.74s-.26-.64-.73-.64-1.64.21-1.93.74.26.64.73.64Z" transform="translate(-72.86 -58.7)"/><path class="cls-2" d="M114.21,139.08c.64,0,1.59-.18,1.9-.84s-.25-1-.84-1-1.59.19-1.9.84.24,1,.84,1Z" transform="translate(-72.86 -58.7)"/><path class="cls-2" d="M113.81,139a3.6,3.6,0,0,0,2-.55c.38-.29.47-.58-.15-.58a3.68,3.68,0,0,0-2,.55c-.38.3-.48.58.15.58Z" transform="translate(-72.86 -58.7)"/><path class="cls-2" d="M114.15,139.06c.52,0,1.64-.22,1.93-.72s-.27-.56-.71-.56-1.64.22-1.93.71.27.57.71.57Z" transform="translate(-72.86 -58.7)"/><path class="cls-2" d="M114.17,139.14c.54,0,1.63-.21,1.92-.75s-.25-.69-.74-.69-1.64.21-1.92.75.25.69.74.69Z" transform="translate(-72.86 -58.7)"/><path class="cls-2" d="M114.65,139.54c1.7,0,2.18-2.25.22-2.25-1.7,0-2.18,2.25-.22,2.25Z" transform="translate(-72.86 -58.7)"/><path class="cls-2" d="M114.19,139.22c.58,0,1.63-.2,1.91-.78s-.24-.82-.77-.82-1.63.2-1.92.78.25.82.78.82Z" transform="translate(-72.86 -58.7)"/><path class="cls-2" d="M102.83,126.87c1.68,0,2.2-2.21.23-2.21-1.68,0-2.2,2.21-.23,2.21Z" transform="translate(-72.86 -58.7)"/><path class="cls-2" d="M102.37,126.56c.58,0,1.63-.2,1.92-.78s-.24-.81-.77-.81-1.63.2-1.92.78.24.81.77.81Z" transform="translate(-72.86 -58.7)"/><path class="cls-2" d="M102.35,126.47c.54,0,1.64-.21,1.93-.74s-.26-.67-.74-.67-1.64.21-1.93.74.26.67.74.67Z" transform="translate(-72.86 -58.7)"/><path class="cls-2" d="M102.82,126.83c1.66,0,2.22-2.13.25-2.13-1.66,0-2.22,2.13-.25,2.13Z" transform="translate(-72.86 -58.7)"/><path class="cls-2" d="M105.1,141c1.62,0,2.25-2.05.28-2.05-1.63,0-2.25,2.05-.28,2.05Z" transform="translate(-72.86 -58.7)"/><path class="cls-2" d="M104.67,140.75c.58,0,1.63-.19,1.92-.79s-.24-.84-.79-.84-1.62.19-1.91.79.24.84.78.84Z" transform="translate(-72.86 -58.7)"/><path class="cls-2" d="M104.67,140.73c.57,0,1.62-.2,1.91-.78s-.24-.81-.77-.81-1.63.2-1.92.78.25.81.78.81Z" transform="translate(-72.86 -58.7)"/><path class="cls-2" d="M93.83,134.63c.55,0,1.63-.2,1.92-.76s-.25-.73-.75-.73-1.64.21-1.93.76.26.73.76.73Z" transform="translate(-72.86 -58.7)"/><path class="cls-2" d="M93.46,134.45a3.68,3.68,0,0,0,2.05-.55c.38-.29.48-.58-.15-.58a3.68,3.68,0,0,0-2,.55c-.38.3-.47.58.15.58Z" transform="translate(-72.86 -58.7)"/><path class="cls-2" d="M94.28,134.93c1.64,0,2.23-2.09.27-2.09-1.65,0-2.24,2.09-.27,2.09Z" transform="translate(-72.86 -58.7)"/><path class="cls-2" d="M87,143.91c.52,0,1.64-.22,1.93-.72s-.27-.57-.71-.57-1.64.22-1.93.72.27.57.71.57Z" transform="translate(-72.86 -58.7)"/><path class="cls-2" d="M86.64,143.88a3.38,3.38,0,0,0,2-.55c.36-.31.47-.68-.19-.68a3.38,3.38,0,0,0-2,.55c-.36.31-.47.68.19.68Z" transform="translate(-72.86 -58.7)"/><path class="cls-2" d="M87,144.08c.59,0,1.63-.19,1.92-.79s-.24-.84-.79-.84-1.62.19-1.91.79.24.84.78.84Z" transform="translate(-72.86 -58.7)"/><path class="cls-2" d="M87.43,144.3c1.64,0,2.24-2.07.27-2.07-1.63,0-2.24,2.07-.27,2.07Z" transform="translate(-72.86 -58.7)"/><path class="cls-2" d="M96.18,143.76c.51,0,1.66-.22,1.94-.72s-.26-.55-.71-.55-1.66.22-1.93.71.25.56.7.56Z" transform="translate(-72.86 -58.7)"/><path class="cls-2" d="M96.19,143.78c.52,0,1.64-.22,1.93-.72s-.27-.59-.72-.59-1.64.22-1.93.72.27.59.72.59Z" transform="translate(-72.86 -58.7)"/><path class="cls-2" d="M96.65,144.12c1.61,0,2.26-2,.29-2-1.61,0-2.26,2-.29,2Z" transform="translate(-72.86 -58.7)"/><path class="cls-2" d="M96.68,144.24c1.7,0,2.19-2.24.23-2.24-1.7,0-2.19,2.24-.23,2.24Z" transform="translate(-72.86 -58.7)"/><path class="cls-2" d="M96.2,143.83c.54,0,1.64-.21,1.93-.74s-.26-.67-.74-.67-1.64.21-1.93.74.26.67.74.67Z" transform="translate(-72.86 -58.7)"/><path class="cls-2" d="M114.25,153.62c1.62,0,2.26-2,.28-2-1.62,0-2.25,2-.28,2Z" transform="translate(-72.86 -58.7)"/><path class="cls-2" d="M114.25,153.62c1.62,0,2.26-2,.29-2-1.62,0-2.26,2-.29,2Z" transform="translate(-72.86 -58.7)"/><path class="cls-2" d="M113.46,153.23a3.28,3.28,0,0,0,2.05-.55c.36-.31.47-.7-.19-.7a3.29,3.29,0,0,0-2,.55c-.35.31-.46.7.19.7Z" transform="translate(-72.86 -58.7)"/><path class="cls-2" d="M114.27,153.68c1.67,0,2.21-2.15.25-2.15-1.67,0-2.22,2.15-.25,2.15Z" transform="translate(-72.86 -58.7)"/><path class="cls-2" d="M123.33,164.23c.6,0,1.62-.19,1.91-.82s-.24-.92-.81-.92-1.62.19-1.91.81.24.93.81.93Z" transform="translate(-72.86 -58.7)"/><path class="cls-2" d="M123.3,164.13c.57,0,1.63-.2,1.92-.77s-.24-.78-.76-.78-1.63.2-1.92.77.24.78.76.78Z" transform="translate(-72.86 -58.7)"/><path class="cls-2" d="M123.29,164.09c.56,0,1.64-.2,1.93-.75s-.26-.72-.75-.72-1.64.21-1.93.76.26.71.75.71Z" transform="translate(-72.86 -58.7)"/><path class="cls-2" d="M122.94,164a3.52,3.52,0,0,0,2-.55c.37-.3.47-.64-.17-.64a3.52,3.52,0,0,0-2,.55c-.37.31-.47.64.17.64Z" transform="translate(-72.86 -58.7)"/><path class="cls-2" d="M123.32,164.2c.59,0,1.62-.19,1.91-.8s-.24-.89-.79-.89-1.62.19-1.91.8.23.89.79.89Z" transform="translate(-72.86 -58.7)"/><path class="cls-2" d="M123.74,164.39c1.63,0,2.25-2.06.28-2.06-1.64,0-2.25,2.06-.28,2.06Z" transform="translate(-72.86 -58.7)"/><path class="cls-2" d="M123,164a3.29,3.29,0,0,0,2-.55c.36-.31.47-.7-.19-.7a3.34,3.34,0,0,0-2,.55c-.36.31-.47.7.19.7Z" transform="translate(-72.86 -58.7)"/><path class="cls-2" d="M114.81,174.34c.56,0,1.64-.21,1.93-.76s-.25-.73-.76-.73-1.63.2-1.92.76.25.73.75.73Z" transform="translate(-72.86 -58.7)"/><path class="cls-2" d="M114.86,174.5c.61,0,1.61-.19,1.9-.83s-.23-1-.82-1-1.61.18-1.9.82.23,1,.82,1Z" transform="translate(-72.86 -58.7)"/><path class="cls-2" d="M114.79,174.25c.52,0,1.64-.22,1.93-.72s-.26-.59-.71-.59-1.65.22-1.93.72.26.59.71.59Z" transform="translate(-72.86 -58.7)"/><path class="cls-2" d="M114.81,174.32c.55,0,1.63-.21,1.92-.75s-.25-.7-.74-.7-1.64.21-1.92.75.25.7.74.7Z" transform="translate(-72.86 -58.7)"/><path class="cls-2" d="M115.28,174.68c1.67,0,2.21-2.17.24-2.17-1.67,0-2.21,2.17-.24,2.17Z" transform="translate(-72.86 -58.7)"/><path class="cls-2" d="M115.26,174.61c1.62,0,2.25-2,.28-2-1.62,0-2.25,2-.28,2Z" transform="translate(-72.86 -58.7)"/><path class="cls-2" d="M109.52,166.85c1.66,0,2.22-2.14.25-2.14-1.66,0-2.22,2.14-.25,2.14Z" transform="translate(-72.86 -58.7)"/><path class="cls-2" d="M109.1,166.66c.6,0,1.61-.18,1.9-.82s-.23-1-.81-1-1.61.19-1.9.82.23.95.81.95Z" transform="translate(-72.86 -58.7)"/><path class="cls-2" d="M109.51,166.82c1.64,0,2.24-2.08.27-2.08-1.64,0-2.24,2.08-.27,2.08Z" transform="translate(-72.86 -58.7)"/><path class="cls-2" d="M109.07,166.57c.58,0,1.63-.2,1.92-.78s-.25-.81-.77-.81-1.63.2-1.92.78.24.81.77.81Z" transform="translate(-72.86 -58.7)"/><path class="cls-2" d="M105.69,154.85c1.71,0,2.18-2.27.22-2.27-1.71,0-2.18,2.27-.22,2.27Z" transform="translate(-72.86 -58.7)"/><path class="cls-2" d="M105.25,154.57c.59,0,1.62-.19,1.91-.81s-.24-.9-.8-.9-1.62.19-1.91.8.23.91.8.91Z" transform="translate(-72.86 -58.7)"/><path class="cls-2" d="M105.26,154.62c.62,0,1.62-.18,1.91-.82s-.23-1-.83-1-1.61.18-1.9.83.23,1,.82,1Z" transform="translate(-72.86 -58.7)"/><path class="cls-2" d="M102.81,151c.52,0,1.64-.22,1.93-.72s-.27-.57-.71-.57-1.64.22-1.93.72.26.57.71.57Z" transform="translate(-72.86 -58.7)"/><path class="cls-2" d="M102.89,151.28c.64,0,1.59-.19,1.9-.84s-.25-1-.84-1-1.59.18-1.9.84.24,1,.84,1Z" transform="translate(-72.86 -58.7)"/><path class="cls-2" d="M102.82,151c.54,0,1.64-.21,1.93-.74s-.26-.66-.74-.66-1.63.21-1.92.74.26.66.73.66Z" transform="translate(-72.86 -58.7)"/><path class="cls-2" d="M102.47,150.9a3.68,3.68,0,0,0,2-.55c.38-.3.47-.58-.15-.58a3.68,3.68,0,0,0-2.05.55c-.38.3-.48.58.15.58Z" transform="translate(-72.86 -58.7)"/><path class="cls-2" d="M90.56,154.88a3.76,3.76,0,0,0,2-.55c.39-.29.47-.54-.14-.54a3.85,3.85,0,0,0-2,.55c-.39.29-.48.54.14.54Z" transform="translate(-72.86 -58.7)"/><path class="cls-2" d="M91.39,155.44c1.69,0,2.2-2.2.24-2.2-1.68,0-2.2,2.2-.24,2.2Z" transform="translate(-72.86 -58.7)"/><path class="cls-2" d="M90.93,155.1c.56,0,1.63-.2,1.92-.77s-.25-.75-.76-.75-1.63.2-1.92.76.25.76.76.76Z" transform="translate(-72.86 -58.7)"/><path class="cls-2" d="M91,155.33c.66,0,1.59-.18,1.9-.86a.82.82,0,0,0-.86-1.12c-.66,0-1.59.18-1.89.86a.82.82,0,0,0,.85,1.12Z" transform="translate(-72.86 -58.7)"/><path class="cls-2" d="M95.08,161.24c.53,0,1.64-.21,1.92-.74s-.25-.65-.73-.65-1.64.21-1.92.74.25.65.73.65Z" transform="translate(-72.86 -58.7)"/><path class="cls-2" d="M95.55,161.61c1.66,0,2.22-2.14.25-2.14-1.66,0-2.22,2.14-.25,2.14Z" transform="translate(-72.86 -58.7)"/><path class="cls-2" d="M95.56,161.66c1.7,0,2.19-2.24.23-2.24-1.7,0-2.19,2.24-.23,2.24Z" transform="translate(-72.86 -58.7)"/><path class="cls-2" d="M100.6,176.17c.54,0,1.64-.22,1.93-.74s-.26-.66-.73-.66-1.64.21-1.93.74.26.66.73.66Z" transform="translate(-72.86 -58.7)"/><path class="cls-2" d="M100.27,176.09a3.38,3.38,0,0,0,2-.55c.35-.31.46-.69-.19-.69a3.34,3.34,0,0,0-2,.55c-.36.31-.47.69.19.69Z" transform="translate(-72.86 -58.7)"/><path class="cls-2" d="M101.06,176.51c1.64,0,2.24-2.08.27-2.08-1.64,0-2.23,2.08-.27,2.08Z" transform="translate(-72.86 -58.7)"/><path class="cls-2" d="M100.6,176.17c.54,0,1.64-.21,1.93-.74s-.26-.67-.74-.67-1.63.21-1.92.75.25.66.73.66Z" transform="translate(-72.86 -58.7)"/><path class="cls-2" d="M101.07,176.52c1.64,0,2.23-2.1.26-2.1-1.65,0-2.23,2.1-.26,2.1Z" transform="translate(-72.86 -58.7)"/><path class="cls-2" d="M106.34,184.3c.61,0,1.62-.19,1.91-.82s-.24-.95-.82-.95-1.61.18-1.9.81.23,1,.81,1Z" transform="translate(-72.86 -58.7)"/><path class="cls-2" d="M105.94,184a3.81,3.81,0,0,0,2-.55c.38-.29.47-.54-.15-.54a3.76,3.76,0,0,0-2,.55c-.39.29-.47.54.15.54Z" transform="translate(-72.86 -58.7)"/><path class="cls-2" d="M106.78,184.55c1.71,0,2.18-2.27.22-2.27-1.71,0-2.18,2.27-.22,2.27Z" transform="translate(-72.86 -58.7)"/><path class="cls-2" d="M106.29,184.09c.53,0,1.64-.22,1.92-.73s-.26-.62-.72-.62-1.64.21-1.93.73.26.62.73.62Z" transform="translate(-72.86 -58.7)"/><path class="cls-2" d="M113.84,185.71c.59,0,1.63-.19,1.92-.79s-.24-.84-.79-.84-1.62.19-1.91.79.24.84.78.84Z" transform="translate(-72.86 -58.7)"/><path class="cls-2" d="M113.88,185.85c.64,0,1.59-.18,1.9-.85s-.24-1.06-.84-1.06-1.59.18-1.9.85.24,1.06.84,1.06Z" transform="translate(-72.86 -58.7)"/><path class="cls-2" d="M114.29,186c1.67,0,2.21-2.17.24-2.17-1.67,0-2.21,2.17-.24,2.17Z" transform="translate(-72.86 -58.7)"/><path class="cls-2" d="M111.13,196.31c.55,0,1.64-.21,1.93-.75s-.26-.71-.75-.71-1.63.21-1.92.75.25.71.74.71Z" transform="translate(-72.86 -58.7)"/><path class="cls-2" d="M111.14,196.34c.57,0,1.63-.2,1.92-.76s-.25-.76-.76-.76-1.63.2-1.92.76.25.76.76.76Z" transform="translate(-72.86 -58.7)"/><path class="cls-2" d="M111.19,196.51c.62,0,1.61-.19,1.9-.84s-.23-1-.83-1-1.61.18-1.9.84.23,1,.83,1Z" transform="translate(-72.86 -58.7)"/><path class="cls-2" d="M110.77,196.12a3.76,3.76,0,0,0,2-.55c.39-.29.47-.54-.15-.54a3.84,3.84,0,0,0-2,.55c-.39.29-.48.54.14.54Z" transform="translate(-72.86 -58.7)"/><path class="cls-2" d="M107.75,202.15c1.65,0,2.23-2.1.26-2.1-1.65,0-2.23,2.1-.26,2.1Z" transform="translate(-72.86 -58.7)"/><path class="cls-2" d="M106.93,201.65a3.68,3.68,0,0,0,2-.55c.38-.29.47-.56-.15-.56a3.76,3.76,0,0,0-2,.55c-.38.3-.47.56.15.56Z" transform="translate(-72.86 -58.7)"/><path class="cls-2" d="M107.35,202c.62,0,1.61-.18,1.9-.84s-.23-1-.84-1-1.61.18-1.9.83.23,1,.84,1Z" transform="translate(-72.86 -58.7)"/><path class="cls-2" d="M107,201.72a3.28,3.28,0,0,0,2-.55c.36-.31.47-.7-.19-.7a3.34,3.34,0,0,0-2,.55c-.36.31-.47.7.19.7Z" transform="translate(-72.86 -58.7)"/><path class="cls-2" d="M103.06,195.46c.65,0,1.59-.19,1.9-.85s-.24-1.05-.84-1.05-1.59.18-1.9.85.24,1.05.84,1.05Z" transform="translate(-72.86 -58.7)"/><path class="cls-2" d="M103,195.2c.54,0,1.64-.21,1.93-.74s-.26-.64-.73-.64-1.64.21-1.93.73.26.65.73.65Z" transform="translate(-72.86 -58.7)"/><path class="cls-2" d="M103,195.23c.55,0,1.64-.2,1.93-.75s-.26-.7-.75-.7-1.63.21-1.92.76.25.69.74.69Z" transform="translate(-72.86 -58.7)"/><path class="cls-2" d="M103,195.26c.55,0,1.63-.21,1.92-.76s-.25-.74-.75-.74-1.64.21-1.93.76.26.74.76.74Z" transform="translate(-72.86 -58.7)"/><path class="cls-2" d="M103.07,195.49c.66,0,1.59-.17,1.9-.86s-.24-1.1-.86-1.1-1.59.17-1.89.85.23,1.11.85,1.11Z" transform="translate(-72.86 -58.7)"/><path class="cls-2" d="M96.47,184.12c.66,0,1.59-.18,1.9-.86s-.24-1.11-.86-1.11-1.59.17-1.89.86.23,1.11.85,1.11Z" transform="translate(-72.86 -58.7)"/><path class="cls-2" d="M96.42,183.91c.56,0,1.62-.2,1.91-.77s-.24-.78-.76-.78-1.63.2-1.92.77.25.78.77.78Z" transform="translate(-72.86 -58.7)"/><path class="cls-2" d="M96.06,183.76a3.34,3.34,0,0,0,2-.55c.36-.31.47-.7-.19-.7a3.38,3.38,0,0,0-2,.55c-.35.31-.46.7.19.7Z" transform="translate(-72.86 -58.7)"/><path class="cls-2" d="M96.05,183.71a3.52,3.52,0,0,0,2-.55c.37-.3.47-.61-.16-.61a3.55,3.55,0,0,0-2,.55c-.38.3-.48.61.16.61Z" transform="translate(-72.86 -58.7)"/><path class="cls-2" d="M96.47,184.1c.65,0,1.59-.18,1.89-.85s-.23-1.08-.84-1.08-1.59.18-1.9.85.24,1.08.85,1.08Z" transform="translate(-72.86 -58.7)"/><path class="cls-2" d="M103.74,181.2c.53,0,1.64-.21,1.93-.73s-.26-.64-.73-.64-1.64.22-1.93.74.26.63.73.63Z" transform="translate(-72.86 -58.7)"/><path class="cls-2" d="M103.79,181.4c.61,0,1.62-.19,1.91-.82s-.23-1-.81-1-1.62.19-1.91.82.24,1,.81,1Z" transform="translate(-72.86 -58.7)"/><path class="cls-2" d="M104.23,181.65c1.71,0,2.18-2.27.22-2.27-1.7,0-2.18,2.27-.22,2.27Z" transform="translate(-72.86 -58.7)"/><path class="cls-2" d="M103.73,181.17c.53,0,1.65-.22,1.93-.72s-.26-.59-.71-.59-1.64.22-1.93.72.27.59.71.59Z" transform="translate(-72.86 -58.7)"/><path class="cls-2" d="M104.21,181.56c1.64,0,2.23-2.09.27-2.09-1.65,0-2.24,2.09-.27,2.09Z" transform="translate(-72.86 -58.7)"/><path class="cls-2" d="M90,174.46a3.68,3.68,0,0,0,2-.55c.38-.29.47-.56-.15-.56a3.76,3.76,0,0,0-2,.55c-.38.3-.47.56.15.56Z" transform="translate(-72.86 -58.7)"/><path class="cls-2" d="M90.06,174.52a3.33,3.33,0,0,0,2-.55c.37-.3.47-.68-.18-.68a3.36,3.36,0,0,0-2,.55c-.36.31-.47.68.19.68Z" transform="translate(-72.86 -58.7)"/><path class="cls-2" d="M90.43,174.74c.58,0,1.62-.2,1.91-.8s-.24-.86-.79-.86-1.62.19-1.91.79.24.87.79.87Z" transform="translate(-72.86 -58.7)"/><path class="cls-2" d="M90.88,175c1.7,0,2.18-2.26.22-2.26-1.7,0-2.18,2.26-.22,2.26Z" transform="translate(-72.86 -58.7)"/><path class="cls-2" d="M90.43,174.74c.59,0,1.62-.19,1.91-.79s-.24-.88-.79-.88-1.62.19-1.91.8.24.87.79.87Z" transform="translate(-72.86 -58.7)"/><path class="cls-2" d="M91.63,168.26a3.36,3.36,0,0,0,2.05-.55c.36-.31.47-.69-.19-.69a3.38,3.38,0,0,0-2,.55c-.36.31-.47.69.19.69Z" transform="translate(-72.86 -58.7)"/><path class="cls-2" d="M92,168.54c.61,0,1.61-.19,1.9-.83s-.23-1-.82-1-1.61.18-1.9.82.23,1,.82,1Z" transform="translate(-72.86 -58.7)"/><path class="cls-2" d="M92,168.3c.53,0,1.65-.22,1.93-.73s-.26-.59-.71-.59-1.64.21-1.93.72.26.6.71.6Z" transform="translate(-72.86 -58.7)"/><path class="cls-2" d="M92,168.48c.59,0,1.62-.19,1.91-.8s-.23-.88-.79-.88-1.62.19-1.91.8.24.88.79.88Z" transform="translate(-72.86 -58.7)"/><path class="cls-2" d="M92,168.47c.59,0,1.62-.19,1.91-.79s-.24-.88-.79-.88-1.62.2-1.91.8.24.87.79.87Z" transform="translate(-72.86 -58.7)"/><path class="cls-2" d="M92.28,168.55c1.66,0,2.21-2.14.25-2.14-1.66,0-2.22,2.14-.25,2.14Z" transform="translate(-72.86 -58.7)"/><path class="cls-2" d="M91.45,168a3.68,3.68,0,0,0,2-.55c.38-.29.47-.56-.15-.56a3.68,3.68,0,0,0-2,.55c-.38.29-.47.56.15.56Z" transform="translate(-72.86 -58.7)"/><path class="cls-2" d="M101.61,166.24c.57,0,1.63-.2,1.92-.78s-.25-.8-.78-.8-1.62.19-1.91.77.24.81.77.81Z" transform="translate(-72.86 -58.7)"/><path class="cls-2" d="M102.06,166.54c1.68,0,2.21-2.18.24-2.18-1.68,0-2.2,2.18-.24,2.18Z" transform="translate(-72.86 -58.7)"/><path class="cls-2" d="M101.59,166.15c.54,0,1.63-.21,1.92-.74s-.25-.67-.73-.67-1.64.21-1.93.75.26.66.74.66Z" transform="translate(-72.86 -58.7)"/><path class="cls-2" d="M101.64,166.33c.6,0,1.61-.18,1.9-.81s-.23-1-.81-1-1.62.19-1.91.82.24,1,.82,1Z" transform="translate(-72.86 -58.7)"/><path class="cls-2" d="M87.44,164c.65,0,1.59-.18,1.9-.84s-.24-1-.84-1-1.59.18-1.9.84.25,1,.84,1Z" transform="translate(-72.86 -58.7)"/><path class="cls-2" d="M87.39,163.79c.55,0,1.63-.2,1.92-.75s-.26-.71-.75-.71-1.63.21-1.92.76.25.7.75.7Z" transform="translate(-72.86 -58.7)"/><path class="cls-2" d="M87.84,164.12c1.66,0,2.23-2.12.26-2.12-1.65,0-2.22,2.12-.26,2.12Z" transform="translate(-72.86 -58.7)"/><path class="cls-2" d="M85.91,171.28a3.4,3.4,0,0,0,2-.55c.37-.3.48-.65-.17-.65a3.41,3.41,0,0,0-2,.55c-.37.3-.47.65.18.65Z" transform="translate(-72.86 -58.7)"/><path class="cls-2" d="M85.91,171.29a3.38,3.38,0,0,0,2-.55c.36-.3.47-.67-.18-.67a3.34,3.34,0,0,0-2,.55c-.36.31-.47.67.18.67Z" transform="translate(-72.86 -58.7)"/><path class="cls-2" d="M86.72,171.78c1.68,0,2.21-2.2.24-2.2-1.68,0-2.2,2.2-.24,2.2Z" transform="translate(-72.86 -58.7)"/><path class="cls-2" d="M86.3,171.57c.6,0,1.61-.19,1.9-.82s-.23-1-.81-1-1.62.19-1.91.82.24,1,.82,1Z" transform="translate(-72.86 -58.7)"/><path class="cls-2" d="M86.85,178.8c.64,0,1.59-.18,1.9-.84s-.24-1-.84-1-1.59.18-1.9.84.24,1,.84,1Z" transform="translate(-72.86 -58.7)"/><path class="cls-2" d="M86.77,178.5c.51,0,1.65-.22,1.93-.72s-.26-.56-.71-.56-1.65.22-1.93.72.26.56.71.56Z" transform="translate(-72.86 -58.7)"/><path class="cls-2" d="M86.81,178.65c.57,0,1.62-.2,1.91-.78s-.24-.8-.77-.8-1.63.2-1.92.78.25.8.78.8Z" transform="translate(-72.86 -58.7)"/><path class="cls-2" d="M86.45,178.47a3.33,3.33,0,0,0,2-.55c.37-.3.47-.67-.18-.67a3.44,3.44,0,0,0-2,.54c-.36.31-.47.68.19.68Z" transform="translate(-72.86 -58.7)"/><path class="cls-2" d="M86.85,178.81c.65,0,1.59-.18,1.9-.84s-.24-1.06-.84-1.06-1.59.18-1.9.84.24,1.06.84,1.06Z" transform="translate(-72.86 -58.7)"/><path class="cls-2" d="M86.84,178.78c.63,0,1.61-.18,1.9-.83s-.22-1-.82-1-1.62.18-1.91.83.23,1,.83,1Z" transform="translate(-72.86 -58.7)"/><path class="cls-2" d="M94.56,192.48c1.7,0,2.19-2.25.22-2.25-1.7,0-2.18,2.25-.22,2.25Z" transform="translate(-72.86 -58.7)"/><path class="cls-2" d="M94.56,192.46c1.68,0,2.19-2.21.23-2.21-1.69,0-2.2,2.21-.23,2.21Z" transform="translate(-72.86 -58.7)"/><path class="cls-2" d="M93.73,192a3.48,3.48,0,0,0,2-.55c.37-.31.47-.64-.17-.64a3.52,3.52,0,0,0-2,.55c-.37.3-.47.64.17.64Z" transform="translate(-72.86 -58.7)"/><path class="cls-2" d="M86.71,190.09c.61,0,1.61-.18,1.9-.82s-.23-1-.81-1-1.62.18-1.91.82.23,1,.82,1Z" transform="translate(-72.86 -58.7)"/><path class="cls-2" d="M86.73,190.16c.64,0,1.59-.18,1.89-.85s-.24-1.07-.84-1.07-1.59.18-1.9.85.24,1.07.85,1.07Z" transform="translate(-72.86 -58.7)"/><path class="cls-2" d="M87.14,190.32c1.7,0,2.19-2.24.23-2.24-1.7,0-2.19,2.24-.23,2.24Z" transform="translate(-72.86 -58.7)"/><path class="cls-2" d="M81,182.88c1.66,0,2.22-2.14.25-2.14-1.66,0-2.21,2.14-.25,2.14Z" transform="translate(-72.86 -58.7)"/><path class="cls-2" d="M80.15,182.43a3.29,3.29,0,0,0,2-.55c.35-.31.47-.69-.19-.69a3.34,3.34,0,0,0-2.05.55c-.36.31-.47.69.19.69Z" transform="translate(-72.86 -58.7)"/><path class="cls-2" d="M80.55,182.76c.64,0,1.59-.19,1.9-.85s-.25-1-.84-1-1.59.18-1.9.84.24,1,.84,1Z" transform="translate(-72.86 -58.7)"/><path class="cls-2" d="M83.75,198c.61,0,1.61-.19,1.9-.82s-.23-1-.81-1-1.62.19-1.91.82.24,1,.82,1Z" transform="translate(-72.86 -58.7)"/><path class="cls-2" d="M84.17,198.17c1.66,0,2.22-2.15.25-2.15-1.66,0-2.22,2.15-.25,2.15Z" transform="translate(-72.86 -58.7)"/><path class="cls-2" d="M83.76,198c.65,0,1.6-.18,1.9-.84s-.24-1-.84-1-1.59.18-1.89.84.24,1,.83,1Z" transform="translate(-72.86 -58.7)"/><path class="cls-2" d="M92.55,196.44c1.71,0,2.19-2.26.22-2.26-1.7,0-2.18,2.26-.22,2.26Z" transform="translate(-72.86 -58.7)"/><path class="cls-2" d="M91.71,195.87a3.76,3.76,0,0,0,2.05-.55c.39-.29.48-.56-.15-.56a3.66,3.66,0,0,0-2,.55c-.39.29-.48.56.14.56Z" transform="translate(-72.86 -58.7)"/><path class="cls-2" d="M92.13,196.24c.62,0,1.61-.19,1.9-.84s-.23-1-.83-1-1.61.18-1.9.83.23,1,.83,1Z" transform="translate(-72.86 -58.7)"/><path class="cls-2" d="M88,206.79c.57,0,1.63-.2,1.92-.77s-.24-.77-.76-.77-1.63.2-1.92.77.25.77.76.77Z" transform="translate(-72.86 -58.7)"/><path class="cls-2" d="M88.05,206.88c.59,0,1.62-.19,1.91-.81s-.24-.9-.8-.9-1.62.19-1.91.8.23.91.8.91Z" transform="translate(-72.86 -58.7)"/><path class="cls-2" d="M88,206.83c.58,0,1.63-.2,1.92-.79s-.24-.83-.78-.83-1.63.2-1.91.79.24.83.77.83Z" transform="translate(-72.86 -58.7)"/><path class="cls-2" d="M88.06,206.91c.61,0,1.61-.18,1.9-.82s-.23-1-.81-1-1.62.19-1.91.82.23,1,.82,1Z" transform="translate(-72.86 -58.7)"/><path class="cls-2" d="M88,206.77c.56,0,1.63-.2,1.92-.76s-.25-.74-.75-.74-1.64.21-1.93.76.25.74.76.74Z" transform="translate(-72.86 -58.7)"/><path class="cls-2" d="M87.67,206.63a3.38,3.38,0,0,0,2-.55c.36-.31.47-.67-.18-.67a3.41,3.41,0,0,0-2.05.55c-.37.31-.47.67.18.67Z" transform="translate(-72.86 -58.7)"/><path class="cls-2" d="M88.49,207.13c1.68,0,2.19-2.22.23-2.22-1.69,0-2.2,2.22-.23,2.22Z" transform="translate(-72.86 -58.7)"/><path class="cls-2" d="M88.05,206.9c.61,0,1.62-.19,1.91-.81s-.23-1-.81-1-1.62.19-1.91.82.24.94.81.94Z" transform="translate(-72.86 -58.7)"/><path class="cls-2" d="M88,206.77c.56,0,1.63-.2,1.92-.76s-.25-.74-.75-.74-1.64.21-1.93.76.25.74.76.74Z" transform="translate(-72.86 -58.7)"/><path class="cls-2" d="M100.62,211.39c.53,0,1.64-.21,1.93-.72s-.26-.59-.71-.59-1.65.22-1.93.72.26.59.71.59Z" transform="translate(-72.86 -58.7)"/><path class="cls-2" d="M100.68,211.6c.59,0,1.61-.19,1.9-.81s-.23-.91-.8-.91-1.62.19-1.91.8.24.92.81.92Z" transform="translate(-72.86 -58.7)"/><path class="cls-2" d="M100.68,211.6c.6,0,1.61-.19,1.9-.81s-.23-.92-.8-.92-1.62.19-1.91.81.24.92.81.92Z" transform="translate(-72.86 -58.7)"/><path class="cls-2" d="M87.94,217.63c.61,0,1.61-.19,1.9-.83s-.23-1-.82-1-1.61.19-1.9.83.23,1,.82,1Z" transform="translate(-72.86 -58.7)"/><path class="cls-2" d="M88,217.68c.65,0,1.59-.17,1.9-.85s-.24-1.07-.85-1.07-1.59.18-1.89.85.24,1.07.84,1.07Z" transform="translate(-72.86 -58.7)"/><path class="cls-2" d="M88.37,217.84c1.69,0,2.18-2.24.22-2.24-1.69,0-2.19,2.24-.22,2.24Z" transform="translate(-72.86 -58.7)"/><path class="cls-2" d="M88.35,217.77c1.65,0,2.23-2.1.26-2.1-1.65,0-2.23,2.1-.26,2.1Z" transform="translate(-72.86 -58.7)"/><path class="cls-2" d="M112.05,209.55c.59,0,1.62-.2,1.91-.8s-.24-.86-.79-.86-1.62.19-1.91.79.24.87.79.87Z" transform="translate(-72.86 -58.7)"/><path class="cls-2" d="M112,209.44c.55,0,1.64-.21,1.92-.75s-.25-.7-.74-.7-1.63.21-1.92.75.25.7.74.7Z" transform="translate(-72.86 -58.7)"/><path class="cls-2" d="M112.05,209.56c.59,0,1.62-.2,1.91-.8s-.23-.88-.79-.88-1.62.19-1.91.8.24.88.79.88Z" transform="translate(-72.86 -58.7)"/><path class="cls-2" d="M112.07,209.61c.61,0,1.61-.19,1.9-.82s-.23-1-.81-1-1.62.18-1.91.82.23,1,.82,1Z" transform="translate(-72.86 -58.7)"/><path class="cls-2" d="M112,209.49c.57,0,1.63-.2,1.92-.77s-.24-.78-.76-.78-1.63.2-1.92.77.25.78.76.78Z" transform="translate(-72.86 -58.7)"/><path class="cls-2" d="M112.5,209.83c1.68,0,2.19-2.22.23-2.22-1.69,0-2.2,2.22-.23,2.22Z" transform="translate(-72.86 -58.7)"/><path class="cls-2" d="M112,209.36c.52,0,1.64-.22,1.93-.72s-.27-.57-.71-.57-1.64.22-1.93.72.27.57.71.57Z" transform="translate(-72.86 -58.7)"/><path class="cls-2" d="M121.48,202.23c.64,0,1.59-.18,1.9-.85s-.25-1.06-.85-1.06-1.59.18-1.89.85.24,1.06.84,1.06Z" transform="translate(-72.86 -58.7)"/><path class="cls-2" d="M121.06,201.84a3.6,3.6,0,0,0,2-.55c.38-.29.47-.59-.16-.59a3.68,3.68,0,0,0-2,.55c-.38.3-.47.59.16.59Z" transform="translate(-72.86 -58.7)"/><path class="cls-2" d="M121.46,202.16c.61,0,1.61-.19,1.9-.82s-.23-1-.81-1-1.61.18-1.9.81.23,1,.81,1Z" transform="translate(-72.86 -58.7)"/><path class="cls-2" d="M121.89,202.4c1.71,0,2.19-2.25.23-2.25-1.7,0-2.19,2.25-.23,2.25Z" transform="translate(-72.86 -58.7)"/><path class="cls-2" d="M121.4,201.92c.52,0,1.64-.22,1.93-.72s-.27-.57-.71-.57-1.65.21-1.94.71.27.58.72.58Z" transform="translate(-72.86 -58.7)"/><path class="cls-2" d="M121.39,201.92c.53,0,1.65-.22,1.94-.72s-.27-.57-.71-.57-1.65.22-1.94.71.27.58.71.58Z" transform="translate(-72.86 -58.7)"/><path class="cls-2" d="M103.34,195.51c1.65,0,2.22-2.13.25-2.13-1.65,0-2.22,2.13-.25,2.13Z" transform="translate(-72.86 -58.7)"/><path class="cls-2" d="M103.35,195.56c1.69,0,2.19-2.23.23-2.23-1.69,0-2.19,2.23-.23,2.23Z" transform="translate(-72.86 -58.7)"/><path class="cls-2" d="M110.85,196.38a3.4,3.4,0,0,0,2.05-.54c.36-.31.47-.68-.18-.68a3.34,3.34,0,0,0-2,.55c-.36.31-.47.67.18.67Z" transform="translate(-72.86 -58.7)"/><path class="cls-2" d="M110.84,196.36a3.48,3.48,0,0,0,2-.55c.37-.3.48-.63-.16-.63a3.48,3.48,0,0,0-2,.55c-.37.31-.47.63.16.63Z" transform="translate(-72.86 -58.7)"/><path class="cls-2" d="M111.2,196.51c.55,0,1.63-.21,1.92-.76s-.25-.72-.75-.72-1.63.21-1.92.76.25.72.75.72Z" transform="translate(-72.86 -58.7)"/><path class="cls-2" d="M111.25,196.71c.64,0,1.59-.19,1.9-.84s-.24-1-.83-1-1.59.18-1.9.83.24,1,.83,1Z" transform="translate(-72.86 -58.7)"/><path class="cls-2" d="M111.66,196.85c1.67,0,2.22-2.15.25-2.15-1.66,0-2.22,2.15-.25,2.15Z" transform="translate(-72.86 -58.7)"/><path class="cls-2" d="M141,202.28c.62,0,1.62-.18,1.91-.82s-.24-1-.82-1-1.62.18-1.91.82.23,1,.82,1Z" transform="translate(-72.86 -58.7)"/><path class="cls-2" d="M140.94,202c.52,0,1.64-.22,1.93-.72s-.27-.6-.72-.6-1.64.22-1.93.72.27.6.72.6Z" transform="translate(-72.86 -58.7)"/><path class="cls-2" d="M141.42,202.47c1.68,0,2.21-2.18.24-2.18-1.67,0-2.2,2.18-.24,2.18Z" transform="translate(-72.86 -58.7)"/><path class="cls-2" d="M140.61,202a3.4,3.4,0,0,0,2-.54c.36-.31.47-.68-.18-.68a3.34,3.34,0,0,0-2,.55c-.36.3-.47.67.18.67Z" transform="translate(-72.86 -58.7)"/><path class="cls-2" d="M96.57,184.07c.6,0,1.62-.19,1.91-.81s-.24-.93-.81-.93-1.62.19-1.91.81.24.93.81.93Z" transform="translate(-72.86 -58.7)"/><path class="cls-2" d="M96.54,184c.56,0,1.63-.2,1.92-.76s-.25-.75-.76-.75-1.63.21-1.92.77.25.74.76.74Z" transform="translate(-72.86 -58.7)"/><path class="cls-2" d="M96.58,184.11c.62,0,1.61-.18,1.9-.83s-.23-1-.82-1-1.61.19-1.9.83.23,1,.82,1Z" transform="translate(-72.86 -58.7)"/><path class="cls-2" d="M96.51,183.84c.52,0,1.64-.22,1.93-.72s-.27-.57-.71-.57-1.64.22-1.93.72.27.57.71.57Z" transform="translate(-72.86 -58.7)"/><path class="cls-2" d="M97,184.25c1.65,0,2.23-2.11.26-2.11-1.65,0-2.23,2.11-.26,2.11Z" transform="translate(-72.86 -58.7)"/><path class="cls-2" d="M137.93,211.11c.56,0,1.63-.21,1.92-.76s-.25-.73-.75-.73-1.63.21-1.92.76.25.73.75.73Z" transform="translate(-72.86 -58.7)"/><path class="cls-2" d="M137.58,211a3.41,3.41,0,0,0,2-.55c.36-.3.47-.66-.18-.66a3.38,3.38,0,0,0-2,.55c-.36.3-.47.66.18.66Z" transform="translate(-72.86 -58.7)"/><path class="cls-2" d="M137.91,211c.52,0,1.64-.22,1.93-.72s-.27-.59-.71-.59-1.65.22-1.94.72.27.59.72.59Z" transform="translate(-72.86 -58.7)"/><path class="cls-2" d="M137.9,211c.51,0,1.66-.22,1.94-.71s-.26-.56-.71-.56-1.66.22-1.93.71.26.56.7.56Z" transform="translate(-72.86 -58.7)"/><path class="cls-2" d="M137.91,211c.52,0,1.64-.22,1.93-.72s-.27-.57-.71-.57-1.65.22-1.94.72.27.57.72.57Z" transform="translate(-72.86 -58.7)"/><path class="cls-2" d="M137.57,211a3.48,3.48,0,0,0,2.05-.55c.38-.3.48-.62-.16-.62a3.5,3.5,0,0,0-2.05.55c-.37.3-.47.62.16.62Z" transform="translate(-72.86 -58.7)"/><path class="cls-2" d="M138,211.34c.66,0,1.59-.18,1.9-.86s-.24-1.09-.85-1.09-1.59.18-1.9.85.24,1.1.85,1.1Z" transform="translate(-72.86 -58.7)"/><path class="cls-2" d="M138.4,211.49c1.7,0,2.19-2.25.23-2.25-1.7,0-2.19,2.25-.23,2.25Z" transform="translate(-72.86 -58.7)"/><path class="cls-2" d="M138.37,211.36c1.61,0,2.26-2,.29-2-1.61,0-2.26,2-.29,2Z" transform="translate(-72.86 -58.7)"/><path class="cls-2" d="M150.47,215.44c1.63,0,2.24-2.07.27-2.07-1.64,0-2.24,2.07-.27,2.07Z" transform="translate(-72.86 -58.7)"/><path class="cls-2" d="M150,215.08c.53,0,1.64-.22,1.93-.73s-.26-.62-.72-.62-1.65.21-1.93.73.26.62.72.62Z" transform="translate(-72.86 -58.7)"/><path class="cls-2" d="M149.66,215a3.6,3.6,0,0,0,2.05-.55c.37-.29.47-.59-.16-.59a3.68,3.68,0,0,0-2.05.55c-.38.3-.47.59.16.59Z" transform="translate(-72.86 -58.7)"/><path class="cls-2" d="M150.07,215.34c.64,0,1.59-.19,1.9-.84s-.25-1-.83-1-1.6.18-1.9.84.24,1,.83,1Z" transform="translate(-72.86 -58.7)"/><path class="cls-2" d="M150,215.06c.52,0,1.64-.21,1.93-.72s-.27-.6-.72-.6-1.64.22-1.93.73.26.59.72.59Z" transform="translate(-72.86 -58.7)"/><path class="cls-2" d="M130.59,222.78c1.7,0,2.19-2.24.22-2.24-1.69,0-2.18,2.24-.22,2.24Z" transform="translate(-72.86 -58.7)"/><path class="cls-2" d="M129.75,222.21a3.76,3.76,0,0,0,2.05-.55c.39-.29.47-.54-.15-.54a3.83,3.83,0,0,0-2,.54c-.39.29-.48.55.14.55Z" transform="translate(-72.86 -58.7)"/><path class="cls-2" d="M130.58,222.76c1.69,0,2.2-2.2.24-2.2-1.68,0-2.2,2.2-.24,2.2Z" transform="translate(-72.86 -58.7)"/><path class="cls-2" d="M130.12,222.41c.56,0,1.63-.2,1.92-.76s-.25-.74-.75-.74-1.64.21-1.93.76.25.74.76.74Z" transform="translate(-72.86 -58.7)"/><path class="cls-2" d="M119.43,222.2c1.64,0,2.23-2.1.26-2.1-1.64,0-2.23,2.1-.26,2.1Z" transform="translate(-72.86 -58.7)"/><path class="cls-2" d="M119,221.91c.56,0,1.63-.21,1.92-.77s-.25-.74-.76-.74-1.63.2-1.92.76.25.75.76.75Z" transform="translate(-72.86 -58.7)"/><path class="cls-2" d="M118.61,221.72a3.6,3.6,0,0,0,2-.55c.38-.3.47-.59-.16-.59a3.68,3.68,0,0,0-2,.55c-.37.3-.47.59.16.59Z" transform="translate(-72.86 -58.7)"/><path class="cls-2" d="M118.61,221.72a3.6,3.6,0,0,0,2-.55c.38-.29.47-.59-.16-.59a3.6,3.6,0,0,0-2,.55c-.37.3-.47.59.16.59Z" transform="translate(-72.86 -58.7)"/><path class="cls-2" d="M126.3,215.24a3.78,3.78,0,0,0,2-.55c.38-.29.47-.55-.15-.55a3.76,3.76,0,0,0-2,.55c-.39.29-.47.55.15.55Z" transform="translate(-72.86 -58.7)"/><path class="cls-2" d="M126.31,215.29a3.41,3.41,0,0,0,2.05-.55c.37-.3.47-.65-.17-.65a3.41,3.41,0,0,0-2,.55c-.37.3-.47.65.17.65Z" transform="translate(-72.86 -58.7)"/><path class="cls-2" d="M126.67,215.44c.56,0,1.63-.2,1.92-.76s-.25-.74-.76-.74-1.63.2-1.92.76.25.74.76.74Z" transform="translate(-72.86 -58.7)"/><path class="cls-2" d="M126.72,215.64c.64,0,1.59-.18,1.9-.84s-.24-1.06-.84-1.06-1.59.18-1.9.85.24,1,.84,1Z" transform="translate(-72.86 -58.7)"/><path class="cls-2" d="M126.3,215.24a3.76,3.76,0,0,0,2-.55c.38-.29.47-.55-.15-.55a3.76,3.76,0,0,0-2,.55c-.38.29-.47.55.15.55Z" transform="translate(-72.86 -58.7)"/><path class="cls-2" d="M127.13,215.8c1.69,0,2.2-2.22.23-2.22-1.69,0-2.19,2.22-.23,2.22Z" transform="translate(-72.86 -58.7)"/><path class="cls-2" d="M126.65,215.39c.54,0,1.64-.21,1.93-.74s-.26-.66-.73-.66-1.64.22-1.93.74.26.66.73.66Z" transform="translate(-72.86 -58.7)"/><path class="cls-2" d="M127,206.93c1.64,0,2.23-2.1.26-2.1-1.65,0-2.23,2.1-.26,2.1Z" transform="translate(-72.86 -58.7)"/><path class="cls-2" d="M126.2,206.46a3.54,3.54,0,0,0,2-.54c.38-.3.48-.62-.16-.62a3.52,3.52,0,0,0-2.05.55c-.37.3-.47.61.17.61Z" transform="translate(-72.86 -58.7)"/><path class="cls-2" d="M126.57,206.69c.58,0,1.62-.19,1.91-.78s-.24-.84-.78-.84-1.62.2-1.91.79.24.83.78.83Z" transform="translate(-72.86 -58.7)"/><path class="cls-2" d="M116.38,215c.56,0,1.64-.2,1.93-.76s-.26-.72-.76-.72-1.63.2-1.92.75.25.73.75.73Z" transform="translate(-72.86 -58.7)"/><path class="cls-2" d="M116,214.77a3.76,3.76,0,0,0,2-.55c.38-.29.47-.55-.15-.55a3.68,3.68,0,0,0-2,.55c-.38.29-.47.55.15.55Z" transform="translate(-72.86 -58.7)"/><path class="cls-2" d="M116,214.79a3.55,3.55,0,0,0,2-.55c.38-.3.48-.59-.16-.59a3.54,3.54,0,0,0-2,.55c-.38.29-.48.59.15.59Z" transform="translate(-72.86 -58.7)"/><path class="cls-2" d="M116.4,215c.57,0,1.62-.19,1.91-.78s-.24-.81-.77-.81-1.63.2-1.92.78.25.81.78.81Z" transform="translate(-72.86 -58.7)"/><path class="cls-2" d="M116.84,215.26c1.64,0,2.23-2.08.26-2.08-1.64,0-2.23,2.08-.26,2.08Z" transform="translate(-72.86 -58.7)"/><path class="cls-2" d="M116.44,215.18c.65,0,1.59-.18,1.9-.85s-.24-1.07-.84-1.07-1.59.18-1.9.85.24,1.07.84,1.07Z" transform="translate(-72.86 -58.7)"/><path class="cls-2" d="M116.36,214.88c.53,0,1.64-.22,1.93-.73s-.26-.59-.71-.59-1.65.22-1.93.72.26.6.71.6Z" transform="translate(-72.86 -58.7)"/><path class="cls-2" d="M106.12,222.29a3.6,3.6,0,0,0,2-.55c.37-.29.47-.59-.16-.59a3.68,3.68,0,0,0-2.05.55c-.38.3-.47.59.16.59Z" transform="translate(-72.86 -58.7)"/><path class="cls-2" d="M106.92,222.72c1.6,0,2.26-2,.29-2-1.61,0-2.27,2-.29,2Z" transform="translate(-72.86 -58.7)"/><path class="cls-2" d="M106.11,222.28a3.67,3.67,0,0,0,2-.54c.38-.3.48-.58-.15-.58a3.68,3.68,0,0,0-2.05.55c-.38.3-.47.57.15.57Z" transform="translate(-72.86 -58.7)"/><path class="cls-2" d="M106.13,222.34a3.28,3.28,0,0,0,2.05-.55c.36-.31.47-.69-.19-.69a3.33,3.33,0,0,0-2,.55c-.36.31-.47.69.18.69Z" transform="translate(-72.86 -58.7)"/><path class="cls-2" d="M106.54,222.69c.65,0,1.59-.18,1.89-.85s-.23-1.08-.84-1.08-1.59.18-1.9.85.24,1.08.85,1.08Z" transform="translate(-72.86 -58.7)"/><path class="cls-2" d="M106.93,222.75c1.63,0,2.24-2.06.27-2.06-1.63,0-2.25,2.06-.27,2.06Z" transform="translate(-72.86 -58.7)"/><path class="cls-2" d="M100.9,211.83c1.63,0,2.24-2.06.27-2.06-1.63,0-2.24,2.06-.27,2.06Z" transform="translate(-72.86 -58.7)"/><path class="cls-2" d="M100.45,211.54c.56,0,1.63-.2,1.92-.76s-.25-.72-.75-.72-1.63.2-1.92.75.25.73.75.73Z" transform="translate(-72.86 -58.7)"/><path class="cls-2" d="M91.3,225.58c.54,0,1.64-.21,1.92-.74s-.25-.67-.73-.67-1.64.21-1.93.74.26.67.74.67Z" transform="translate(-72.86 -58.7)"/><path class="cls-2" d="M91.33,225.69c.58,0,1.62-.2,1.91-.79s-.24-.84-.78-.84-1.62.2-1.91.79.24.84.78.84Z" transform="translate(-72.86 -58.7)"/><path class="cls-2" d="M91.31,225.63c.56,0,1.63-.2,1.92-.76s-.25-.75-.75-.75-1.64.2-1.92.76.24.75.75.75Z" transform="translate(-72.86 -58.7)"/><path class="cls-2" d="M91,225.45a3.6,3.6,0,0,0,2-.55c.37-.3.47-.6-.16-.6a3.6,3.6,0,0,0-2,.55c-.38.3-.47.6.16.6Z" transform="translate(-72.86 -58.7)"/><path class="cls-2" d="M91.78,226c1.68,0,2.2-2.19.23-2.19-1.68,0-2.2,2.19-.23,2.19Z" transform="translate(-72.86 -58.7)"/><path class="cls-2" d="M91.32,225.66c.57,0,1.63-.2,1.92-.77s-.25-.8-.77-.8-1.63.2-1.92.78.25.79.77.79Z" transform="translate(-72.86 -58.7)"/><path class="cls-2" d="M91.36,225.8c.62,0,1.61-.18,1.9-.83s-.23-1-.83-1-1.61.18-1.9.83.23,1,.83,1Z" transform="translate(-72.86 -58.7)"/><path class="cls-2" d="M91.75,225.88c1.62,0,2.26-2,.29-2-1.62,0-2.26,2-.29,2Z" transform="translate(-72.86 -58.7)"/><path class="cls-2" d="M91.37,225.83c.64,0,1.59-.18,1.89-.85s-.24-1.06-.84-1.06-1.59.18-1.9.85.24,1.06.85,1.06Z" transform="translate(-72.86 -58.7)"/><path class="cls-2" d="M103,151.51c1.68,0,2.2-2.19.24-2.19-1.69,0-2.2,2.19-.24,2.19Z" transform="translate(-72.86 -58.7)"/><path class="cls-2" d="M102.58,151.34c.62,0,1.61-.19,1.9-.84s-.23-1-.82-1-1.62.19-1.91.84.23,1,.83,1Z" transform="translate(-72.86 -58.7)"/><path class="cls-2" d="M102.52,151.1c.53,0,1.64-.21,1.93-.73s-.26-.64-.73-.64-1.64.21-1.93.73.26.64.73.64Z" transform="translate(-72.86 -58.7)"/><path class="cls-2" d="M102.55,151.21c.57,0,1.62-.2,1.91-.78s-.24-.81-.77-.81-1.63.2-1.92.78.25.81.78.81Z" transform="translate(-72.86 -58.7)"/><path class="cls-2" d="M86.87,179c1.66,0,2.23-2.12.26-2.12-1.65,0-2.22,2.12-.26,2.12Z" transform="translate(-72.86 -58.7)"/><path class="cls-2" d="M86.07,178.57a3.28,3.28,0,0,0,2.05-.55c.36-.31.47-.69-.19-.69a3.33,3.33,0,0,0-2,.55c-.36.31-.47.69.18.69Z" transform="translate(-72.86 -58.7)"/><path class="cls-2" d="M86.06,178.52a3.6,3.6,0,0,0,2-.55c.37-.29.47-.59-.16-.59a3.6,3.6,0,0,0-2,.55c-.38.3-.47.59.16.59Z" transform="translate(-72.86 -58.7)"/><path class="cls-2" d="M86.4,178.63c.53,0,1.64-.21,1.93-.73s-.26-.63-.73-.63-1.64.22-1.92.74.26.62.72.62Z" transform="translate(-72.86 -58.7)"/><path class="cls-2" d="M120.69,99.73c.55,0,1.63-.21,1.92-.76s-.25-.72-.75-.72-1.63.21-1.92.76.25.72.75.72Z" transform="translate(-72.86 -58.7)"/><path class="cls-2" d="M120.71,99.8c.58,0,1.63-.19,1.92-.78s-.25-.84-.79-.84-1.62.19-1.91.78.24.84.78.84Z" transform="translate(-72.86 -58.7)"/><path class="cls-2" d="M120.73,99.86c.6,0,1.61-.19,1.9-.81s-.23-.93-.8-.93-1.62.19-1.91.81.24.93.81.93Z" transform="translate(-72.86 -58.7)"/><path class="cls-2" d="M121.14,100c1.62,0,2.25-2,.28-2-1.62,0-2.26,2-.28,2Z" transform="translate(-72.86 -58.7)"/><path class="cls-2" d="M121.6,99.61c.61,0,1.61-.18,1.9-.82s-.23-1-.82-1-1.61.19-1.9.83.23,1,.82,1Z" transform="translate(-72.86 -58.7)"/><path class="cls-2" d="M121.58,99.55c.59,0,1.62-.19,1.91-.8s-.24-.88-.79-.88-1.62.19-1.91.8.23.88.79.88Z" transform="translate(-72.86 -58.7)"/><path class="cls-2" d="M121.2,99.29a3.52,3.52,0,0,0,2-.55c.37-.3.47-.62-.17-.62a3.52,3.52,0,0,0-2,.55c-.37.3-.47.62.17.62Z" transform="translate(-72.86 -58.7)"/><path class="cls-2" d="M121.6,99.62c.61,0,1.61-.19,1.9-.83s-.23-1-.82-1-1.61.18-1.9.83.23,1,.82,1Z" transform="translate(-72.86 -58.7)"/><path class="cls-2" d="M121.2,99.29a3.6,3.6,0,0,0,2-.55c.37-.3.47-.61-.17-.61a3.52,3.52,0,0,0-2,.55c-.37.3-.47.61.17.61Z" transform="translate(-72.86 -58.7)"/></svg>