<svg id="Layer_1" data-name="Layer 1" xmlns="http://www.w3.org/2000/svg" viewBox="0 0 254.18 394.07"><defs><style>.cls-1{fill:none;stroke:#2b3c47;stroke-miterlimit:10;stroke-width:1.3px;}</style></defs><path class="cls-1" d="M173.09,178a3.78,3.78,0,0,1,1.36-2.09,4.44,4.44,0,0,1,2.55-.67,3.62,3.62,0,0,1,2.32.34,2.84,2.84,0,0,1,1,1M177.8,179a1.66,1.66,0,0,0-.09.86c.11.31.39.47.95.78a2.49,2.49,0,0,0,1.18.48c.47,0,.79-.3,1.3-.74s.64-.56.74-.9a1.46,1.46,0,0,0-.29-1.28,1.5,1.5,0,0,0-1-.53c-.48-.09-.58.11-1.44.14-.53,0-.6-.05-.79.06S178,178.48,177.8,179Zm-.51.5c0-.12,0-.23.05-.35l-.3,2-1.91.48a9.94,9.94,0,0,0-1.6-1.26,1.09,1.09,0,0,1-.26-.2c-.26-.28-.41-.75-.26-.92s.44.07,1.12.18a3,3,0,0,0,1.81-.12c.39-.2.78-.58,1.07-.48a.56.56,0,0,1,.17.11.54.54,0,0,1,.14.41m6.68-6.85a7.46,7.46,0,0,0-1.21.92,8.16,8.16,0,0,0-1.74,2.26m1.15-4a11.05,11.05,0,0,1-.7,1.54,10.33,10.33,0,0,1-1.23,1.75m-1.56-5.24a5.94,5.94,0,0,0-.6,1.66,6.28,6.28,0,0,0,0,2.68l.83.39a1,1,0,0,0,.88-1.17m-2.92-3.64c0,.74,0,1.35-.08,1.77a9.13,9.13,0,0,0-.09,1.73,6.16,6.16,0,0,0,.17,1m-2.3-.5a1.43,1.43,0,0,1,.33.54,1.27,1.27,0,0,1,0,.7l.93-.47a4.12,4.12,0,0,0,.1-.76,5,5,0,0,0-.28-1.9m11.41,7.58a6,6,0,0,0-2-.43,6.22,6.22,0,0,0-2.88.6m5.64.52a.77.77,0,0,0,.92-.15,1.66,1.66,0,0,0,.2-1.08s-.91-.31-1.25,0A.86.86,0,0,0,187.93,180Zm-2-2.18c-.42.1-.89.19-1.4.26a14.86,14.86,0,0,1-2.41.12,2.23,2.23,0,0,0-.13-.71,2,2,0,0,0-.56-.8l.94-.27m4,6.51a4.19,4.19,0,0,1-1.6-.14,15.91,15.91,0,0,1-1.63-.77c-.52-.24-.94-.41-1.21-.51.05-.27.11-.53.16-.8l.92.06c.69.06,1.37.12,2,.2m1.64,4a5.49,5.49,0,0,1-2.5-.59,5.55,5.55,0,0,1-2.27-2.14m1.08,6.28a6.42,6.42,0,0,1-1.19-1.63,6.54,6.54,0,0,1-.71-3.18l.47-.45a9.22,9.22,0,0,0,.57,1.13,9.58,9.58,0,0,0,1.78,2.19m3.3-5.53c.1-.22-.19-.66-.57-.76s-1.09.38-1,.64.61.28.76.29S187.1,181.25,187.21,181Zm-2.59,9.65c.14-.28-.16-.85-.63-1a.82.82,0,0,0-1,.32.65.65,0,0,0,.09.62C183.46,191.07,184.44,191,184.62,190.66Zm-4-1.62a6.69,6.69,0,0,0,.31-2.22,6.6,6.6,0,0,0-.64-2.61m-1.51,7.42a6.16,6.16,0,0,1-.31-2,22.22,22.22,0,0,1,.52-3.15c.1-.67.14-1.22.17-1.56m-4.6,9.08a7.46,7.46,0,0,1-.11-1.55,7.88,7.88,0,0,1,.4-2.22c.36-1,.58-.88,1.14-2.08,0,0,.22-.48,1-3,.07,0,1-.45,1.36-.09.15.15.24.43-.08,1.47a10.93,10.93,0,0,1-1.28,2.74m-5.74,2.85c.13-.35.34-.88.63-1.5.4-.88.52-1,1.13-2.18a18.47,18.47,0,0,1,1.55-2.85,9.06,9.06,0,0,1,.93-1.07,2.64,2.64,0,0,1,.25,1.08,3,3,0,0,1-.79,1.88c-.59.74-1.36,2.17-2.11,5.27m-2.3-3,1.43-1.74a23.06,23.06,0,0,0,1.43-1.83,12.36,12.36,0,0,0,1.14-2.18m-6.93-1.48a4.48,4.48,0,0,1,2.3-.48,3.67,3.67,0,0,0,1.67-.05,2.47,2.47,0,0,0,.83-.52,3.22,3.22,0,0,0,.63,1.29,2.89,2.89,0,0,0,.78.69,6.62,6.62,0,0,1-.93,1.2,7.28,7.28,0,0,1-3.47,2m-.73-6.85a6.31,6.31,0,0,0,1.47,0,7,7,0,0,0,2.17-.55m-2.35-5.79a3.48,3.48,0,0,1,1.42,1,3.43,3.43,0,0,1,.81,2c-.07.3-.13.6-.2.89a4.62,4.62,0,0,1-1.17-.39c-.81-.4-1.14-.86-1.72-.82a1.41,1.41,0,0,0-.66.24m9,15.24a.92.92,0,0,0,.09-1.08,1.09,1.09,0,0,0-1.66,0,.83.83,0,0,0-.05.81A1.08,1.08,0,0,0,177.37,191.57Zm2.86-18.77a.79.79,0,0,0,.57-.74c0-.46-.6-.93-.6-.93s-.86.4-.91.85A.87.87,0,0,0,180.23,172.8Zm-3.44,21.14c-.07-.24-.91-.33-1.14,0s.07,1.06.07,1.06C175.33,195.3,176.94,194.42,176.79,193.94Zm4.81-3.23A.86.86,0,0,0,181,190a1,1,0,0,0-1,.24.76.76,0,0,0,.63,1.37A1,1,0,0,0,181.6,190.71Zm-8.79,3c-.14-.07-.51.17-.69.22l-.09,0c0,.22,0,.44-.09.66s-.08.3,0,.35.48,0,.71-.22S173,193.76,172.81,193.67Zm2,2.15c.08-.12-.07-.28-.05-.79,0-.12,0-.16,0-.2-.19-.2-1.39.32-1.35.69S174.66,196.11,174.84,195.82Zm4.84-2a1.39,1.39,0,0,0,0-.9s-.77-.51-1.12-.33a1,1,0,0,0,0,1.4A.84.84,0,0,0,179.68,193.81Zm-2.46-24.94c.1-.08-.06-.35,0-.81a.14.14,0,0,0,0-.09c-.06-.19-.62,0-1.23-.12,0,0-.06,0-.07,0S177,169,177.22,168.87Zm1.61.19a.72.72,0,0,0,.7.05.88.88,0,0,0,.11-1.3.84.84,0,0,0-1.1,0A.92.92,0,0,0,178.83,169.06Zm-5.06,4.62c.12,0,.13-.23.5-.58.1-.09.13-.11.14-.16.05-.29-.88-.83-1.13-.62S173.48,173.7,173.77,173.68Zm-7,9.83a.84.84,0,0,1-1.07.28.92.92,0,0,1,1-1.47A.86.86,0,0,1,166.76,183.51Zm1.27-3.37a.92.92,0,0,0-.77-1s-.48,0-1,.67c-.12.15.23.8.66.95A1,1,0,0,0,168,180.14Zm1.55,10.74c-.16.07-.29-.23-.89-.53-.25-.13-.37-.15-.38-.23s.36-.4.73-.37a.77.77,0,0,1,.59.34C169.81,190.39,169.74,190.81,169.58,190.88Zm12.93-20a.55.55,0,0,0-.1-.62.6.6,0,0,0-.9.17.56.56,0,0,0,.16.68A.59.59,0,0,0,182.51,170.83Zm-7.4.61a.79.79,0,0,0,.74-1,.72.72,0,0,0-1.3.26A.67.67,0,0,0,175.11,171.44Zm-5.93,1.08a.69.69,0,0,0-.6-.41.83.83,0,0,0-.83.45.86.86,0,0,0,.24,1.08C168.43,173.82,169.32,173,169.18,172.52ZM167,176.91c.56.15,1.38-.76,1.17-1.28a.87.87,0,0,0-1.05-.39.91.91,0,0,0-.62,1A.83.83,0,0,0,167,176.91Zm1.66,10.32a.89.89,0,0,0-.12-1,.94.94,0,0,0-1.31.15.89.89,0,0,0,0,1.09A1,1,0,0,0,168.67,187.23Zm1.87,7.38c.34-.06.61-.53.62-1a1,1,0,0,0-.64-1,.91.91,0,0,0-1.05.47A1.22,1.22,0,0,0,170.54,194.61ZM185.79,172c.11-.22-.19-.66-.56-.76s-1.1.39-1,.64.6.28.76.3S185.68,172.28,185.79,172ZM184.63,176c0-.26-.44-.56-.85-.63-.1,0-.63-.1-.84.23a.66.66,0,0,0,.11.79A1.18,1.18,0,0,0,184.63,176Zm2.88,1.24a.69.69,0,0,1-.58.73.6.6,0,0,1-.58-.19.74.74,0,0,1,.5-1A.63.63,0,0,1,187.51,177.2Zm.76,6.43c-.06.08-.21,0-.73,0-.34,0-.41,0-.5,0a.79.79,0,0,1,.2-1C187.65,182.41,188.41,183.44,188.27,183.63Zm-2.73,5c.45-.16.49-1.84.4-1.37,0,0-1.38-.46-1.6-.14S185.12,188.74,185.54,188.59Zm3.22-2.47c.14-.28-.16-.85-.63-1a.81.81,0,0,0-1,.32.65.65,0,0,0,.09.61C187.61,186.53,188.58,186.48,188.76,186.12Zm136.7-15.84a1.36,1.36,0,0,0-1.26-.08,1.34,1.34,0,0,0-.66,1,2.29,2.29,0,0,0,.39,1.41,2.7,2.7,0,0,0,.86,1.24,1.55,1.55,0,0,0,1.4.23,1.48,1.48,0,0,0,.71-1,2.38,2.38,0,0,0-.64-2.28A2.2,2.2,0,0,0,325.46,170.28Zm10.4,12.47c-.25.06-2.53.92-3.16.67a2.79,2.79,0,0,1-1.57-1.82l-1.14.87c.1.39.27,2,.37,2.4m-4.31-2.13a55,55,0,0,0,.86,6.25c.34,1.43,1.09,4,1.51,5.15m-5.12-11.79c.08.87-.06,3.75-.12,4.86a39.7,39.7,0,0,1-.62,4.61m14.22-15.9a14.86,14.86,0,0,0-2-.64,2.4,2.4,0,0,0-1.38.14m5.53-3.95c-.88.1-3.89.08-4.78.18m6.3-6.4c-.85.52-2.38,1.86-3.34,2.38-1.49.78-2.92,1.45-4.27,2l.9.92c.79-.38,1.64-.76,2.54-1.12,1.44-.58,4.3-1.11,5.56-1.46m-6.92-10.7a28.26,28.26,0,0,1-.73,2.75c-.82,2.15-3.91,5-4.9,6.13m6.76,0c-1.1.57-3.32,1.85-4.42,2.41l-1-1.27c.32-.45.8-1.1,1.4-1.85a12.57,12.57,0,0,1,2.67-2.82,19.51,19.51,0,0,1,3.39-1.14M320.29,181a32.55,32.55,0,0,1-3.89,3.47,23.3,23.3,0,0,1-4.94,2.2m1.85-3.8a15.2,15.2,0,0,0,2.77-1,18.63,18.63,0,0,0,3.05-1.76M307,178.79a36.1,36.1,0,0,0,4.09.56,28.59,28.59,0,0,0,6.18-1.13m-9.95-9.65a16.79,16.79,0,0,0,2.58,2.29,11,11,0,0,0,3.31,1.49,16.57,16.57,0,0,0,2.54.59m-1.76-9c.29.3,1.51,1.81,1.81,2.2a12.27,12.27,0,0,1,1.47,2.49l-.86,1.24a3.73,3.73,0,0,1-3.52-1.63,9.22,9.22,0,0,1-.38-3.24m-10.15,6.88a33.45,33.45,0,0,0,13.2,3.23l.69,1.58c-1.14-.07-2.3-.16-3.49-.27-2.22-.2-4.35-.47-6.37-.78m9.23-13c.33.65.24.47.43.88.83,1.86,1.95,2.79,1.82,3.22m.61-9a8.49,8.49,0,0,1,1,1.7,15.12,15.12,0,0,1,1.06,3c.17.62.28,1.15.36,1.53l-1.44,1.28a19.71,19.71,0,0,0-1.07-2.08c-1-1.68-.64-1.11-1.1-1.82m3.49-8.3a17.39,17.39,0,0,0,.64,3.93c.53,1.46,1.08,2,1.59,3.3a10,10,0,0,1,.63,3.63m5.21-8.72a18.72,18.72,0,0,1,0,5.69,11.75,11.75,0,0,1-1.79,4.65l-1.48-.78a9.64,9.64,0,0,0,.42-2.22c.14-1.95-.94-4.48-1.32-5.39m7-1.36a26.15,26.15,0,0,1-.38,5.67,16.81,16.81,0,0,1-2.18,5m-5.75,26.35c.49,1.39,2.17,2.14,2.2,2.95a27.08,27.08,0,0,1-.31,3.94c-.1.89-.48,3.35-.55,3.88m38.7-43.8a18.53,18.53,0,0,0-2,2.86c-.36,1.35,0,1.88-.37,3.39a6,6,0,0,1-.92,2.06c-.77,1.1-1.39,1.1-1.93,1.92a4.6,4.6,0,0,0-.43,3.07c.08,1.51-1.56,4.77-4.53,7.85m13.58-66.38a22.78,22.78,0,0,0-2.41,2.32,11.12,11.12,0,0,0-2,4.72c-.12,1.27.26,1.24.3,3.8a8.26,8.26,0,0,1-.18,2.79c-.64,1.73-2.18,1.86-3.46,3.16-1.43,1.45-1.51,3.43-1.66,7.38s.41,4.74.48,9.14c.05,2.91-.17,4.17-.27,6.43A62.86,62.86,0,0,0,358.76,169m-1.06-61.81c0,.91-.77,3.26-1.09,4.94a54.63,54.63,0,0,1-1.82,6.31c-.8,2.85-.57,3.91-1,7.16-.33,2.46-1.84,6.59-3.42,10.88m3-32.1a19.9,19.9,0,0,1,.85,5.64c-.09,2.15-.63,3.23-1.16,5.36-.81,3.16-.42,3.89-1,8.31-.25,2-1.5,6.24-2.4,9.73m-3.8-33.17a10.56,10.56,0,0,1,1.14,3.85c.23,1.72-.54,2.29-.55,4.62,0,1.65.38,1.67.36,3.39,0,1.94-.51,2.17-.65,3.87-.21,2.63.88,3.23.86,5.75a17.26,17.26,0,0,1-1.83,5.45m-9.49-32.16c-.52.61-.42,3.86-1,5.17s-.75,2.65-.8,5.72c0,1.74-.16,5.16,0,7.78m-5.12-16.38c-.11.76-.41,2.73-.68,4-.47,2.3-.78,3-.7,4.28a9.78,9.78,0,0,0,.82,3,61.41,61.41,0,0,0,3.35,5.76M324,98.52c.14,1.16.35,3.38.7,5.29a37.4,37.4,0,0,0,1.37,5.83,40.93,40.93,0,0,0,4,7.25m-9.6-18.66a16.78,16.78,0,0,1,1.38,5.28c0,1.67-.5,2.26-.58,4.09a12.4,12.4,0,0,0,.57,4.15c.79,2.75,1.78,3,2.44,5.56.4,1.58.12,1.83.42,3.71a26.26,26.26,0,0,0,2.34,7.06M315.9,96.16a33.4,33.4,0,0,0,.43,4.81c.67,2.85,1.69,3.67,1.75,6.09,0,1.34-.27,1.3-.17,2.68.12,1.53.14.58.71,2.8m17.21,25a26.66,26.66,0,0,1-.13,4.25,11.72,11.72,0,0,1-1,3.1,33.37,33.37,0,0,0-1.44,8.79m-.76-23.36c-.08.73-.13,3.28-.36,4.61-.45,2.65-.74,3.13-.47,4.11.4,1.43,1.32,1.47,1.67,2.94a5.48,5.48,0,0,1-.3,2.88,48.87,48.87,0,0,0-1,8.11m-3.26-24.22a35.18,35.18,0,0,1,1.33,8.82c0,.9,0,2.45,0,4.06-.11,2.83-.32,3.89-.06,5.62a46.51,46.51,0,0,0,1.15,5.72m28.87,29a23.55,23.55,0,0,1-3.55.69,21.58,21.58,0,0,1-3.71-.29m-33.1,24.85a15.25,15.25,0,0,0,6.58.9c.93-.06,1.3-.17,2.42-.18,2.9,0,3.82.71,5.54.58,1.33-.11,1.33-.58,4.36-2.1,4.62-2.33,6.18-2,8-4.1.94-1.1.64-1.34,1.7-2.47,1.6-1.69,3.07-2,4.79-3a19.26,19.26,0,0,0,5.18-5.23m-56.47-23.59.54.54a11.09,11.09,0,0,0,2.51,2.17,11.77,11.77,0,0,0,2.18,1.09m7.83-76.4c1,.43.3.33,2,1.21a21.72,21.72,0,0,0,2.22,1,9.81,9.81,0,0,0,3.88,1c1.84-.06,1.81-1,4-1.34,2-.26,2.72.46,3.58-.21s.37-2,1.32-2.66c0,0,.55-.34,4,.56a5.26,5.26,0,0,0,2.53,2.25c1.76.68,2.71-.32,4.44.39s1.39,1.81,3.19,2.59c1.56.66,1.91-.12,3.48.49a9.44,9.44,0,0,1,4,3.64,6.13,6.13,0,0,1,2.92-.54,2.7,2.7,0,0,1,1.17.32c.61.37,1.19,1.12,1,1.63s-.72.37-.86.79.29.9.5,1.14c2.25,2.54,3.38,3.8,4.41,3.84a21.29,21.29,0,0,0,2.16-.19c.93-.11,1.31-.18,1.48,0s-.45,1-.27,1.94a2.21,2.21,0,0,0,.82,1.19c2,1.92,2.28,1.85,2.92,2.64,1.17,1.42.8,2.32,1.76,2.72s1.64-.11,2.16.47a1.13,1.13,0,0,1,.28,1c-.15.63-1,.6-1.51,1.35a2.14,2.14,0,0,0-.39,1.6c.21,1,1.28,1,2.49,2.25a5.18,5.18,0,0,1,1.48,2.35,4.89,4.89,0,0,1-1.48,4.66c-.74.63-1.18.5-1.47,1.11-.38.78,0,1.76.54,3.21s.68,1.31.67,1.81c0,1.17-1.16,1.46-2,2.88-.46.74-.3.91-.91,4.25-.67,3.72-1,4.13-1.33,4.4-1,.8-1.84,0-3.76.7a5.72,5.72,0,0,0-3.1,2.52,5.85,5.85,0,0,0,.7,5.91c1.42,1.89,3.18,1.56,3.9,3.41a5.37,5.37,0,0,1,0,3,6.4,6.4,0,0,1-1.76,3.83c-1.18,1.08-2.09.73-2.46,1.6s.76,1.68.81,3.68a4.74,4.74,0,0,1-.82,2.94c-.77,1-1.46.8-2.52,2a6,6,0,0,0-1.22,2.18c-.13.41-.83,2.68.26,3.91.69.77,1.46.43,2.06,1.31a2.89,2.89,0,0,1,.33,2c-.11,1-.63,2.43-1.48,2.55-.46.06-.53-.34-1.81-.87a4.26,4.26,0,0,0-1.57-.42c-.77,0-.83.24-1.57.29-1.13.06-1.34-.57-2.57-.57a2.16,2.16,0,0,0-1.71.57c-.34.49,0,.88-.21,1.5-.3.8-1.27,1.13-2.66,1.57-1.89.6-2.21.26-2.86.82s-.4,1.1-1.37,2.46a4.63,4.63,0,0,1-1.76,1.69c-1.08.5-1.57,0-2.21.5-.91.71-.36,2.06-1.16,2.49s-1.81-.29-2.17-.51c-.95-.58-.9-1.07-1.56-1.24s-.76.12-2.34.69a5.34,5.34,0,0,1-2.32.59c-1.07-.27-1.05-1.5-2.1-1.72a2.76,2.76,0,0,0-2,.73c-1.39,1-1.14,1.8-2.15,2.25s-1.42-.31-3.16.06a4.15,4.15,0,0,0-1.84.76,10.61,10.61,0,0,0-.88.94M284.3,179.09c-2.12-1.11-4.9-1.77-5.79-1.48s-1.09.6-1.85.55c-.93-.06-1.63-1-2.39-1.56m-3.7-.91c-3.9-.53-4.84-1-6.58-.54-1,.26-.43.23-2.17.94m67.7-47.16c0-.59-1-3.23-1.15-4.31-.27-1.54-.68-2-.46-2.77.3-1.07,1.19-.92,1.83-2.12s-.15-2,.49-3.49a3.7,3.7,0,0,1,2.69-2.33,1.9,1.9,0,0,1,1.58.34c.41.41.23.92.73,1.34a1.22,1.22,0,0,0,1.06.28,1.52,1.52,0,0,0,.63-2.13,1.57,1.57,0,0,0-1.23-.57,2.73,2.73,0,0,1,1.56-.89c1.56-.2,2.91,1.47,3.48,2.58.71,1.37.33,2.07.61,4.23a18.89,18.89,0,0,0,1.74,5.43c1.3,2.52,2.13,2.18,4.28,5.18,1.59,2.22,2.95,4.12,3,6.82a7.51,7.51,0,0,1-1.61,5.3c-1.19,1.29-2.65,1.52-2.69,2.56,0,.65.55.75,1.34,2.17a8.42,8.42,0,0,1,1,2.82c.21,1.44-.23,1.61,0,3s.67,1.37.78,2.45c.15,1.51-.66,2-.84,3.51-.13,1.11.3,2.09,1.16,4.05,1.49,3.41,2.65,3.94,2.47,5.7a4.53,4.53,0,0,1-1,2.63c-.47.52-1,.75-1.34,1.54s-.12.83-.36,1.33c-.63,1.32-2.67,1.55-2.89,1.58-1.56.16-1.75-.61-3.05-.43A5.11,5.11,0,0,0,340.2,177c-.26.36-.58.87-1.39,3.78-1,3.74-.77,3.8-1.35,4.73-1,1.57-2.07,1.89-2.09,3.16a4.94,4.94,0,0,0,.59,2c.52,1.1,1,1.37,1,2.12a1.53,1.53,0,0,1-.71,1.37c-.49.24-1.08,0-1.83-.43-1-.52-1.11-.87-1.68-.93a2.08,2.08,0,0,0-1.77.88,3.16,3.16,0,0,0,0,2.75c.49,1.64,1.89,4.2,3.56,4.13.82,0,1.18-.66,2.21-1.59,2-1.76,3.7-2.13,5.32-2.87,4.57-2.11,7.74-6.94,8.35-7.9,2.35-3.72,2.84-7.25,3.41-11.35.67-4.91-.08-6.11,1-11.25.82-3.84,1.38-3.84,1.4-6.06,0-4.27-2.05-5.08-2.13-9.67-.06-3.07.86-3.51.32-6.21-.18-.88-.86-4.27-3.22-5.27-1.12-.46-1.45.08-3.22-.3-1.58-.35-4.16-1.39-4.25-2.78-.07-1,1.26-1.9,2.39-4.09a2.08,2.08,0,0,0,.23-1.1c-.05-.54-.37-1.23-.83-1.3s-.51.33-1.48.81a2.11,2.11,0,0,1-.89.33c-.68-.06-.81-1-1.91-2.54-.79-1.12-1.17-1.27-1.35-2.06s.13-.93,0-1.59c-.28-1.37-1.72-1.31-2.6-2.86a3.59,3.59,0,0,1-.2-3.43c.47-.73,1.1-.64,1.61-1.42a5.32,5.32,0,0,0,.34-3.23m-47.83,77.93c-.89-1.26-1.56-2.33-2.51-3.83a55.56,55.56,0,0,1-4.74-9.14c-.58-1.41-1.07-2.79-1.69-4.71M309.35,202a36.55,36.55,0,0,0-3.05-2.13c-2.92-1.72-4.83-1.55-7.06-2.23a10.06,10.06,0,0,1-4.75-2.87m28.58-66.58a3.92,3.92,0,0,1,1-.07,14,14,0,0,1,6.47,1.28c2.4,1,4.06,1.77,4.58,3.36.42,1.3-.24,2.21.51,4.26a8.18,8.18,0,0,0,.86,1.73,13.7,13.7,0,0,0,2.46,2.69c1.82,1.74,2.73,2.61,2.88,3.12a11,11,0,0,1,0,3.33c-.1,1.67-.21,1.48-.17,2.08.11,1.74,1,2.28,1.61,4.29a10.6,10.6,0,0,1,.46,2.9,26.41,26.41,0,0,1-1.09,7.09m-30,19.5a1.16,1.16,0,0,0,.62-.9,1.16,1.16,0,1,0-2.29-.33A1.37,1.37,0,0,0,312.69,183.73Zm26.7-7.39a1.36,1.36,0,0,0-.26-1.57,1.41,1.41,0,0,0-1.85.31,1.48,1.48,0,0,0,.14,2.09A1.53,1.53,0,0,0,339.39,176.34Zm1.14-4.74c.37-.4.05-1.66-.81-2s-2,.26-2,.81,1,1,1.21,1.09S340.16,172,340.53,171.6Zm-10.94,22.62c-.35-.22-1,.07-1.25.46-.47.63-.26,1.7.19,1.86s.88-.33,1.11-.76S330,194.46,329.59,194.22Zm2.34-4.34a1.39,1.39,0,0,0-1.6.32,1.46,1.46,0,0,0,.26,2.06,1.66,1.66,0,0,0,2.11-1.35A1.27,1.27,0,0,0,331.93,189.88Zm4.31-7.38c.34-.37-.25-2.13-1.4-2.27-.9-.11-1.84.8-1.74,1.31.08.33.65.49,1.81.8C335.7,182.55,336.1,182.66,336.24,182.5Zm-29.58-4.14c-.13-.38-.79-.51-1.25-.35s-1,.82-.77,1.2.88.42,1.36.19S306.8,178.74,306.66,178.36Zm16.64,14.48a1,1,0,0,0-.74-1,1,1,0,0,0-1.21.82,1,1,0,0,0,.74,1A1,1,0,0,0,323.3,192.84Zm8.19-6.68c.17-.39-.4-1.29-1.13-1.29s-1.19.63-1.09,1,.93.56,1.38.54C330.88,186.45,331.37,186.43,331.49,186.16ZM337.27,165c0-.55-.35-1.2-.78-1.2s-.65.5-.69.58c-.35.65-.22,1.65.22,1.8S337.22,165.69,337.27,165Zm6.69,3.66a1.12,1.12,0,0,0-.83-1.34,1.09,1.09,0,0,0-1.32.7c-.07.5.54,1,1.07,1A1,1,0,0,0,344,168.63Zm-1.29-4.4c-.09-.41-.69-.64-1.05-.69s-1.19,0-1.44.55a1.23,1.23,0,0,0,.74,1.53C341.75,165.9,342.81,164.86,342.67,164.23Zm-2.62-3.09c.06,0,.82-.8.49-1.56a1.33,1.33,0,0,0-1.46-.68c-1,.24-1.52,2-1,2.58C338.49,161.87,339.48,161.68,340.05,161.14Zm-3.67-5.28a1.06,1.06,0,0,0-1.12-.76,1.14,1.14,0,0,0-.85.76,1.18,1.18,0,0,0,.48,1.43C335.49,157.5,336.55,156.61,336.38,155.86Zm-3.13-1.39a1.16,1.16,0,1,0-2-1.17c-.66.7-.69,2-.13,2.37S333,155.42,333.25,154.47Zm-3.51-.15a1.62,1.62,0,0,0-1.1-1.86,1.49,1.49,0,0,0-1.47.27,1.55,1.55,0,0,0,.11,2.13A1.66,1.66,0,0,0,329.74,154.32Zm-4.29,2a1.63,1.63,0,0,0-1.29-1.89,1.53,1.53,0,0,0-1.67.72,1.6,1.6,0,0,0,3,1.17Zm-5.67-5.08-.07.09m.63,1.63a.87.87,0,0,0,.41.11c.89,0,1.65-1.54,1.25-2.14-.26-.37-1-.37-1.47-.2a1.73,1.73,0,0,0-.75.51m-15.1,16.24a1.51,1.51,0,0,0,.36.89,1.64,1.64,0,0,0,2.27.22,1.2,1.2,0,0,0,.12-1m4,19.11c-.08-.63-.89-1-1.41-1.14s-1.61-.09-2,.56a1.77,1.77,0,0,0,1.15,2.26A1.88,1.88,0,0,0,311.46,186.63ZM332,178.72a8.67,8.67,0,0,1-4.43,3.75c-3.25,1.14-9-1.28-11.37-5.81m9.22-6.38a8.71,8.71,0,0,0-.12-3.07,2.86,2.86,0,0,0-1.78-2,2.72,2.72,0,0,0-2.93,1.54m3.57,3.43a9.19,9.19,0,0,0-3.27-.89c-.27,0-3,0-3.83,1.74-.24.53-1.4,1.56-1.36,1.89m10.52-2.17a5.53,5.53,0,0,1,2.52-1.88A3.12,3.12,0,0,1,332,171.3m1,1.7a6.18,6.18,0,0,0-2.17-.76,8.31,8.31,0,0,0-3.93.81m-3.13-.91a8.59,8.59,0,0,0-3.71.33c-2,.79-3.69,3.85-3.82,4.19m11.09-2.91a5.09,5.09,0,0,1,2.1.55c1.71.88,2.44,4,2.61,4.42m-5.43-5c.41.71,1.32,2.07,1.73,2.84.7,1.33,1.33,2.62,1.9,3.87m-4.05-6.36c.15,1.05.19,2.65.43,3.79.26,1.32.91,2.92,1.23,4.08m-2.77-7.72c-.08.54-.46,2.28-.53,2.84-.18,1.34-.19,3.83-.3,5.1m.15-8.7a8.23,8.23,0,0,0-2.59.25,4.8,4.8,0,0,0-2.28,1.61,4.9,4.9,0,0,0-.8,3.87m6.06-5.35a11.46,11.46,0,0,0-2.14,2.54,8.36,8.36,0,0,0-.54,5.19M178.86,278.12a1.67,1.67,0,0,0-.43.73,1.8,1.8,0,0,0-.06.73m2-8.35c.08.2.18,1.16.24,1.53a4.17,4.17,0,0,1-.08,1.54,23.68,23.68,0,0,1-.69,3.18m-2.18-6.3a10,10,0,0,0-.26,1.29,9.1,9.1,0,0,0,0,2.08,14.66,14.66,0,0,0,.92,2.95m3.22-58.9c3.21,1.66,5.27,1.81,7.17,2.51,5.93,2.16,16.68,4.3,31.06,5.48m38.52-.32A119.1,119.1,0,0,0,271,224.69m0,0c-.29-.6,3-.59,3.57-.7M245.4,425.19c14-35.88,39.09-94.78,36.8-135.84m48.52-82.19S365.48,260.54,349.45,339c-9.64,47.14-43.79,78.24-73.59,95.68m65.8-227M172.45,269.91a3.45,3.45,0,0,0,2,1.49,3.41,3.41,0,0,0,2.25-.18m-2.11-2.53a3.38,3.38,0,0,0,1.62,1.86,3.42,3.42,0,0,0,2.25.29M248.67,294c-.75-.34-2.08.63-2.76,1.66a5.33,5.33,0,0,0-.73,2.58c-.12,1.42.26,1.59,0,2.39a4.54,4.54,0,0,1-2.21,2.22,15.42,15.42,0,0,1-2.39,1.1,3.4,3.4,0,0,0,0,2c.54.89,2.7.63,4,.18.8-.27,2.47-.84,2.94-2.21.39-1.16-.47-1.71,0-2.76a3.24,3.24,0,0,1,2.94-1.66c.94,0,1.17.54,1.84.37a2.27,2.27,0,0,0,1.47-2.4,2.52,2.52,0,0,0-2.21-2c-.86-.09-1.25.46-1.84.18S249.31,294.34,248.67,294Zm.6,14.48a35.27,35.27,0,0,0,6.3-3.92,28.32,28.32,0,0,0,5.22-5c2.06-2.59,3.56-4.48,3.91-7.4A10.61,10.61,0,0,0,263,285a10.41,10.41,0,0,0-4.78-3.7,11.06,11.06,0,0,0-6.3-.65c-1.27.25-2.68.53-3.48,1.74a5.11,5.11,0,0,0-.43,3.48,7.26,7.26,0,0,0,1.08,3.26c.06.08.39.51.86,1l.33.35c.36.38.61.63,1,1l.86.87,1.31,1.3s1.5,1.75,2,1.53.22-2.06-.66-3.49a6.46,6.46,0,0,0-4.08-2.7m-73.43-8.63a2.65,2.65,0,0,1,.58-2,2.58,2.58,0,0,1,1-.6,7.55,7.55,0,0,1,2.39-.48c2-.17,4.13-1.74,4.1-2.88,0-.71-.92-1.2-2.32-1.91-1.83-.93-3-1.45-6-2.75m-.71-3a10.65,10.65,0,0,1,3.06.63,12.08,12.08,0,0,1,2.78,1.54,15.72,15.72,0,0,1,2.21,1.86m-11.39-1.95a3.38,3.38,0,0,0,1.85,1.64,3.33,3.33,0,0,0,2.26,0m-22.59,35.7c-2.28-.08.56-1.29,2.37-1.53a7,7,0,0,1,4,.52,5.74,5.74,0,0,1,2.81,2.62,4.28,4.28,0,0,1,.69,1.88.8.8,0,0,0,.46.71,2.79,2.79,0,0,0,1.78.23,3.09,3.09,0,0,0,1.88-1.58,7,7,0,0,0,.63-4.82,11.56,11.56,0,0,0-.52-2.3m67.68,14.22a2.71,2.71,0,0,0,1.1,1.49c1.37,1,4,.6,5.66.39,7.19-.9,12.24-7,12.24-7,9.28-7.1,13.4-15.67,14-21.59a13.81,13.81,0,0,0-.37-5.45c-.13-.42-1.9-6.24-7.14-8.46-1.82-.77-5.06-1.33-10.89-.25-6.17,1.14-4.94,2.54-5.53,3.33m-84.79,47c1.49.43-.89,1.88-1.56,2.84a6.32,6.32,0,0,0-1.2,3.88,4.28,4.28,0,0,0,1,3.05c.72.69,1.38.55,2.13,1.39a4.28,4.28,0,0,1,.83,1.76c.19.74.48,2.31-.37,5.55-.58,2.21-.87,2.1-1.11,3.51a10.93,10.93,0,0,0,.28,4.72c1.23,4.15,5,6.15,6.09,6.75a16.61,16.61,0,0,0,5.64,1.67c4.72.73,9.15.67,15.88,0,8.59-.86,14-1.42,16.5-1.12,6.72.84,11,3.4,12.44,4.73,1.14,1,3.09,2.95,8.53,12.48a84.75,84.75,0,0,0,4.92,7.76c2.68,4,6.19,6.4,8.43,14.53,2,7.35-1.61,26.59-1.15,29.65M176.59,219c-1.21,4.4-1.26,4.17-2.83,9.48-1.21,4.1-1.94,6.59-2.87,10.1-.73,2.72-1.42,5.45-2,8.93-.81,4.71-.69,6.3-.58,7.21,0,.13.2,1.17.44,2.53s.37,2.1.43,2.37a22.57,22.57,0,0,1,.56,3.37c0,.12,0,.24,0,.38a12.86,12.86,0,0,1-1.15,5.18,23.7,23.7,0,0,1-2.26,4.4c-2.38,3.86-3.19,4.22-5.43,7.66s-1.7,3.46-3.63,6.15c-1.47,2.07-1.75,2-4.83,5.75s-3.78,5.07-4,6.55a7.23,7.23,0,0,0,.5,4.34c.94,2,3,3.81,5,3.93a10.68,10.68,0,0,1,1.61.1,8.93,8.93,0,0,1,2.62.91c1.53.79,2.41,1.25,2.82,2.12s.22,1.67-1.21,4.84c-.61,1.35-1.48,3.15-2.62,5.24a3.05,3.05,0,0,0-.1,1.51c.22,1.05,1,1.74,2.22,2.72a14.07,14.07,0,0,0,1.2.91c1.05.68,3.89,2,9.88,2" transform="translate(-122.47 -45.66)"/><path class="cls-1" d="M237,49.54a20.44,20.44,0,0,1,1.53,3.27,10.43,10.43,0,0,1,.79,3.8s.2,2.7.55,5.48c.59,4.69,1.4,5.07.9,7-.42,1.64-1.06,1.74-1.57,3.8a13,13,0,0,0-.22,4.37,59.86,59.86,0,0,0,1.34,8.39c1.19,5.34,1.79,8,2.12,9.4.74,3.05,1.15,4.55,1,6.82a29.62,29.62,0,0,1-.9,4.58c-.36,1.94-.11,6.38.42,10M232.16,86.89c.5,4.2.9,8.42,1.13,10.3.25,2.16.41,3.48.72,5.4.52,3.26,1,5.41,1.16,5.94.45,1.82,1.2,4.5,1.57,5.65m-.31-64.92a113.26,113.26,0,0,1,.18,15.16c-.36,6.07-1,7.31-1.17,13.14-.13,4.62.27,3.74.63,14.23.26,7.5.13,10.1.9,15,.48,3.11,2.05,7.22,2.49,8.88M227.28,47.29c0,1,.17,3.73.16,5.69,0,2.58-.1,3.57-.09,5.4,0,1.42.39,5.24.74,7.78m2.1,6A77,77,0,0,0,228.34,80a49.1,49.1,0,0,0-.36,6c0,3.27.19,3,.09,5.31s-.35,3.08-.72,7.11c-.13,1.46.5,4.19.45,5m-4.65-40c.08,2.68.38,6,.52,7.9.24,3.18.36,4.81.72,7.11.45,2.91.72,3.39,1,6a20.58,20.58,0,0,1,0,5.23c-.22,1.44-.41,1.45-.63,2.88a23.66,23.66,0,0,0,0,5.58,34.45,34.45,0,0,0,.72,6c.58,2.43,1.08,2.78,1.61,5a29.33,29.33,0,0,1,.55,6.35m-.35,1c-.61-.86-2.29-2.62-3.25-4.18a53,53,0,0,1-5.93-12.07c-1.53-4.87-.2-4.53-2-11.43-.72-2.8-1.54-5.2-2.88-9.1-1.7-5-2.07-5.49-2.79-8A61.33,61.33,0,0,1,208.75,61M192.29,65.4A33.88,33.88,0,0,1,194.91,69c1.34,2.57,1.43,3.58,2.51,5.85,1.19,2.48,1.63,2.42,3.33,5.4.79,1.4.9,1.77,2.87,6.12,2.56,5.65,3.86,8.49,4.5,9.37,1.68,2.31,2.86,3,3.68,5.49a21.76,21.76,0,0,1,.81,4.14c.31,2.15.31,3.33.81,5.68a13.1,13.1,0,0,0,.54,2.07c.83,2.05,1.9,2.17,3.15,4.05,1.09,1.63.63,2.08,2,4.86a39.54,39.54,0,0,0,2.59,4.29M177.09,72.52c.36.34,1.53,1.65,2,2.29a8.52,8.52,0,0,1,1.6,2.79c.44,1.49-.08,1.88.52,3.18a8.36,8.36,0,0,0,1.06,1.6c.55.7,2.21,2.83,2.6,3.19m21.59,22.94c.58,2.28,1,5.19,1.26,6.39.88,4,1,5.35,1.85,8.16.65,2.18,1.29,3.75,1.48,4.22,1.11,2.72,3.38,5,4.31,6.55m-16.52-26.61a67.69,67.69,0,0,1,4.44,8.35c1,2,1.24,2.65,3.85,7.93,1.26,2.55,1.82,3.65,2.58,5,1.21,2.08,4.28,5.42,5.06,6.53M192.37,101.6c.55.79,1.85,2.82,2.72,4.41,1.4,2.56,1.57,3.48,2.73,5.41,1.26,2.1,1.69,2.06,3.26,4.3,1.71,2.43,2,3.67,3.55,6.52,1,1.84,5.16,8.78,7.41,11.86M178.41,86.61c1.05,1.22,2.35,2.45,3,3.1,1.73,1.76,2.4,2.2,2.89,3.41s.07,1.39.59,2.59,1.18,1.51,2.44,3a15.25,15.25,0,0,1,2.44,3.64c.89,2,.47,2.65,1.11,4.52.47,1.37,1.18,2.38,3.11,4.52,4.09,4.53,5.38,4.92,7.54,7.55s1.91,3.57,4.07,7.12a48.6,48.6,0,0,0,9.2,10.64M173.23,87.13C175.39,89,177,91.7,178,92.88c2.32,2.65,2.3,3.18,5.82,7.46,1.11,1.35,1.89,2.24,3,3.84.49.69,1.41,2,2.45,3.85,2,3.57,1.69,4,3.37,7a31.15,31.15,0,0,0,4.66,6.64c1.58,1.7,2.21,1.93,3.25,3.5,1.22,1.84,1.33,3,2.21,5.13.63,1.51,3.66,5.35,5.48,7.68m21.08-22.27a16.75,16.75,0,0,0,0-5.27,8.6,8.6,0,0,0-1-3.35c-.57-1-1.07-1.31-1.11-2.13,0-.37.06-.85.83-2,1.18-1.8,1.81-1.92,2.41-3,.48-.84.51-1.83.56-3.81.08-2.8-.36-3.16-.19-5.2.15-1.71.47-1.65.93-4.08a18.06,18.06,0,0,0,.46-5.76c-.25-2.22-.86-2.24-1.57-6-.24-1.28-.44-2.68-.47-2.88-.35-2.55-.2-2.6-.36-3.25-.89-3.57-6.12-5.47-6.68-5.66-1.7-.6-2.74-.55-4.17-1.67-1.08-.85-.94-1.24-2-2.05-.37-.27-2.79-2-4.91-1.2a7.13,7.13,0,0,0-2,1.39c-.67.68-1,1.28-1.66,1.39a2.74,2.74,0,0,1-1.12-.18c-1.06-.29-1.36-.52-1.85-.65a4.22,4.22,0,0,0-2.87.46c-1.33.61-1.11,1.14-2.41,1.77a7.7,7.7,0,0,1-3.06.65c-1.18,0-1.46-.28-2.23,0a4.44,4.44,0,0,0-1.66,1.2c-.57.63-.47.82-.84,1-.55.31-1,0-2.5-.28a6.34,6.34,0,0,0-2.32-.09c-.91.17-.85.45-1.57.56-1.45.21-2-.86-3-.47-.54.23-.39.62-1.39,1.3a2.83,2.83,0,0,1-1.2.56c-.68.11-.91-.17-1.21,0s-.12,1-.37,2.32a6,6,0,0,1-1.11,2.51c-.43.58-.64.88-1,1-.94.35-1.53-.58-2.6-.28-.5.14-.35.35-1.39,1s-1.41.57-1.85,1.12a4.93,4.93,0,0,0-.74,1.57c.44.76,1.1,1.61,2,1.67s1.13-.53,1.66-.31.8,1.42.75,2.12-.38.85-.45,1.81.2,1.07,0,1.66-.46.59-.9,1.21c-.59.84-1,2.15-.61,2.57.21.2.59.14,1.35,0a15,15,0,0,0,1.92-.54,4.45,4.45,0,0,1,2.68.15,1.41,1.41,0,0,1,.39-.92c.1-.1.39-.33,1.53-.31a9.41,9.41,0,0,1,1.76.23c1.25.28,1.39.48,1.92.39s.64-.41,1.31-.62a3.26,3.26,0,0,1,2,.08,4.22,4.22,0,0,1,2.3,2.38,14,14,0,0,1,.69,3.54c.31,2.29.46,3.44.46,3.45a4.06,4.06,0,0,0,.39,1.85c.2.38.34.45.76,1.15s.58,1,.54,1.31-.41.52-.54,1.07.08,1.24.46,1.39c.23.09.42-.06,1.08-.39.91-.44,1.36-.66,1.69-.61.73.12,1.22,1.14,1.38,1.84.2.92-.19,1.14,0,2a4,4,0,0,0,1.46,2.08,6.46,6.46,0,0,0,2.45,1.46c1.59.5,2-.1,4,.15a7,7,0,0,1,3.84,1.31c1,.82,1.56,2,2.76,2.46a5.75,5.75,0,0,1,1,.45,5.2,5.2,0,0,1,1.15.81c.5.54.38,1.27.29,2.78a17.52,17.52,0,0,0,0,3.82,7.18,7.18,0,0,0,.87,2.83,5.51,5.51,0,0,1,.63,1.28,4.9,4.9,0,0,1,.23,1.27c.11,1.77-.49,2.38-.4,3.87.05.84.24.66.46,2a11.74,11.74,0,0,1,.12,3.47c-.23,1.81-1.89,3.83-2.49,4.81m100.8-45c.32-.8,1.23-2.9,1-4.21-.31-1.55-1.09-1.68-1.46-3.3s.33-1.82,0-4.14a8.85,8.85,0,0,0-.73-2.57,6.52,6.52,0,0,0-1.34-2c-1.22-1.18-2-.86-2.44-1.71s.34-1.33,0-2.81a4.34,4.34,0,0,0-.73-1.58c-.82-1.12-1.56-1-2.31-1.83s-.29-1.45-1-3.18a10.13,10.13,0,0,0-2.07-3c-1.31-1.47-1.57-1.2-2.92-2.68a18.07,18.07,0,0,1-2.44-3.42c-.88-1.55-.7-1.71-1.22-2.44-.78-1.09-1.9-1.73-5-2.68-2.5-.78-3.49-.9-6.83-1.71-1.52-.38-3.51-.86-6-1.59-4.45-1.32-4.38-1.64-6.09-1.83-1.3-.15-3.18.15-6.94.73-4.27.66-5.16,1-7.19.73a20.65,20.65,0,0,1-3.9-1c-2.3-.85-2.61-1.48-4.14-1.71-1.33-.2-2.35.11-4.39.73s-2.5,1.09-5.24,1.95c-2.21.7-2.78.66-3.29.49-1.11-.37-1.11-1.14-2.68-2.07a5.57,5.57,0,0,0-2.8-1c-1.58,0-1.93.91-3.78.86l-1.83-.25a9.84,9.84,0,0,0-2.43-.24,13.73,13.73,0,0,0-1.83.49c-1.64.32-1.9-.21-2.8.12-.61.22-.56.5-2.44,2.8-1.13,1.4-1.5,1.73-2.07,2a8.9,8.9,0,0,1-1.83.36c-1.64.25-1.57.08-1.95.25-.8.34-1.26,1.24-2.19,3a5.64,5.64,0,0,1-1.1,1.71c-.44.43-1.59,2.54-1.91,2.7M265.75,134a24,24,0,0,0,3.49-1.84,26,26,0,0,0,5.63-5c1.09-1.19,5.14-3.92,13.25-9.4,3.82-2.58,7.87-5.29,7.87-5.29,4.36-2.92,4.39-2.92,4.93-3.34,4.66-3.68,4-5,7.92-8,2-1.45,3.46-3.54,5.63-4.64a.88.88,0,0,0,.38-.37c.21-.44-.11-1.1-.49-1.5-.64-.69-1.17-.34-1.94-1a3.57,3.57,0,0,1-1-1.72c-.3-.88-.12-1.18-.49-2.12-.27-.7-.4-1-.75-1.19-.5-.22-.88.25-2.2.52-.73.15-1.17.24-1.41,0s-.11-.59.07-2.08a4.41,4.41,0,0,0,.06-1.55c-.14-.34-.44-.64-2.28-1.34s-2-.59-2.48-1a3,3,0,0,1-1-2.49c.16-1,.93-1,1.08-2a3.31,3.31,0,0,0-1.14-2.56,4.39,4.39,0,0,0-2.76-1c-1.19-.08-1.34.29-3.49.54a23.9,23.9,0,0,0-2.41.2c-1.58.37-1.72,1-3.16,1.21a3.39,3.39,0,0,1-2.55-.27c-.69-.46-.5-1-1.27-1.88a5,5,0,0,0-2.55-1.68c-1.29-.3-1.77.31-3-.2a2.49,2.49,0,0,1-1.21-.87c-.5-.72-.19-1.31-.4-1.95-.38-1.16-2.07-1.47-4.1-2a49.81,49.81,0,0,1-5.57-1.88,11.51,11.51,0,0,0-.27,4.7c.41,2.54,1.48,3.24,1.75,6.19a9.68,9.68,0,0,1-.2,3.49c-.41,1.54-1,2-1.48,3.36a10.94,10.94,0,0,0-.4,4.44c.23,8.73.15,9.68-.14,10.89,0,.08-.46,1.46-1.34,4.24-1.56,4.89-1.54,4.78-1.61,5.11-.7,3.46.09,4.57-.87,7.53a26.79,26.79,0,0,1-1.81,4m5.21,13.7c1.43-.65,3.46-1.57,5.87-2.72,4.1-2,6.15-2.94,7.79-3.91,4.6-2.69,4.56-3.57,7.48-4.52,2.31-.75,3-.43,4.95-1.48,1.51-.84,1.56-1.32,4.45-3.66a25,25,0,0,1,4.33-3.1c1.23-.62,1.35-.48,4.7-1.73,2.3-.86,3.39-1.4,4.14-1.73a5.9,5.9,0,0,0,3.9-4.53c.13-1,.85-2.19.49-3.65-.2-.83-.55-1.16-1-2.43a20.56,20.56,0,0,1-.8-3.38M266.36,141c.45.09,1.12.22,1.95.33a28.44,28.44,0,0,0,7.62,0c6.17-.77,9.25-1.15,11.24-1,.49,0,.48.05,9.07,1.57,3.34.59,5,.88,5.2.9,4.83.23,5.53-1.76,12.2-3,4.36-.83,7.36-.61,8.29-2.58a6.29,6.29,0,0,0,.39-2.3c.1-2.32-.75-3.29-.06-4.54.33-.6.75-.77.79-1.4a2.48,2.48,0,0,0-.62-1.57c-.64-.81-1.26-.81-1.29-1.23s.53-.64,1.46-1.35a8.24,8.24,0,0,0,1.79-1.68c.34-.55.45-1.37-.9-4.65-1.55-3.81-2.36-5.71-3.86-6a10.48,10.48,0,0,0-1.24-.07m0,0c-.29,0-.67,0-1.16-.1-1.33-.15-1.68-.3-2-.56a3.07,3.07,0,0,1-.73-1.79,7.72,7.72,0,0,1-.17-1.74m-53.48,46.6a27.85,27.85,0,0,1,3.84,2.11c2.92,1.93,3.25,3,5.7,4.1,1.77.81,2,.43,3.72,1.36,2,1,2.08,1.71,3.72,2.36a11.13,11.13,0,0,0,4.29.62c2.2.06,2.41-.26,5-.19,2,.06,3,.29,3.81.86s.64.89,1.38,1.34c1.36.82,2.3-.06,5.15.19,1.48.13,1.38.38,2.72.43a19.93,19.93,0,0,0,3.91-.53c2.8-.36,3.05.29,4.72-.14.67-.17,1.1-.4,4-2.63,4.82-3.75,5.14-4.31,5.34-5,.52-1.8-.47-2.54.42-4.3.63-1.23,1.48-1.61,1.53-2.77,0-.4-.06-.82-.76-2.1-1.35-2.48-1.86-2.41-2.24-3.54s-.05-1.48.38-4.73c.2-1.55.29-2.45.35-3.3m-61.75,34a42,42,0,0,1,4.38-.69,16.8,16.8,0,0,1,4.26.49c1.14.32,1.21.56,3.3,1.61,2.61,1.3,3.91,1.95,5.31,2.09a9.26,9.26,0,0,0,4.91-1.05,24.26,24.26,0,0,0,5.23-3.54c.11-.1,2.11-1.84,3.38-1.69a5,5,0,0,0,.9,0,3.43,3.43,0,0,0,1.27-.27c.74-.34.58-.82,1.21-1.2a2.29,2.29,0,0,1,1.38-.29M253.26,182.9c-.22-.15-1.31-.79-1.72-1.06-1.22-.84-1.31-.8-1.52-1.05-.54-.64-.12-1-.57-2.49-.28-.9-.47-.84-.86-2s-.19-1.12-.48-1.72c-.5-1.07-1.08-1-1.62-2s-.06-1.31-.57-2.29a4.8,4.8,0,0,0-2.67-2.1c-1.09-.39-1.24,0-2.28-.48s-.9-.77-2.1-1.34c-1-.45-1.3-.36-1.81-.86s-.36-.88-.86-1.33c-.78-.72-2.06-.58-2.95-.48-1.21.13-1.09.42-1.81.38-.27,0-.77-.07-3.15-1.52a6.33,6.33,0,0,0-1.52-.86c-1.09-.33-1.43.09-2.29-.19-1.15-.39-1-1.3-2.1-1.72-.7-.27-1.39-.12-2.76.19-1.6.35-2,.76-2.57.48s-.45-1.05-1.24-1.53c-.63-.38-.95,0-2.1-.38m0,0a4.22,4.22,0,0,1-1.52-.77c-.85-.71-.64-1.32-1.34-2.19a4.2,4.2,0,0,0-2.66-1.43,4.44,4.44,0,0,0-3.05.86c-.89.67-1,1.36-1.53,1.33s-.53-.48-1.43-1.72a14.47,14.47,0,0,0-1.71-2c-.92-.88-1.38-1.32-1.81-1.24s-.52.34-.68.75m0,0a5.48,5.48,0,0,1-1.52,2.68m0,0a4.3,4.3,0,0,1-2.76.86c-1.54,0-2.18-.68-4.38-1.81-4-2-5.41-1.59-6.29-3.25a12.64,12.64,0,0,1-.86-2.86c-.38-1.63-.33-2.17-.86-2.67a3.49,3.49,0,0,0-2.76-.57,6.07,6.07,0,0,0-2.32.7m0,0c-.36.16-1.17.46-1.4.54,0,0-5.61,2.76-4.3-2.07m3-13.7c.42-.22,1-.46,1.85-.83m0,0,.45-.2c2.84-1.31,3-1.7,4.09-2.1.75-.28,2.4-.74,8.39,1.24s8.88,2.93,11,4.87c1.08,1,3.49,3.55,6.19,4.39a19.56,19.56,0,0,0,1.91.47c2.07.38,2.53,0,3.71.39a7.34,7.34,0,0,1,3,2.1c1.65,1.55,1.41,2,2.57,2.76,1.55,1,2.22.42,3.43,1.44s.67,1.52,1.91,2.95a13.06,13.06,0,0,0,3.24,2.39c2.13,1.33,2.34,1.16,3.14,1.91,1.08,1,1,1.6,2.19,3.44a23,23,0,0,0,3.34,4c2,2,2.94,3,4.19,3.43,1.56.52,2-.05,4.39.67a6.06,6.06,0,0,1,2.85,1.62,6.15,6.15,0,0,1,.71.95,7.6,7.6,0,0,1,.91,2.49c.38,1.68.09,1.61.38,2.29.47,1.07,1.08,1,2,2.29a7.66,7.66,0,0,1,1.14,2.48c.4,1.62-.13,2,.29,3.15s1.13,1.08,2,2.58c.62,1.09.3,1.27,1.14,3.72.78,2.28,1.26,2.72,1.62,3a3.2,3.2,0,0,0,2.19.48c1-.18,1.09-.77,1.91-1s1.17.2,3.24,1.34a19.31,19.31,0,0,0,4.1,2c1.25.27,1.86.07,2.47.67a3.74,3.74,0,0,1,.86,2.1c.23,1.3-.12,1.76.29,2.2.11.12.31.27,2,.38s1.89,0,2.28.29.27.58,1,1.43c.43.54.79,1,1.24.95s.83-.72.95-.95c.39-.82.08-1.19.28-1.91.42-1.48,2.36-2.16,2.77-2.29,1.09-.36,1.3,0,2.09-.39s.85-.73,2-2.48a24.34,24.34,0,0,1,2.09-3c1.11-1.14,1.71-1.2,2-2a3.33,3.33,0,0,0-.47-2.67,33.53,33.53,0,0,0-6.48,0c-2.05.2-3.2.51-4.48-.19s-1-1.26-2.57-2.39A13,13,0,0,0,272,179c-1.57-.58-1.71-.4-2.86-.86-2.17-.86-2-1.62-3.62-2.19-2.22-.78-2.93.5-4.86-.38-1.41-.65-1.25-1.44-2.95-2.2-1.19-.53-1.4-.2-3.05-.76a13,13,0,0,1-6.1-4.39c-1.08-1.41-.9-1.78-2-3a8.09,8.09,0,0,0-2.43-2c-1.1-.56-1.62-.45-3.5-1a20.89,20.89,0,0,1-2.42-.9,4.58,4.58,0,0,1,1.85-1.1,8.82,8.82,0,0,1,2.05-.14c2.1-.07,2.3-.16,2.85,0,.75.26.62.5,1.67,1.05a13,13,0,0,0,2.73.91c1.36.37,1.47.37,2.6.68a16.93,16.93,0,0,1,2.82.9c1.21.65,1.34,1.26,2.48,2.26.48.42.71.53,3.72,2,4,2,4.6,2.3,5.64,2.15a8.38,8.38,0,0,0,2.49-1c2.19-1.11,2.12-1.63,3.38-2s1.55.15,4.29,0c.7,0,1.6-.18,3.42-.46a44.42,44.42,0,0,1,4.41-.68,9.85,9.85,0,0,1,4.39.54,8.25,8.25,0,0,1,2.57,1.66m-66.25-1.2c-.17-.14-1.12-.75-1.3-.9a19.36,19.36,0,0,1-4.38-5.44m28.46,15.33c-4-1.57-8.53-3.25-11.51-4.3m4.15-18.74a5.83,5.83,0,0,1,.15-1.66,5.71,5.71,0,0,1,.72-1.74m-.38,5.27a1,1,0,0,0-.27-.9,1.23,1.23,0,0,0-.85-.31c-.2,0-1.05-.08-1.39.49a1.15,1.15,0,0,0-.09.86,1.26,1.26,0,0,0,.71.89,1.45,1.45,0,0,0,1.26-.31A1.25,1.25,0,0,0,241.31,154.71Zm21.55-6.54a8.7,8.7,0,0,0-1.22-1.43,14.85,14.85,0,0,0-2.45-1.69c-.51-.31-.94-.55-1.22-.71m5.65,7.7a13.72,13.72,0,0,0-1.63-2.29,35.88,35.88,0,0,0-2.75-2.6c-.58-.55-1.4-1.37-2.34-2.45m2.85,6.48a8.92,8.92,0,0,1-2.24-2.2,10.28,10.28,0,0,1-1.12-2.09,11.28,11.28,0,0,1-.56-1.68m.44,13.52-.83-2.7c-.89-2.87-1.12-3.54-1.39-4.28s-.65-1.7-1.19-2.92a3.66,3.66,0,0,0,.91-.33,3.88,3.88,0,0,0,.81-.56,15.19,15.19,0,0,0,.39,1.67,5.72,5.72,0,0,0,1.27,2.64,3.84,3.84,0,0,0,.67.56m-3.44,3.31a3.39,3.39,0,0,1-1-1.53,6,6,0,0,1,.06-2.45,12.86,12.86,0,0,0-.06-2.72M247,152c.17-.44.35-.88.52-1.31a2.5,2.5,0,0,0,1,.25,2.33,2.33,0,0,0,.89-.17,7,7,0,0,1,.11,1.81,6.72,6.72,0,0,1-.5,2.08m-5.43-4.8a7.44,7.44,0,0,1,.12,1.74,8,8,0,0,1-.23,1.52M240,148.55c-.41,1-.87,2.06-1.4,3.15-.61,1.26-1.24,2.43-1.86,3.5m-.41-7.49a1.36,1.36,0,0,1,.52-.61,1.43,1.43,0,0,1,1.22-.09c.14.27.29.52.43.79l1,.61a11.64,11.64,0,0,1-.78,1.13,9.87,9.87,0,0,1-1.05,1.13m-2-4.62a4.52,4.52,0,0,0-3.65,2.79m-2-3.75a6.42,6.42,0,0,0,1.74-.17,6.75,6.75,0,0,0,1.92-.78c.25.1,1,.45,1,.87s-.62.6-1.05.78a19.33,19.33,0,0,0-3.3,1.83m4.48-5.92a32.37,32.37,0,0,1-4,1.13,16.77,16.77,0,0,1-3.48.26m-2.82-6.16a10.35,10.35,0,0,1,3.27-1.24,10.93,10.93,0,0,1,6.33.68V139a16.61,16.61,0,0,0-1.92.11,15.41,15.41,0,0,0-3,.68m37,3.35a3.59,3.59,0,0,1-2.1.75,3.9,3.9,0,0,1-3-1.5c-.18.41-.36.82-.55,1.22a5,5,0,0,0,3.94,2m-4.21-6.84a7.5,7.5,0,0,1,1.84.37,7.81,7.81,0,0,1,1.55,1.4m3-4.55a16.56,16.56,0,0,0-2.15-1.07,7.73,7.73,0,0,0-2.1-.34,2.38,2.38,0,0,1,.13,1.09,2.31,2.31,0,0,1-.54,1.23,2.3,2.3,0,0,0,.95.68,2.14,2.14,0,0,0,.75.13m3.36-8.83a13.61,13.61,0,0,0-2.56-.66,6.78,6.78,0,0,0-2.74.59,3.24,3.24,0,0,1,.54,1.19,3.08,3.08,0,0,1,0,1c.33.08.7.16,1.1.22s1.36.39,1.75.4m-3.09-5a11.69,11.69,0,0,1-1.51,0,12.44,12.44,0,0,1-1.77.17m5.86-3.27a15.32,15.32,0,0,0-3.21.73,10,10,0,0,0-2.7,1.5m1-6.39c-.43.58-.88,1.15-1.32,1.73l-1.92,2.45a2.38,2.38,0,0,1,1.33.57,2.05,2.05,0,0,1,.42.51,3.76,3.76,0,0,1,1-1.13,4,4,0,0,1,1.75-.74m-37.79-1.1a7.88,7.88,0,0,0,2.54,1.48,11.15,11.15,0,0,0,2.8.51c1.86.2,2.15,0,3.15.21.85.14,4.15,2.27,5.52,3.21m-10.1-5.92c1,.31,2.05.65,3.11,1,2,.71,5.54,1.91,7.31,2.68M253,117.9a5.29,5.29,0,0,0-1.4,2.56,5.23,5.23,0,0,0,0,2.26,3.14,3.14,0,0,1,1.16.18,3.18,3.18,0,0,1,.85.49,2.12,2.12,0,0,1,1.34-2.26m-6-3.66a7.06,7.06,0,0,1-.67,3c-.25.52-.75,2.27-1,2.61m-2.75-9.54a11.25,11.25,0,0,0-1.49,4.92,8.19,8.19,0,0,0,.43,3.12l1.75.49a2.65,2.65,0,0,1-.38-1.75,2.39,2.39,0,0,1,.44-1.09m-4.47-1.43c.26.8.92,3.81,1.17,4.61M234,111.67a32.78,32.78,0,0,1,3.8,4.76,46.52,46.52,0,0,1,3.5,6.26m-8.27-7.33c.44.68,1.43,1.93,2,2.66a29.82,29.82,0,0,0,5.69,4.67m-15.26-5.5c1.24.79,2.52,1.57,3.86,2.35,2.61,1.51,5.15,2.84,7.58,4,.83-.2,1.75-.51,1.79-1s-1.47-1.11-3.17-1.93a33.59,33.59,0,0,1-6-3.35m-5,10a19.15,19.15,0,0,1,3.72,0,18.62,18.62,0,0,1,5.65,1.52c.74-.72.89-1.26.82-1.65-.32-2-6.57-2.61-8.81-2.76m-2.46,8.52a20.5,20.5,0,0,0,4.56,1.21,25.38,25.38,0,0,0,7.07-.08m-5-3.13a12.54,12.54,0,0,1,2.33.15,15.64,15.64,0,0,1,2.55,1.15m-5.73-1.09a1.17,1.17,0,0,0-.53-1.33,1.2,1.2,0,0,0-1.2,0,1.22,1.22,0,0,0-.6.93,1.13,1.13,0,0,0,.53,1A1.28,1.28,0,0,0,229.29,131.1Zm6.6,17.7c0-.33-.76-.53-.94-.76l0,0c-.11-.05-.33.19-.45.38s-.31.51-.15.79.54.26.68.26a.93.93,0,0,0,.6-.19C235.68,149.19,235.92,149,235.89,148.8Zm0,6.84a3.14,3.14,0,0,0-1.17.2V157s1.2.46,1.56.1A1.13,1.13,0,0,0,235.89,155.64Zm1.47-2.83a1.18,1.18,0,0,0,.09-1.08,1.4,1.4,0,0,0-.87-.78,4,4,0,0,0-1.18,0l-.58.88a4.45,4.45,0,0,0,1.27,1.17A1.22,1.22,0,0,0,237.36,152.81Zm6,4.2c.07,0,.2-.16.39-1.37.13-.84.09-1,0-1.07s-.69-.15-1,0a1.55,1.55,0,0,0-.68,1.17,1.2,1.2,0,0,0,.1,1.08A1,1,0,0,0,243.41,157Zm2.83-2.74c.46-.18.74-.29.88-.58s.09-.95-.2-1.08-.69.24-1,.49c-.48.43-1,1.15-.78,1.37S245.84,154.43,246.24,154.27Zm3,2.25c0-.26-.27-.59-.28-1.08,0,0,0-.06,0-.09-.33-.43-2.06.71-1.56.49,0,0-.41,1.43,0,1.76S249.27,157.14,249.27,156.52Zm4.78,1.86a1,1,0,0,0,0-1.27,1.13,1.13,0,0,0-1.66-.1,1.06,1.06,0,0,0,.19,1.27A1.08,1.08,0,0,0,254.05,158.38Zm3.51,2.25c-.5.11-1.07-.28-1.07-.68s.43-.63.78-.69.85.05,1,.39A.87.87,0,0,1,257.56,160.63Zm1-2.64a.79.79,0,0,0,0-1,.87.87,0,0,0-1.07-.19,2.25,2.25,0,0,0-.59.88S258.12,158.35,258.54,158Zm-.39-3.13a1.61,1.61,0,0,0,0-1l-1.27-.29s-.32,1.23.1,1.56A.91.91,0,0,0,258.15,154.86Zm3.61-1.66c.37-.41.11-1.06-.1-1.37-.05-.08-.5-.72-1.07-.59a1,1,0,0,0-.68.88,1.17,1.17,0,0,0,.58,1.18A1.07,1.07,0,0,0,261.76,153.2Zm2.83.49c-.34-.21-.62-.66-.49-1s1-.51,1.47-.2c.29.19.59.57.49.88S265.11,154,264.59,153.69Zm.1-3c.26-.06.71-.25.78-.59.11-.54-.78-1.27-.78-1.27s-1.31-.34-1.66.1.06.91.1,1A1.49,1.49,0,0,0,264.69,150.66Zm2.24-3.92a1.18,1.18,0,0,0,.4-1.66,1.28,1.28,0,0,0-1.47,0c-.08,0-.59.36-.58.79A1.25,1.25,0,0,0,266.93,146.74Zm-2.63-4.2a1.22,1.22,0,0,0,.39-1.56,1.36,1.36,0,0,0-1.07-.49c-.33,0-1-.12-1.27.29a1.14,1.14,0,0,0,.09,1.17A1.45,1.45,0,0,0,264.3,142.54Zm-1.45-21.49a.9.9,0,0,0-.85-.73c-.33,0-.52.37-.58.47-.33.57-.22,1.44.14,1.58S263,121.76,262.85,121.05Zm.84,5.89a1.15,1.15,0,0,0,0-1,1,1,0,0,0-1.14-.41,1.05,1.05,0,0,0-.51.66,1.25,1.25,0,0,0,0,1.22,1,1,0,0,0,1,.33A1.13,1.13,0,0,0,263.69,126.94Zm3.49,4.55c0-.18.09-.72-.26-1a1,1,0,0,0-1.17.11c-.69.51-.71,1.83-.22,2.13.32.2.85-.06,1.1-.25A1.52,1.52,0,0,0,267.18,131.49Zm-1,6.92a1,1,0,0,0-.51-1.18,1,1,0,0,0-.95.22c-.53.42-.71,1.31-.37,1.62s.65.1.88,0S266.07,138.89,266.22,138.41Zm2.06,3.86a.86.86,0,0,0-.77-.19.84.84,0,0,0-.62.7,1,1,0,0,0,.36.81c.21.24.74.69,1.07.52s.25-.59.25-.89A1.16,1.16,0,0,0,268.28,142.27Zm.07-6a.8.8,0,0,0,0-.78.92.92,0,0,0-.59-.51,1,1,0,0,0-.77.22c-.19.14-.51.48-.44.77A1.25,1.25,0,0,0,268.35,136.24Zm.14-6.18c.27-.12.34-.93,0-1.23s-1.5,0-1.5,0S268.07,130.24,268.49,130.06Zm-2.72-5.73a1,1,0,0,0,.6-.55.88.88,0,0,0-.25-1,1,1,0,0,0-.95,0,1.08,1.08,0,0,0-.55.6.79.79,0,0,0,0,.65A1,1,0,0,0,265.77,124.33Zm-4.65-6.65a.8.8,0,0,0-.65-.7.88.88,0,0,0-.7.35.91.91,0,0,0-.24.75.7.7,0,0,0,1.14.45A.94.94,0,0,0,261.12,117.68Zm-3.64,1.65c-.07-.35-.49-.53-.65-.6a1.54,1.54,0,0,0-1.15,0,1.56,1.56,0,0,0-.85.9,1.07,1.07,0,0,0-.05.9,1,1,0,0,0,.8.35,1.85,1.85,0,0,0,1.25-.55C257.14,120.06,257.55,119.72,257.48,119.33Zm-7.14-4.65c-.26-.29-1-.06-1.25,0a1.66,1.66,0,0,0-.8.65,1.25,1.25,0,0,0-.2,1,1.09,1.09,0,0,0,1,.7C250,117,250.76,115.15,250.34,114.68Zm3.9.42c-.12,0-.41.22-1,.73s-.57.51-.6.65a1,1,0,0,0,.6,1.1,1.11,1.11,0,0,0,1.19-.45C255,116.43,254.65,115.2,254.24,115.1ZM245.65,112a1,1,0,0,0-1,0c-.18.07-.64.27-.7.69a.93.93,0,0,0,.61.87,1,1,0,0,0,1.22-.35A1,1,0,0,0,245.65,112Zm-.23,4.73c.4-.52.5-.58.56-.61a1,1,0,0,1,.94,0,1,1,0,0,1,.32.85,1.68,1.68,0,0,1-.73,1.38,1.11,1.11,0,0,1-1,.24,1,1,0,0,1-.61-1C244.91,117.35,245.08,117.13,245.42,116.7ZM241,117a2,2,0,0,0,0-.93,1,1,0,0,0-.93-.53.9.9,0,0,0-.77.57c-.06.19,0,.27.25,1s.2.8.36.89a.78.78,0,0,0,.93-.2C240.84,117.74,240.9,117.65,241,117Zm-7.89-1.66c.12-.34-.2-.72-.25-.77a1.15,1.15,0,0,0-1.17-.37c-.07,0-.62.18-.69.61s.32.72.57.85C232.07,116,232.91,115.81,233.07,115.36Zm1-3.69a1.15,1.15,0,0,0,.36-.81,1.27,1.27,0,0,0-.36-1,1.08,1.08,0,0,0-.77-.32,1.1,1.1,0,0,0-.85.56,1.35,1.35,0,0,0,.53,1.75A1.08,1.08,0,0,0,234,111.67Zm-4.44,5.62c.21-.26,0-.86-.33-1.2-.54-.53-1.5-.47-1.73-.11,0,0-.08.12.1,1.09C229.43,117.47,229.6,117.29,229.6,117.29Zm-3.3,4.5c.27-.25.14-.76.1-.91a1.5,1.5,0,0,0-.85-1c-.26-.1-.81-.2-1.06.1a.85.85,0,0,0-.1.71,1.36,1.36,0,0,0,.5.8C225.27,121.8,226,122.09,226.3,121.79Zm-1.56-4.6a1.11,1.11,0,0,0-.05-1.16,1.24,1.24,0,0,0-.91-.6,1.32,1.32,0,0,0-.85.3c-.26.16-.56.35-.56.61s.26.42.45.55C223.3,117.21,224.34,117.66,224.74,117.19Zm-2.42,4a1,1,0,0,0,0-1.21,1.43,1.43,0,0,0-1-.46c-.11,0-1.09-.16-1.26.21-.07.17.06.38.2.6a2.07,2.07,0,0,0,.91.76C221.5,121.22,222,121.44,222.32,121.18Zm2.67,3.68c.17-.23,0-.61-.1-.8a1.3,1.3,0,0,0-1.11-.51c-.16,0-.73,0-.9.41a.73.73,0,0,0,.15.75c.19.23.47.26.9.31S224.82,125.1,225,124.86Zm-1.46,3.64a1.34,1.34,0,0,0,.3-1,1.54,1.54,0,0,0-1-1.06,1.31,1.31,0,0,0-1.15-.1,1.25,1.25,0,0,0-.61.91,1.74,1.74,0,0,0,1.56,1.66A1.25,1.25,0,0,0,223.53,128.5ZM231.86,150h0a1.56,1.56,0,0,0-1.26.36,1.19,1.19,0,0,0-.4.85,1,1,0,0,0,.54.94c.63.32,1.34-.36,1.43-.44a1.29,1.29,0,0,0,.45-.86.89.89,0,0,0-.19-.6.82.82,0,0,0-.35-.25m-5.51-6a1,1,0,0,0-.27-.9,1.21,1.21,0,0,0-.85-.32c-.2,0-1-.07-1.39.5a1.23,1.23,0,0,0-.09.85,1.31,1.31,0,0,0,.72.9,1.39,1.39,0,0,0,1.25-.32A1.17,1.17,0,0,0,226.57,143.9Zm2.91,4.21c-.27-.35-.94-.2-1.3,0a1,1,0,0,0-.53.63.77.77,0,0,0,.18.67.9.9,0,0,0,.85.27,1,1,0,0,0,.67-.49C229.51,148.94,229.73,148.42,229.48,148.11Zm-.09-2.56a1,1,0,0,0-.45-.71,1.19,1.19,0,0,0-1.52.13,1.09,1.09,0,0,0-.18,1.12,1.2,1.2,0,0,0,1.66.54A1.09,1.09,0,0,0,229.39,145.55ZM222.85,133a1.47,1.47,0,0,0-.49-1.57,1.71,1.71,0,0,0-1.88-.23,1.33,1.33,0,0,0-.76.85,1.25,1.25,0,0,0,.27,1,1.77,1.77,0,0,0,1.75.76A1.49,1.49,0,0,0,222.85,133Zm.23,3.67c0-.27-.07-.61-.32-.76s-.8.1-1.07.27-.85.53-.9,1.08a1.11,1.11,0,0,0,.54,1,1.32,1.32,0,0,0,1.57-.59A1.56,1.56,0,0,0,223.08,136.67Zm5.28,3c-.2-.19-.59-.09-1.39.09s-1.07.25-1.25.54a1,1,0,0,0,0,1c.28.43.87.41,1.16.41a1.71,1.71,0,0,0,1.35-.59C228.55,140.68,228.67,140,228.36,139.68ZM250,129.75c-.47,0-.78.44-1,.77a1.24,1.24,0,0,0-.31,1,.88.88,0,0,0,.54.62c.54.19,1.14-.33,1.39-.77a1.19,1.19,0,0,0,.15-.93A1,1,0,0,0,250,129.75Zm-.77,2.4c-.17.84-.81,2.59-1.16,4.17-.75,3.38-.88,3.35-1.08,4.79a25.42,25.42,0,0,1-.62,4.41,28.39,28.39,0,0,1-1.72,3.75m7.91-1.21a12,12,0,0,0-.79-4.7c-.4-.86-.76-1-1.15-1.94a7.34,7.34,0,0,1-.47-3.17,48.45,48.45,0,0,0-.15-6.49m4.9,13.08a24.5,24.5,0,0,0-.35-3.49,18.21,18.21,0,0,0-1.47-3.95,20.25,20.25,0,0,0-1.54-3.24,14.24,14.24,0,0,0-1.31-1.78M258,142.83a20.71,20.71,0,0,0-1.08-3.72,16.88,16.88,0,0,0-3.48-4.49,32,32,0,0,0-2.77-3.24m9.57,8.88a38.37,38.37,0,0,0-3-3.78,14.87,14.87,0,0,0-2.23-2.32,18.42,18.42,0,0,0-3.71-2.48m10.24,4.81a21.9,21.9,0,0,0-4.6-3c-.51-.27-.83-.41-2.55-1.24-1.14-.55-2.73-1.1-3.36-1.41m10.51.87a10.5,10.5,0,0,0-3.37-2.55,6.11,6.11,0,0,0-3.16-.08,15.75,15.75,0,0,0-4,1.76m7.14-5.34a20.34,20.34,0,0,0-4.24,1.5,15.94,15.94,0,0,0-3.09,3.4m1.16-6a13.05,13.05,0,0,0-1,2.45,20.11,20.11,0,0,0-.93,2.86m0,0c-.41-.88-1-2.2-1.31-2.7A8.59,8.59,0,0,0,247,125a13.27,13.27,0,0,0-2.34-1.63m4.6,6.55a8.56,8.56,0,0,0-3-2.91c-1-.42-1.61-.36-2.86-.85s-3-.88-3.62-1.37m9.26,5.77c-.56-.34-2-1.69-3.25-1.85a7.85,7.85,0,0,0-3.62.46c-2,.69-2.05,1.47-3.24,1.39a6.51,6.51,0,0,0-2.32-.07c-.33.07-1.28.16-1.46.23m13.34.31c-.27.43-1.17,1.86-1.77,2.63-1.35,1.73-2.12,2.24-2.55,3.47a5.55,5.55,0,0,0-.23,2.25c.09,1.75-.42,5.24-.68,9.2m5.78-18a6.51,6.51,0,0,0-4.25.31c-1.44,1-1.4,2.68-3.16,3.48-.78.36-1,.14-1.85.39-1.07.32-3.49,3-4.74,5.75m-38.39,47.73c.5.31,3,1.5,3.72,2.54a13.74,13.74,0,0,1,1.48,4.74m-3.08-8.3A14.05,14.05,0,0,0,202,190c1.92,1.09,5.26,0,5.5-.11m-22.1,17.28a19,19,0,0,1,1.13,3.5,26.71,26.71,0,0,1,.12,5m6.52-13.69a24.48,24.48,0,0,1,3.46,2.87c1,1.29,2.75,3.34,3,4.17m-7.25-5.42a11.06,11.06,0,0,0,1.57,3.59c1.13,1.83,4.15,3,4.64,3.11m-15.6-2.49a23.93,23.93,0,0,1,.81,3.57,7.61,7.61,0,0,0,.06,2.43,12.28,12.28,0,0,0,1,2.61m30.63-48.72a10.9,10.9,0,0,0,.73,3.47,4.32,4.32,0,0,0,.58.85c1,1.21,1.73,1.28,2.36,2.14a4.14,4.14,0,0,1,.65,1.82c.3,1.74-.46,2.15-.33,4.36a2.9,2.9,0,0,1-1.14,2.81c-1,1.13-.35,2.63-.52,5.44a10.55,10.55,0,0,1-.72,3.85c-.93,2.16-2.68,3.39-4.8,4.83-1.88,1.29-2.06,1.06-3.66,2.11-.9.58-2.33,1.63-6.94,7.1-3.33,3.94-3.24,4.18-4.36,4.89-2.3,1.47-3.09.73-7,2.33-3.68,1.5-3.5,2.37-6.25,3a36.85,36.85,0,0,1-5.71.47c-.37,0-1.87.08-3.88.08-1.58,0-4.11-.06-5.22-.11m46.21-49.42a9.84,9.84,0,0,0-3.32.16c-1.14.49-1.28,1.17-2.35,1.62s-1.13-.05-2.81.19a9.76,9.76,0,0,0-3.67,1.16,3.89,3.89,0,0,1-1.87.67h-.28c-1,0-1.45-.56-1.57-.43s.09.6.5,1a2.94,2.94,0,0,0,1.9.56c1.55.15.88.24,2.65.4a20.3,20.3,0,0,0,5.28,0,15.62,15.62,0,0,0,2.21-.49m-2-17.19A12.56,12.56,0,0,1,207.5,158a10.52,10.52,0,0,1-4.23,2.3,3.2,3.2,0,0,0-1.77.75,4.3,4.3,0,0,0-.81,1.52,8,8,0,0,1-1.5,2.2,19.41,19.41,0,0,1,2.38-1.25c1.36-.61,4.81-2.14,7.81-1.9a6.4,6.4,0,0,0,2.63-.26c.5-.17,2.07-.65,2.32-.8m-4.83,22a11.33,11.33,0,0,1-2.25-.86,26.93,26.93,0,0,1-2.68-1.83c-2.51-1.43-5.7.54-5.82.21s5.1-2.71,7.43-2.14a10.38,10.38,0,0,1,1.21.37c1,.39,1.27.71,2,1a4.54,4.54,0,0,0,1.93.23M198.11,152a13.28,13.28,0,0,0,.19,2.53,68,68,0,0,1,.23,9.85,2.54,2.54,0,0,0,.06,1c.3,1,1.1,1.07,1.33,1.83s-.4,1.13-.82,2.61a9.76,9.76,0,0,0-.27,2.36s-.11,2.51-.48,6.56c-.09,1-.24,3.2-.51,4.91m-2.66,7.38a7,7,0,0,1-3.73-.91c-.95-.81-.73-1.57-1.71-2.11s-1.65-.12-2.67-.81a3.23,3.23,0,0,1-.91-.92m11-3.11a15.56,15.56,0,0,1-4,.28,12.51,12.51,0,0,1-3.6-.87,12.23,12.23,0,0,1-2.37-1.29m10.18-3.86a23.88,23.88,0,0,1-3.65.68c-1.69.15-3.76.58-4.83.38m8.16-4.32a18.61,18.61,0,0,0-3.8-.1,17.66,17.66,0,0,0-3.28.81c-1.14.35-2,1.32-2.78,1.6m10.72-7.11a4.48,4.48,0,0,0-2.06.47c-1,.48-.87.91-2.17,1.78a7.14,7.14,0,0,1-2.48,1.08c-.3.07-1.31.1-1.48.12m8.39-6.35c-1.1,1-2,1.76-2.73,2.28a11.77,11.77,0,0,1-1.43,1c-1.47.75-2.25.4-2.94,1.17-.51.58-.21.94-.75,1.5s-1.47.5-2.36.81a5.2,5.2,0,0,0-3.43,2.47m9-19.78a22.47,22.47,0,0,0-1,2.46c-.39,1-.91,2.27-1.24,3a20.58,20.58,0,0,1-3.87,4.91m4.88-10.72c-.26.63-.46,1.28-.68,2a23.88,23.88,0,0,1-.85,2.87,15.21,15.21,0,0,1-2.54,3m7.82,1.14a11.93,11.93,0,0,0-3.86.58,23.29,23.29,0,0,1-2.21,1.13,5.32,5.32,0,0,1-3.15,0m2.72-11.91a5.06,5.06,0,0,0-.56,1.33c-.86,3,.83,3.75-.07,6.5-.23.71-.42.91-2.65,4.06-1.2,1.69-3.27,3.58-3.86,4.43m4-18.05c-.35.41-1.52.35-2.39.65a3.53,3.53,0,0,0-1.85,2.24c-.36.95-.18,1.35-.28,3a22.18,22.18,0,0,1-.66,4.16,48.19,48.19,0,0,1-1.68,5M179,144.85a19.82,19.82,0,0,0-.43,2.25,35.75,35.75,0,0,0-.23,3.67c-.09,3.06,0,5.16.07,8,0,1.73.1,4.32.15,7.53m-2.37-21.08c.08.28.29,1,.33,1.19a39.09,39.09,0,0,1,1,7.36c.21,3.11,1.3,11.78.87,13.81m-5.31-21.2a29.32,29.32,0,0,0,1.45,3.23c1.11,2.31,1.41,2.56,1.77,3.53a11.59,11.59,0,0,1,.43,4.8,63.22,63.22,0,0,0,.29,9.44M196.73,155a4.93,4.93,0,0,1,0,1.48m0,0c0,.12,0,.24-.05.38-.25,2-.47,3.23-.64,4.52-.23,1.79-.33,2.69,0,3.18.63,1,1.71.68,2.84,2,.32.38.9,1.09.71,1.72s-1.09.62-1.32,1.38c-.16.5.16.67.09,1.41,0,.53-.25.7-.61,1.45a6.64,6.64,0,0,0-.78,2.41,5.59,5.59,0,0,0,.25,2c.26.77.54,1,.44,1.38s-.65.54-1.2,1.26a2.72,2.72,0,0,0-.57,2c.07.32.2.44,1.28,1.56a9.13,9.13,0,0,1,1.53,1.79c.33.6.66,1.2.46,1.73-.26.72-1.18.51-2.49,1.46a3.58,3.58,0,0,0-1.52,1.87c-.19.77.21.93.27,2.22a5.7,5.7,0,0,1-.52,2.75c-.42.84-.68.72-1.08,1.48-.81,1.56-.28,3.11-.56,3.18s-.67-1.14-1.23-2.34a26.2,26.2,0,0,0-3-4.72,20.83,20.83,0,0,0-3.63-3.52m-5.2,5.18a11.62,11.62,0,0,1,1.1,3.06c.54,2.65-.17,4.12.54,6.86.24.92,1.82,2.75,2,3.2m-2.46-15a10.11,10.11,0,0,1,1.75,3.56c.44,1.67.2,2.64.4,4.62.11,1.13,1.49,3.93,2.22,5.92m-2-14.79a8.46,8.46,0,0,1,2.26,4.41c.25,1.59-.16,2.37.16,3.75.26,1.11,2.26,3,4.57,4.62m-18.6,9.17a14.54,14.54,0,0,1-.65-3.41,17,17,0,0,1,1.29-4.92c.88-2.45,1-2.35,1.12-3.21.13-1.34-.23-2-.07-3.75a10.45,10.45,0,0,1,.4-2.09m-7.45,17.82a20.59,20.59,0,0,1,.66-3c.88-1.92,1.55-2.19,2.26-3.64s.21-1.61,1.07-4.19c.5-1.54.78-1.77,1.38-3.41a25,25,0,0,0,1.07-3.92m-4.7-5a9,9,0,0,1-2.4,2.93c-.61.47-1,.67-4.15,2.07a17.76,17.76,0,0,0-3.72,1.86,7.1,7.1,0,0,0-2.34,2.48c-.6,1.18-.34,1.73-1.08,2.58s-1,.51-2,1.38a6.4,6.4,0,0,0-1.54,2.43c-.37,1-.21,1.26-.48,2.1a7.83,7.83,0,0,1-2.17,3.22m17.82-24.5a2.3,2.3,0,0,0-1.42.18c-.58.31-.71.79-1.33,1.53a5.27,5.27,0,0,1-1.43,1.25c-1.28.68-1.95-.17-3.37.41a6.4,6.4,0,0,0-1.95,1.56c-1,1-1.15,1.39-1.66,1.9a9,9,0,0,1-4.89,1.63m15.29-20.54a11.49,11.49,0,0,1-5.33.12c-2-.47-2.82-1.33-4.83-1.34-1.66,0-1.76.55-3.62.83-2.83.43-4-.7-7.67-1.15a30.43,30.43,0,0,0-6.16-.06m19.45-22.6c.52.92,5.13,8.73,5.92,10.09a31.35,31.35,0,0,0,2.65,4.22c1.82,2.07,3,2.24,4.31,4.11a9.62,9.62,0,0,1,1.57,4.05m-21-21.59c2,1.14,7.27,9,7.52,9.54.62,1.26.38,1.54,1,2.31.73.93,1.65,1.25,3.2,1.81,1.05.38,3.61,1.07,5.77,1.9m-41.29-.51a5.33,5.33,0,0,1,1.88.5c.72.33.88.88,1.52,1.43a4.19,4.19,0,0,0,2.16.91c2.13.34,4.27-1.61,4.57-1.88M129.83,164a8.24,8.24,0,0,0,1.42,1.41,8.52,8.52,0,0,0,5.69.42m-7-4.63a10.58,10.58,0,0,1,2.82.43,11.14,11.14,0,0,1,4.11,2.86m-1.39-12.82c.44,0-.54-.14,0,0,1.26.33,5.56,1.24,6.18,1.7m17.44-12.8c1.17.62,3.19,1.32,4.58,1.92,1.73.74,4.21,1.89,5.74,2.37m-7.56-8.23c1.26.66,3.28,1.49,4.54,2.17,1.53.83,3.57,2.42,5.06,3.24m-7.3-9.32c1.1.7,2.69,1.62,3.83,2.42,1.54,1.07,3.88,2.23,5.23,3.29m-7.95-9.73a32.22,32.22,0,0,1,3.27,2,36.25,36.25,0,0,1,5.13,5.06m-18.19,8.16a36.65,36.65,0,0,0,4.85,2.23,40.57,40.57,0,0,0,5.52,1.32m.57-23.35c.77.66,2.07,1.72,2.89,2.56a59.17,59.17,0,0,1,4,5.4M151,148.13c.85.22,2.89.58,3.79.78,1.7.39,4.88,1,6.45,1.21m5.93-31.3c.61.65,1.81,2,2.44,2.86.92,1.2,2.44,2.49,3,3.54m-7.87-18.51c1.24,1.8,4.33,6,5.63,9.39A43.36,43.36,0,0,1,173,128.55c.63,6.1.91,9.22-.61,12.32a15.62,15.62,0,0,1-4.63,5.36,28.1,28.1,0,0,1-14.18,5.88c-2.67.42-7.82,0-13-1M138,134.69c1-.55,2.41.35,3,.75a5.26,5.26,0,0,1,2,2.17,3.48,3.48,0,0,1,.38,2.6,3.62,3.62,0,0,1-1.64,1.75c-1,.68-1.78,1.25-2.74,1.09-1.59-.26-2.3-2.3-2.38-2.55-.5-1.43-.09-2.68.37-4.13C137.39,135.44,137.55,135,138,134.69Zm10,5.72a2.59,2.59,0,0,1,1.81.87,2.64,2.64,0,0,1,.63,1.6,2.37,2.37,0,0,1-.45,1.85c-.74.78-2.1.5-2.82.19-.27-.11-1.75-.8-1.79-2.12A2.6,2.6,0,0,1,148.06,140.41ZM157.81,130c1-.06,1.73,1.2,1.87,1.42a3.49,3.49,0,0,1,.42,2.32,4,4,0,0,1-1.78,2.46c-.69.51-1.54,1.14-2.34.84s-1.19-1.64-1.19-2.38a4.7,4.7,0,0,1,1.07-2.6C156.69,130.72,157.12,130,157.81,130Zm-8.23.84a4.16,4.16,0,0,1,2.67-.39,2.27,2.27,0,0,1,1.25.79,2.77,2.77,0,0,1,.15,2.41,5.36,5.36,0,0,1-1.89,2.68,5.63,5.63,0,0,1-3.59,1.65c-1.14,0-3.06-.42-3.56-1.82a3.29,3.29,0,0,1,.58-2.69C145.94,132.26,147.16,131.78,149.58,130.83Zm-5.11-6.52a2.46,2.46,0,0,1,2.25,1.8,2.84,2.84,0,0,1-.48,2.33,3.56,3.56,0,0,1-2,1.58c-.3.08-1.6.46-2.24-.21s-.17-2.09.09-2.78C142.41,126.19,143.08,124.36,144.47,124.31Zm-8-.92a3.33,3.33,0,0,1,2.48-.09,2.69,2.69,0,0,1,1.34,1,3.47,3.47,0,0,1,.24,2.54,4.93,4.93,0,0,1-.94,2.52,4,4,0,0,1-2.28,1.53,3,3,0,0,1-2.6-.45,3.09,3.09,0,0,1-.59-2.51C134.18,127.4,134.35,124.35,136.5,123.39Zm13.24-.48a2.94,2.94,0,0,1,2.69.58,3.54,3.54,0,0,1,1.19,1.62,2.8,2.8,0,0,1,.2,2.14,2.75,2.75,0,0,1-2.16,1.38,3.3,3.3,0,0,1-2.6-1.15,3,3,0,0,1-1-2.33A2.67,2.67,0,0,1,149.74,122.91Zm11.57-5a6.78,6.78,0,0,1,.64.38c.38,1.37-.06,1,.25,3a6.8,6.8,0,0,1,.09,3,4.32,4.32,0,0,1-1.51,2.24,2.69,2.69,0,0,1-2,.77c-1.42-.26-1.91-2.32-1.95-2.5a4.92,4.92,0,0,1,.47-3.1,7.18,7.18,0,0,1,1.51-2.25C159.6,118.65,161,117.64,161.31,117.93Zm-3.54-5.22c.56.41.45,1.42.38,2.07a6.31,6.31,0,0,1-1.59,3.4,4.9,4.9,0,0,1-2.32,1.75c-.28.08-2.18.65-3.1-.48a2.46,2.46,0,0,1-.06-2.67c.37-.61.72-.52,1.79-1.31,1.46-1.09,1.4-1.69,2.64-2.36C156,112.86,157.12,112.25,157.77,112.71Zm-15-.7a4.75,4.75,0,0,1,3,1.06,3.58,3.58,0,0,1,1.38,2.55,3.78,3.78,0,0,1-1.28,2.61,7.13,7.13,0,0,1-4.21,1.92,6,6,0,0,1-3.26-.08,3.14,3.14,0,0,1-2.05-1.53c-.43-1.09.36-2.29,1.2-3.55a6.22,6.22,0,0,1,2.26-2.32A5.56,5.56,0,0,1,142.81,112Zm14-7.43c.63.79-.24,2.42-.82,3.51a7.61,7.61,0,0,1-1.7,2.27c-.9.8-1.77,1.57-2.92,1.42a2.83,2.83,0,0,1-2.3-2.08c-.31-1.44.94-2.65,2-3.63a6.29,6.29,0,0,1,3.64-1.87C155.37,104.12,156.37,104,156.82,104.58Zm2.79-2.75c4.7,1.81,6.3,7.33,6.76,8.93a22,22,0,0,1,.64,6.82,38.87,38.87,0,0,1-1.24,9.3,28.87,28.87,0,0,1-4.38,10.36,45.48,45.48,0,0,1-4.3,5c-1,1-1.88,1.88-3.68,3.6-2.15,2.06-3.23,3.09-3.69,3.41a12.78,12.78,0,0,1-7.64,2c-5.47-.45-8.68-5-9.34-6-1.89-2.86-2-6-2.29-12.22-.23-5.55-.38-9,1-13.48.88-2.8,2.32-7.35,6.31-10.16.38-.27,1.58-.94,4-2.29,3-1.68,4.5-2.52,6.55-3.48,3.29-1.55,5-2.33,7.22-2.4A9.88,9.88,0,0,1,159.61,101.83Zm-31.46,92.61c-1,.74,2.18-1.39,3.06-1.68,1.83-.6,2.87-.3,5.76-.22s3-.21,6.24-.1c1.13,0,2.16.08,3.54.25s1.69.29,2.42.31a17,17,0,0,0,6.13-1.43m12.47,26.25c1.12-.53,10,.83,10.7.74,1.22-.17,1.72,0,2.9-.2a9.1,9.1,0,0,0,2.52-.92,32.41,32.41,0,0,1,5.28-1.65c2.92-.89,6.23-1.89,9.09-4.39,1.77-1.54,1.17-1.74,3.81-4.35a51.16,51.16,0,0,1,5.51-4.58c4.38-3.29,4.08-2.58,5.56-3.94s5.82-5.32,5.8-10.11c0-1.48-.43-2.62.26-4.22.4-1,1.41-1.41,1.82-3.37a6.86,6.86,0,0,0,.14-1.12m0,0a11.77,11.77,0,0,0-.6-3.87m0,0c-1.39-4.43-4.69-8.63-4.58-8.92m-77.85-16.75c-2.85-1.33-2.31,1.19-2.68,1.47-.77.61-1,2.86-1.59,4-.85,1.57-1.38,1.28-2.75,3.29a6.72,6.72,0,0,0-1.31,2.68,6,6,0,0,0,0,2.36,4.6,4.6,0,0,0-1.65,1.22,5.22,5.22,0,0,0-1,2.05,25.66,25.66,0,0,0-.82,4.52c-.07.63-.21,1.77-.4,3.24a4.4,4.4,0,0,0-1.26,1.45,4.88,4.88,0,0,0-.5,1.89c-.12,1.38.3,1.56,0,2.36s-.93.91-1.12,1.8a3.28,3.28,0,0,0,.23,1.6,18,18,0,0,0,1.16,2.52c.58,1.44.06,2.19.23,3.46.15,1.12.84,2.67,3.38,4.36a13.5,13.5,0,0,0,.28,4.19c.39,1.68.83,2,1,3.41.2,2.05-.56,2.5-.12,3.72s1.1.88,3,2.65,2.29,3.16,3.95,3.58c.77.2.92,0,1.62.26,1.31.52,1.34,1.47,2.52,2.56s1.61.51,4,2c1.5.92,1.49,1.25,2.59,1.68a13.34,13.34,0,0,0,3.25.53,29.13,29.13,0,0,1,4,.6c1.85.49,1.6.83,2.79,1s2.08-.08,5.86-1.14c2.66-.73,2.41-.61,3-.82,1.76-.57,5.24-2.75,8.34-5.56m-8.82-25.85a8.56,8.56,0,0,0-4.39.29c-1.4.5-2.54,1.43-4.83,3.27a15.47,15.47,0,0,1-2.39,1.85c-1.21.66-1.83.67-2.43,1.42-.72.92-.33,1.58-.92,2-1,.63-2.37-1-3.6-.39-.78.4-.49,1.21-1.35,1.78-1.13.75-2.27-.25-3.34.22-1.56.68-1.67,3.92-1.52,5.57.34,3.75,2.78,7.85,6,8.64a17.78,17.78,0,0,0,2.54.26c2.59.17,3.35,0,4.85.3a19.48,19.48,0,0,1,2.8,1.08c4.8,1.93,5.15,2,5.59,1.94,1.61-.13,1.76-1,4.33-1.34.75-.11.78,0,2.29-.16a24.61,24.61,0,0,0,4.17-.49c2.16-.56,2.4-1.68,5.23-3.5a25.52,25.52,0,0,1,4.47-2.19c4.31-1.8,8.45-2.67,9.39-4.21a14.22,14.22,0,0,0,1-2.74v0c0-.33-.11-.58.05-.67s.41.77.93,1.07a3.07,3.07,0,0,0,2.61-.1c2.79-1.14,4.59-4.92,4.93-5.64a2.44,2.44,0,0,1,.65-.92c.7-.61,1.41-.46,2.17-.78.28-.12.79-.39,1.77-1.94a19.89,19.89,0,0,0,2.09-4.57c.8-2.63.58-3.66,1.62-4.37.61-.42,1.12-.35,1.52-1s-.05-1.29.37-2.27c.11-.24.18-.3,1.73-1.83,1-1,1.16-1.16,1.21-1.53a2.46,2.46,0,0,0-.64-1.67c-.48-.7-.8-.74-1.21-1.44a2.87,2.87,0,0,1-.48-1.22c-.06-.71.33-1.25,2.14-3.44,1.08-1.31,1.14-1.36,1.21-1.6.32-1-.29-1.63-1.11-3.89a14.26,14.26,0,0,1-1.14-4.14m-70.3-7.3c-.2.72-4,5.21-4.27,6.08a23.83,23.83,0,0,1-1,2.38,20.61,20.61,0,0,0-1.13,2.78,8.51,8.51,0,0,0-.06,3c.14,1.73.38,1.93.94,5.22.36,2.17.33,2.53.25,2.89a2.4,2.4,0,0,0-.09,1.52,2,2,0,0,0,1.05.92c2.06,1.05,1.08.84,3.08,1.77a25.5,25.5,0,0,0,3.25,1.3,24,24,0,0,0,7.05,1c2.58,0,3-.34,6.82-.39a14.45,14.45,0,0,1,5.87,1.06m8.2-.22a4.34,4.34,0,0,0,1.1,1.63,4.65,4.65,0,0,0,2.37,1.14,3.74,3.74,0,0,0,3-.6,3.43,3.43,0,0,0,1.16-2.08m-4.73-5.08c-.21,0-.78.15-.78.15a2,2,0,0,0-.34,1,1,1,0,0,0,.66.85c.31.09.6-.1,1.17-.48s1.07-.71,1-1S177,175.76,176.31,175.86Z" transform="translate(-122.47 -45.66)"/><path class="cls-1" d="M318.52,77.35s-4.33,7.52-5.24,9M227,183.72a2,2,0,0,1,.45-.68c1-.8,1.08-.72,1.39-.75a1.78,1.78,0,0,1,1,.29,6.74,6.74,0,0,1,.69.8m-.57-.75a10.68,10.68,0,0,0,2.5-3.64,10,10,0,0,0,.35-5.78,13.42,13.42,0,0,0-1.63-4.49c-.63-1.09-2.44-4.4-3-5m.87,18.63c.26-2,.36-3.67.4-4.85a63.48,63.48,0,0,0-.32-8.24c-.13-1.48-.85-4.72-.95-5.54m.17,18.49a12.73,12.73,0,0,1-2-5.17c-.34-2.29.08-4.15.79-7.38.41-1.86.72-4.91,1.05-5.94M227.43,183a7.12,7.12,0,0,1-2.48-2,8,8,0,0,1-1.56-5.07c0-2.5.87-4.35,2.42-7.58.71-1.45,1.93-3.85,2.41-4.66m.23,20.16a10.54,10.54,0,0,0,4.2-1.56,9.56,9.56,0,0,0,3.86-5.1,9,9,0,0,0,0-6.17c-.16-.41-1.6-4.09-4.25-4.59a6.14,6.14,0,0,1-2.59-1.06,2.54,2.54,0,0,1-.89-1m-.32,19.44a9.92,9.92,0,0,1-4.07-1.11c-.91-.47-3.67-1.91-4.42-4.82-.67-2.58.61-4.86,1.41-6.28.49-.87.86-1.29,4-4.81a29.8,29.8,0,0,0,2.82-3.14m15.7,19.59a24.41,24.41,0,0,1,2-1.69,31.23,31.23,0,0,1,3.38-1.74m-5.23,4a24.6,24.6,0,0,0,2.8-.06,35.74,35.74,0,0,0,3.57-.53m-6.74.95,2.22,1.38c1,.63,2.69,1.13,3.68,1.76m-6.32-4.5q.21-.64.48-1.32a29.37,29.37,0,0,1,2-4.47m-2.94,4.94a12.48,12.48,0,0,1-.32-1.9,17.45,17.45,0,0,1,.21-3.22m-2.82.2c.29.61.67,2.13,1.08,2.81a22.13,22.13,0,0,0,1.85,2.59m-5.69-3.74c.62.6,2.29,1.64,3,2.26s1.73,1.35,2.53,1.9m-6.45-1.85c.77.33,2,.65,2.92.95,1.11.38,2.17.7,3.17,1m-6.17,1c.66-.18,1.87-.4,2.68-.52a18.62,18.62,0,0,1,3.59-.21m-5.32,2.9c.58-.38,2-.46,2.58-.85l2.69-1.74m-2.93,5.88c.34-.74.8-2.23,1.24-3s1-1.7,1.48-2.43m1.47.21a21.78,21.78,0,0,0,.53,2.43c.72,1.31,2.57,2.63,3.29,3.39m-4.59-5.62a9.29,9.29,0,0,0,.19,2.6,7.31,7.31,0,0,0,.74,1.68,21.21,21.21,0,0,0,1.43,2.31m-2.6-7a22.7,22.7,0,0,0-1.1,3.45c-.2.83-.09,2.53-.18,3.26m6.11-.65a6.61,6.61,0,0,1-5.1,1c-3.09-.69-4.54-3.48-5.25-4.83a6.91,6.91,0,0,1-1.1-4.68c.58-2.94,3.54-4.27,3.86-4.41,3.42-1.48,8.08,0,9.8,3.3a7.82,7.82,0,0,1,.27,5.79,6.73,6.73,0,0,1-2.48,3.86M164.08,97a151.72,151.72,0,0,1,13,30.59M165.24,96.15a2.1,2.1,0,0,0-.77-.26c-1.25-.06-1.29.08-1.57.24a1.74,1.74,0,0,0-.63.86A5.66,5.66,0,0,0,162.2,98m0-.94A10.76,10.76,0,0,1,158,95.71a10.06,10.06,0,0,1-3.8-4.38,13.85,13.85,0,0,1-1.42-4.56c-.17-1.25-.72-5-.65-5.75m10.61,15.34c-1.43-1.43-2.51-2.7-3.26-3.61A63.64,63.64,0,0,1,154.75,86c-.8-1.26-2.2-4.27-2.61-5m11.08,14.81a12.66,12.66,0,0,0-1.54-5.33c-1.12-2-2.58-3.26-5.1-5.39-1.45-1.23-3.56-3.47-4.44-4.09m12.33,14.87a7.19,7.19,0,0,0,.77-3.08,8,8,0,0,0-1.84-5c-1.49-2-3.32-2.93-6.52-4.56-1.44-.73-3.87-1.9-4.74-2.25m12,16.18a10.82,10.82,0,0,1-4.28,1.3,9.54,9.54,0,0,1-6.16-1.72A9,9,0,0,1,150,91.86c-.12-.42-1.21-4.22.59-6.22A6,6,0,0,0,152,83.23a2.54,2.54,0,0,0,.13-1.3m12,15.27a9.9,9.9,0,0,0,2.57-3.35c.44-.93,1.76-3.74.59-6.52-1-2.45-3.43-3.49-4.93-4.14-.92-.39-1.47-.49-6.13-1.38a31.34,31.34,0,0,1-4.14-.79m55.68,140.63c0,1.83.49,1,.66,4m-3.08-4.17c.09,1.93.73,1.48,1.07,4.17m-1.33-6.13s0,1.13.07,1.49a1.44,1.44,0,0,0,.86,1,1.6,1.6,0,0,0,1.75-.34,3.06,3.06,0,0,0,.19-2.37m-7.53-8.61c.35,1.43.66,3.09.82,3.91a8.62,8.62,0,0,0,.75,2.77,4.61,4.61,0,0,0,5.93,2.18,4.45,4.45,0,0,0,2.32-2.19,5,5,0,0,0,.34-2c0-1,.56-3.64.68-5.58m-4.61-4.12a17.51,17.51,0,0,1,1.57,2.72,22.25,22.25,0,0,1,.84,2.39m-3.57-4.81c0,1.32-.06,3.89-.09,5.21m-.86-5.41a18.62,18.62,0,0,0-1.33,2.11,17.19,17.19,0,0,0-1.56,2.88m2.35-5.54a11.91,11.91,0,0,0-1.35.53,7.44,7.44,0,0,0-1.34,1,9.81,9.81,0,0,0-.78.89c-.65.79-.72,1-.75,1.17a1.78,1.78,0,0,0,.14.94c.08.25.45,1.35,1.09,1.42.39,0,.62-.32,1-.18.18.08.19.21.35.38.47.49,1.37.35,1.81.29a3.57,3.57,0,0,0,1.26-.44,2.23,2.23,0,0,0,.64.34,3.47,3.47,0,0,0,3-.74,1.7,1.7,0,0,0,2.31-1.54c0-.48-.29-.83-1.09-1.56a34,34,0,0,0-3-2.62m-2-.7a2.6,2.6,0,0,0-.62.13c-.31.1-.55.18-.62.37s.21.72.56.91a1.91,1.91,0,0,0,1.14.06c.66-.07,1-.11,1.27-.4.05-.05.32-.36.23-.64C207.06,204.18,205.62,204.27,205.28,204.29Zm16.27,7.08c-1.05.8-2.53,2.33-3.66,3.34-1.41,1.25-3.5,3-4.59,4.19M224,215.53c-1.13.86-2.73,2.34-3.89,3.2-1.39,1-3.69,2.21-5.07,3.21m11.52-2.67c-1.09.7-2.6,1.74-3.81,2.44-1.62.95-3.66,2.57-5.18,3.34M229.68,222a31,31,0,0,1-3.19,2.12,36.57,36.57,0,0,1-6.74,2.5m.32-19.91a36,36,0,0,0-4.07,3.46,38.27,38.27,0,0,0-3.53,4.43m20.87,10.37c-.91.43-2.42,1.15-3.53,1.54a59,59,0,0,1-6.58,1.36m-5.12-27c-.55.67-1.75,2.37-2.31,3.09-1.06,1.38-2.93,4-3.82,5.33m25.79,18.59c-.84.27-2.61.77-3.62,1-1.47.32-3.28,1.15-4.48,1.24m20.07.7c-2.15.35-7.28,1.37-10.87,1.13a43.1,43.1,0,0,1-12.38-2.88c-5.78-2-8.72-3.07-10.88-5.75a15.55,15.55,0,0,1-2.88-6.45,28.13,28.13,0,0,1,.68-15.32c.75-2.6,3.33-7.06,6.41-11.35m15.93,4.62c.08,1.13-1.33,2-2,2.44a5.11,5.11,0,0,1-2.81.89,3.4,3.4,0,0,1-2.51-.75,3.58,3.58,0,0,1-.89-2.22c-.2-1.16-.37-2.13.17-2.94.91-1.32,3.06-1.1,3.32-1.08,1.5.16,2.46,1,3.57,2.09C235.35,193.9,235.72,194.26,235.75,194.81Zm-9.41,6.65a2.58,2.58,0,0,1-1.55,1.27,2.75,2.75,0,0,1-1.73-.1,2.32,2.32,0,0,1-1.47-1.19c-.39-1,.43-2.12,1-2.63a2.8,2.8,0,0,1,2.68-.73A2.6,2.6,0,0,1,226.34,201.46Zm5.29,13.23c-.36.91-1.82,1.06-2.08,1.09a3.43,3.43,0,0,1-2.27-.6,3.93,3.93,0,0,1-1.47-2.64c-.17-.84-.38-1.88.23-2.48s2-.39,2.66-.07,1.16.94,1.9,2.06C231.45,213.37,231.89,214,231.63,214.69Zm2.72-7.8a4,4,0,0,1-.77,2.57,2.25,2.25,0,0,1-1.24.8,2.77,2.77,0,0,1-2.25-.88,5.34,5.34,0,0,1-1.62-2.84,5.59,5.59,0,0,1,0-3.94c.48-1,1.69-2.59,3.16-2.46a3.25,3.25,0,0,1,2.18,1.66C234.61,203,234.52,204.29,234.35,206.89Zm8.07-1.87a2.47,2.47,0,0,1-2.58,1.27,2.91,2.91,0,0,1-1.91-1.41,3.55,3.55,0,0,1-.58-2.48c.05-.31.26-1.63,1.13-1.93s2,.72,2.48,1.25S243,203.73,242.42,205Zm4.2-6.84a3.32,3.32,0,0,1-1,2.29,2.71,2.71,0,0,1-1.52.77,3.45,3.45,0,0,1-2.4-.86,4.84,4.84,0,0,1-1.88-1.91,4,4,0,0,1-.42-2.71,2.93,2.93,0,0,1,1.51-2.17,3.07,3.07,0,0,1,2.51.54C244,194.4,246.67,195.83,246.62,198.18Zm-5.17,12.2a2.94,2.94,0,0,1-1.66,2.18,3.59,3.59,0,0,1-2,.39,2.25,2.25,0,0,1-2.34-3.25,3.24,3.24,0,0,1,2.13-1.87,3,3,0,0,1,2.53.1A2.64,2.64,0,0,1,241.45,210.38ZM241.06,223c-.11.05-.56.43-.62.42-1.4-.24-.9-.49-2.79-1a6.78,6.78,0,0,1-2.8-1.2,4.43,4.43,0,0,1-1.4-2.32,2.72,2.72,0,0,1,.17-2.16c.83-1.17,2.91-.75,3.09-.71a4.9,4.9,0,0,1,2.6,1.74A6.88,6.88,0,0,1,240.7,220C241.13,221.09,241.48,222.74,241.06,223Zm6.22-1c-.61.34-1.48-.19-2-.52a6.21,6.21,0,0,1-2.4-2.88,4.82,4.82,0,0,1-.6-2.84c0-.29.34-2.25,1.74-2.6a2.46,2.46,0,0,1,2.45,1.07c.4.59.17.87.43,2.18.36,1.78.93,2,1,3.38C247.9,220.27,248,221.55,247.28,221.94Zm7-13.24a4.64,4.64,0,0,1-2.21,2.23,3.53,3.53,0,0,1-2.89.18,3.7,3.7,0,0,1-1.81-2.26,7.09,7.09,0,0,1,0-4.63,5.93,5.93,0,0,1,1.45-2.91,3.13,3.13,0,0,1,2.25-1.21c1.17.07,1.92,1.3,2.71,2.58a6.2,6.2,0,0,1,1.13,3A5.53,5.53,0,0,1,254.24,208.7Zm.8,15.82c-1,.23-2.1-1.24-2.84-2.23a7.41,7.41,0,0,1-1.33-2.49c-.34-1.15-.67-2.27-.05-3.25a2.86,2.86,0,0,1,2.86-1.2c1.43.33,2,2,2.45,3.3a6.32,6.32,0,0,1,.15,4.09C256.06,223.4,255.74,224.35,255,224.52Zm3.5-16.5c.06.76.44.29.55,1.81.25,3.42.38,5.13.38,7.4,0,3.63,0,5.49-.89,7.55a10,10,0,0,1-2.24,3.43c-3.63,3.49-9.3,2.6-10.94,2.34a21.84,21.84,0,0,1-6.44-2.3,38.61,38.61,0,0,1-7.89-5,29,29,0,0,1-7.51-8.34,44.79,44.79,0,0,1-2.69-6c-.51-1.3-.91-2.48-1.7-4.84-.95-2.82-1.43-4.23-1.52-4.78a12.86,12.86,0,0,1,1.37-7.78c2.73-4.76,8.21-5.74,9.4-5.92,2.6-.39,6.06.25,9.61,1.66m7.4,3.6a25.53,25.53,0,0,1,6.77,4.46c.7.64-.15-.28.7.64M321.64,73.57a7,7,0,0,0-1,1.82,13,13,0,0,0-.58,2.47m-1.93-1.46a7,7,0,0,1,1.38-1.86,6.66,6.66,0,0,1,1.68-1.21m-4.5-1.3,4.59.84m-3.18-2.78,3.73,2.32m.33,1.31c.27,1,.7,2.63,1,3.63m-.6-3.7,3,2.5m1.48-2c-.73-.22-2.13-.23-2.87-.45l-1.46-.42m4.55-1.2c-.69.16-1.85.25-2.54.41l-2.06.48m4.2-3.26c-.47.33-1.71.61-2.2,1a26.33,26.33,0,0,0-2.08,1.85m1.58-5.08c-.21.41-.27,1.38-.48,1.8-.52,1-1,2.06-1.46,3.07m-.31,0a15.13,15.13,0,0,1-.14-1.6,23.2,23.2,0,0,1,0-3.42m5.55,3.41a5.58,5.58,0,0,1-.25,3.35,6.32,6.32,0,0,1-4.3,3.65,5.26,5.26,0,0,1-4.69-1,5.09,5.09,0,0,1-1.37-4.2,6.33,6.33,0,0,1,3.54-4.67,5.27,5.27,0,0,1,3.94-.44,4.92,4.92,0,0,1,2.7,2.22,4.65,4.65,0,0,1,.43,1.09m-18.89,140,3.93-2.77a22.84,22.84,0,0,1-2,1.69,8.47,8.47,0,0,1-1.92,1.08m3.77-3.35a24.43,24.43,0,0,0-2.79.06,32.88,32.88,0,0,0-3.58.53m6.74-1-2.22-1.37c-1-.63-2.68-1.13-3.67-1.76m6.31,4.5c-.13.43-.29.87-.47,1.32a30.38,30.38,0,0,1-2,4.47m2.74-5.72a22.67,22.67,0,0,1,.51,2.67,20.74,20.74,0,0,1-.32,3.65m2.93-.62c-.29-.61-.67-2.13-1.08-2.82a21.63,21.63,0,0,0-1.85-2.58m5.69,3.74c-.61-.6-2.29-1.64-3-2.26s-1.73-1.35-2.53-1.9m6.45,1.84c-.77-.32-2-.64-2.92-.94-1.11-.39-2.17-.7-3.16-1m6.17-1.06a26.16,26.16,0,0,1-2.69.53,18.62,18.62,0,0,1-3.59.21m5.32-2.91c-.57.39-2,.47-2.58.86l-2.68,1.74m2.92-5.88c-.33.74-.79,2.22-1.24,3s-1.25,1.7-1.74,2.42m-1.21-.21a20,20,0,0,0-.53-2.42c-.72-1.32-2.56-2.63-3.29-3.4m4.59,5.63a8.59,8.59,0,0,0-.19-2.6,7.15,7.15,0,0,0-.74-1.69,20.47,20.47,0,0,0-1.42-2.3m2.59,6.59a16.65,16.65,0,0,0,1.11-3c.19-.83.09-2.54.17-3.26m-8.47,9.61a8.4,8.4,0,0,1-.12-5.11,6.81,6.81,0,0,1,2.48-3.86m0,0a6.61,6.61,0,0,1,5.11-1c3.08.69,4.53,3.47,5.24,4.82a6.89,6.89,0,0,1,1.1,4.69c-.58,2.94-3.54,4.27-3.86,4.41a7.65,7.65,0,0,1-7.09-.55M172.6,86.6c1,1.19.36,1.48,1.92,3.57,4.52,6,7.44,10,10.24,15.2,2.23,4.19,3.58,7.83,6.28,15.12,1.32,3.55,2.81,7.13,3.5,9.22M183.1,117.87c.66,1.71,1.84,4.73,3.1,7.39,0,0,.45,1,.91,1.87m-6.34-8.55c.82,1.75,2.94,5.32,4.26,7.69,1.14,2-.58-.92.47.74m-5.69-10.15s.42,1,.61,1.36a1.47,1.47,0,0,0,1.19.62,1.6,1.6,0,0,0,1.49-1,3.06,3.06,0,0,0-.7-2.27m-10.21-5.18c.85,1.2,1.77,2.62,2.22,3.32a8.44,8.44,0,0,0,1.73,2.29,4.88,4.88,0,0,0,2.59,1.14,5,5,0,0,0,3.73-1.32,4.58,4.58,0,0,0,1.33-2.91,4.89,4.89,0,0,0-.44-2c-.33-.92-.85-3.59-1.47-5.43m-5.81-2.1a17.58,17.58,0,0,1,2.48,1.93,23,23,0,0,1,1.67,1.9m-5.11-3.13c.47,1.24,1.4,3.64,1.87,4.87m-2.83-4.7a19.29,19.29,0,0,0-.44,2.46,17,17,0,0,0-.37,3.25m.11-6a11.63,11.63,0,0,0-1,1,6.37,6.37,0,0,0-.89,1.4,8.66,8.66,0,0,0-.39,1.11c-.31,1-.29,1.2-.26,1.36a1.78,1.78,0,0,0,.48.83c.17.19.92,1.08,1.54.9.38-.1.46-.53.83-.52.2,0,.26.12.47.22.62.27,1.4-.19,1.79-.41a3.79,3.79,0,0,0,1-.88,2.42,2.42,0,0,0,.71.09,3.5,3.5,0,0,0,2.53-1.83,1.6,1.6,0,0,0,.86-.24,1.81,1.81,0,0,0,.71-2c-.18-.44-.59-.66-1.6-1a34.63,34.63,0,0,0-3.79-1.29m-2.14.1a2.42,2.42,0,0,0-.53.35c-.25.22-.44.38-.44.58s.46.59.86.63.57-.09,1.08-.36.9-.48,1-.85c0-.07.16-.46,0-.68C175.87,102,174.57,102.57,174.26,102.71Zm103,84.46c-.38,1.08-1.18,3-1.68,4.81a46.27,46.27,0,0,0-1.4,6.19,33.89,33.89,0,0,0,.36,9.32m-2.67-24.11a22,22,0,0,1,1.22,3,23.55,23.55,0,0,1,.43,8.18,63.54,63.54,0,0,0,.71,13.81M266.11,188a11,11,0,0,1,3.13,2.56c1,1.29,1.17,2.48,1.86,6.07.33,1.71.73,3.74,1,4.95.39,1.72,2,7.42,1.92,7.15m-2.38,13.52a1.4,1.4,0,0,1-.75-.49,1.55,1.55,0,0,1-.23-.77,3.91,3.91,0,0,0-1.06-2.1,4.64,4.64,0,0,0-1.87-1.2c-3.1-1.47-3.39-1.52-4.07-2a10.21,10.21,0,0,1-2.45-2.31,14.84,14.84,0,0,1-2.68-5.42c-1.73-5.56-3-5.4-6.45-14.32-.62-1.59-2.46-6.36-1.85-4.77a1,1,0,0,1,.34-.68c.11-.07.4-.24,1.23.05a4.72,4.72,0,0,1,1.59.93,17.94,17.94,0,0,0,4.34,2.73c1.7.8,1.74.28,3.54,1s1.38,1.13,4.14,2.83l.54.33m0,0c1,.6,3,1.91,4.49,3a2.32,2.32,0,0,1,.36.31,3.14,3.14,0,0,1,.69,2.1c0,.88.67,3.55,2.41,8.53M266.11,188a.88.88,0,0,0,.23-.78,1,1,0,0,0-.58-.62c-.07,0-.6-.29-.9,0s-.17.79,0,1.07a1,1,0,0,0,.65.55A.83.83,0,0,0,266.11,188Zm6.31-5.18c.13-.25.31-.61.13-.9a.77.77,0,0,0-.83-.25.83.83,0,0,0-.58.48.87.87,0,0,0,.17.81c.08.11.29.42.57.4S272.31,183.05,272.42,182.84Zm4.85,4.33a.71.71,0,0,0,.64-.37.79.79,0,0,0-.11-.78.87.87,0,0,0-.6-.41.76.76,0,0,0-.69.23.83.83,0,0,0,.05.91A.86.86,0,0,0,277.27,187.17Zm25.89,6.09a1,1,0,0,0-.55.5,1,1,0,0,0,.73,1.24,1,1,0,0,0,.75-.28,1.14,1.14,0,0,0,.27-1,.83.83,0,0,0-.4-.58A.92.92,0,0,0,303.16,193.26Zm-9.81,6.79a23.72,23.72,0,0,1,4.81-3.83,18,18,0,0,1,4.48-1.82m3.68,15.83c-1.18.3-3,1-4.34,1.48s-3,1.09-4,1.6m12.56-1.66c-2.17.76-4.75,1.44-5.94,1.84a36.55,36.55,0,0,0-4.58,1.69c-.76.35-1,.52-2.56,1.31s-3.68,1.67-4.54,2.09m-21.25,3.69c1.83-.15,5.6-.31,8.42-1.84,4.63-2.52,6.82-6.41,8.82-10.08a64.45,64.45,0,0,0,6.35-18.89,1.71,1.71,0,0,0-.66-1.34,1.62,1.62,0,0,0-1-.2,4.85,4.85,0,0,0-2.15.67c-2.19,1.37-6,1.66-9.19,4-1.82,1.36-3.53,2.71-5.65,8a72.35,72.35,0,0,0-4.64,17.3m0,0c-.11.79-.2,1.58-.28,2.39m0,0a18.91,18.91,0,0,0,6.29,2.89,14.41,14.41,0,0,0,8-.95c2.63-1.06,3.95-2.45,7.95-6.64,4.26-4.47,8.62-8.85,12.79-13.4a2.24,2.24,0,0,0-.09-1.47c-.5-1-1.91-1.32-2.82-1.48-4.94-.89-7.41-1.33-9.26-1.21,0,0,.43-.23-1.14,0m-21.7,22.22c1.68,1,4.71,3.13,8.18,3.79a27.12,27.12,0,0,0,9.23,0,31,31,0,0,0,12.3-5.07c5.95-3.86,6.81-6.94,9.2-8.54.07-.05.27-.18.28-.37,0-.89-4.86-2.27-9.14-2.65M324,89.54a1.93,1.93,0,0,1,.8-.15c1.24.11,1.27.25,1.52.45a1.76,1.76,0,0,1,.51.93,6.81,6.81,0,0,1-.07,1.06m.13-.94a10.6,10.6,0,0,0,4.34-.8,10.11,10.11,0,0,0,4.35-3.83,13.59,13.59,0,0,0,2-4.33c.33-1.21,1.39-4.83,1.43-5.6m-12.6,13.76A47.73,47.73,0,0,0,330.14,87a64.75,64.75,0,0,0,5.62-6c1-1.14,2.75-3.93,3.26-4.58M326,89.5a13,13,0,0,1,2.25-5.07c1.39-1.86,3-2.88,5.79-4.65,1.61-1,4-3,5-3.45M324.78,89.39a7.26,7.26,0,0,1-.35-3.16,8.06,8.06,0,0,1,2.5-4.68c1.75-1.78,3.7-2.46,7.08-3.63,1.53-.53,4.09-1.37,5-1.59m-.12.9a2.3,2.3,0,0,0-.06,1.3,6.18,6.18,0,0,0,1.08,2.59c1.52,2.22-.08,5.83-.26,6.24a8.94,8.94,0,0,1-4.37,4.36,9.57,9.57,0,0,1-6.34.87,10.84,10.84,0,0,1-4.07-1.86s-5.65,6.46-6,7m6-7a10.15,10.15,0,0,1-2.08-3.67c-.31-1-1.24-4,.29-6.54,1.36-2.29,3.88-3,5.46-3.43,1-.27,1.52-.29,6.25-.54a30.15,30.15,0,0,0,4.22-.22M243.37,148c-1.65-.56-2-.12-3-.63-1.39-.71-1-1.7-2.53-2.69-1.31-.85-2.13-.46-2.7-1.26s-.21-1.33,0-2.85a30.6,30.6,0,0,0,.16-6.48c-.06-1-.17-1.91-.16-3.48s.14-2.35.64-3a3.24,3.24,0,0,1,1.58-1.1,1.87,1.87,0,0,1,0-1.59,2,2,0,0,1,2.53-.63c.49-1.46,1.12-1.91,1.59-2.05.81-.26,1.18.38,3.32.63.68.08,1.89.16,1.9.16a4,4,0,0,1,2.06-.79,3.3,3.3,0,0,1,2.21.47,3.12,3.12,0,0,1,1.11,1.27,11.9,11.9,0,0,1,3,0c1.42.18,2.43.3,3.16,1.1a3.38,3.38,0,0,1,.8,2.22,4,4,0,0,1,2.21,2,7.74,7.74,0,0,1,.32,3l.16,2.84-1.59,3.48a6.42,6.42,0,0,1,0,3.32c-.15.54-.42,1.55-.95,1.58s-.82-.5-1.1-1.26c-2.18.84-2.84,1.79-3,2.53-.13.56,0,1-.32,1.58a2.81,2.81,0,0,1-2.05,1.11s-1.08.92-1.59,1.26c-1.6,1.09-4,.89-5.54.32C244.53,148.69,244.63,148.41,243.37,148Zm-63.34-4a20.79,20.79,0,0,1,3.12-2,35.74,35.74,0,0,1,7.06-1.57c4.37-.66,7.72-.86,8.75-.92a54.64,54.64,0,0,1,15,.84m-1-1.59c-1.46-.24-5.22,0-7.82-.18a117,117,0,0,0-12.82-.11c-5.6.16-8.43.24-10,.71-4.16,1.25-5.59,4.23-7.37,6.06m27.15-9.66c-1.15-.47-1.55-.21-3.38-.58a26.2,26.2,0,0,0-6-.49,35,35,0,0,0-8.09,1.58,55.52,55.52,0,0,0-7.93,2.55c-.88.37-3.44,1.37-4.14,1.73m25.57-8.66c-2.72-.1-5.66.19-7.42.25a54.41,54.41,0,0,0-5.7.44,38.4,38.4,0,0,0-6,1.25,32.38,32.38,0,0,0-5.2,1.58m42.8,7.88a42.5,42.5,0,0,0-6.41-.45c-4.22-.19-4.82.46-11.16.74-3.8.17-5.92,0-9.07.71-.35.07-2,.84-5.35,2.37a6.57,6.57,0,0,0-1.74,2.07c-.07.18.38-.58.37-.47m35.43-4.25c-1.5-.17-3.18.36-5.73.28a31.59,31.59,0,0,0-5.77.11,26,26,0,0,0-6.8,2.08,47,47,0,0,0-7.4,4.16,5.19,5.19,0,0,0-1.56,1.52,7.64,7.64,0,0,0-.5,1.78m29.68-8.31A32,32,0,0,0,215,145c-1.28,0-1.44.14-7.32,1.15,0,0-.53.09-5.84,1.45a4.76,4.76,0,0,0-2.68,1.56c-.24.31-.27,1.42-.36,1.62m29.63.39c-1.72-.77-5.76-2.11-6.82-2.48a7.78,7.78,0,0,0-1.81-.48,8,8,0,0,0-3.25.36,35.82,35.82,0,0,0-3.51,1.57,12.79,12.79,0,0,1-2.89,1c-1.46.27-1.5-.07-3.26.12a22,22,0,0,0-3.86.85l-1.28,1.2m115.34,5.87c-2.28-.6-5.17-1.31-8.56-2-4.31-.92-6.47-1.38-8.9-1.68-7.94-1-11,.31-15.07-1.47-.06,0-1.85-.8-4.28-1.82a29.24,29.24,0,0,0-3.79-1.47c-2-.52-2.78-.29-5.12-.56a27.41,27.41,0,0,1-5.18-1.12m53.21,2a11.65,11.65,0,0,0-3.51.21c-2.07.44-2.88,1.22-4.9,1.75a14.07,14.07,0,0,1-4.21.35c-3.34-.06-4.85-.8-8.62-1.61a68.78,68.78,0,0,0-7.79-1.12c-2.59-.27-3.1-.22-9.32-.7-3-.23-4.52-.35-5.19-.42a51,51,0,0,1-11.36-2.66m43.75-57.6c-1.87,1.9-4.88,5.13-8.21,8.86-3.72,4.15-4.75,5.59-7.86,9-3.54,3.86-6.31,6.48-9.52,9.51-3.41,3.22-7.85,7.24-13.27,11.71m37.25-40.51c-1.07,1.27-3.55,3.67-5.41,6-2,2.58-2.26,3-3.93,5.11-2.86,3.66-5.22,6.31-7.44,8.8-2.47,2.78-3.7,4.16-5.35,5.77-2.42,2.34-4.05,3.59-6.31,5.47s-5.58,4.72-9.4,8.38m34.11-44a21.19,21.19,0,0,1-1.73,3.94,16,16,0,0,1-3.06,3.55c-4.21,4.08-3.95,3.7-4.3,4.13-1.42,1.77-.81,1.93-3.23,6.78-1.85,3.72-2.13,3.48-3.06,5.87-.75,1.94-.81,2.74-1.74,3.81-1.15,1.32-2.36,1.58-4,2.39a38.55,38.55,0,0,0-5.63,4.13c-3.88,3.11-6.82,5.9-9.84,8.77-1,.93.53-.53,0,0m26.07-51.11c-.83,1.46-1.9,3.55-2.41,4.32-.85,1.3-1.28,1.84-2.4,3.56-.8,1.23-1.2,1.85-1.49,2.39a17.07,17.07,0,0,0-1.49,4.63,65.88,65.88,0,0,1-3.31,7.11c-1.65,3.35-2.48,5-3.47,6.78-.48.84-.91,1.55-1.57,2.81-1.09,2-1.35,2.78-2.07,4.22a35.16,35.16,0,0,1-3.56,5.78,35.51,35.51,0,0,1-4.31,5.11m23.87-45.78c-.54.2-1.37,1.9-2.1,2.65a7.19,7.19,0,0,0-1.57,2.89c-.57,1.55-.41,1.85-.91,3.22a18.31,18.31,0,0,1-1.49,2.9l-2.57,4.38a51.42,51.42,0,0,0-3.72,7.69c-1.65,4.05-1.2,4.2-2.65,7.19a27.79,27.79,0,0,1-3.47,5.7c-1.48,1.83-2.26,2.26-3.81,4.3a54.89,54.89,0,0,0-3.63,5.41m15.58-50.08c-.53.72-2.09,2-2.6,3.5-.94,2.73-.32,4.13-.75,7-.19,1.29-.92,3.07-2.4,6.61-1.69,4.07-1.84,3.88-3.14,7.11-1.86,4.61-2.8,6.92-2.57,8.76a8.91,8.91,0,0,1,0,4.14,21.9,21.9,0,0,1-1.24,2.64c-1,2.13-1.43,3.19-1.49,4.3s.29,1.85-.16,2.81c-.33.7-2.7,2-3.08,2.26m42.56-54.83c-.63,1-2,2.82-2.81,3.94s-1.93,3.51-2.73,4.36m-3.76-20.86c-.21.61-.87,2.95-1.33,4a37.07,37.07,0,0,1-3.35,6,89,89,0,0,0-6,10.11M263.44,48.34c-.2.4-1.38,2.07-1.77,2.84-.51,1-.63,1.19-.78,1.56a7.25,7.25,0,0,0-.45,2.68c-.07,1.27-.52,2.14-1.67,4.35-2.13,4-4,7.41-4.81,9a59.43,59.43,0,0,0-3.9,8.82,66.34,66.34,0,0,0-2,7.81c-1.19,5.34-1.79,8-1.9,10.7a15.1,15.1,0,0,1-.45,4c-.44,1.58-.93,2.08-.89,3.35s.44,1.27.89,3a25.29,25.29,0,0,1,.45,4c.07,1.06.16,2.46.22,4.12" transform="translate(-122.47 -45.66)"/><path class="cls-1" d="M172.56,261.54l-1.88-2.18" transform="translate(-122.47 -45.66)"/><path class="cls-1" d="M172.59,260.14a7.06,7.06,0,0,1-2-2.19,8.36,8.36,0,0,1-.85-1.95" transform="translate(-122.47 -45.66)"/><path class="cls-1" d="M173.22,258.15a4.73,4.73,0,0,1-1.76-1.34,6.33,6.33,0,0,1-1.05-1.81" transform="translate(-122.47 -45.66)"/><path class="cls-1" d="M174.33,256.76a4.81,4.81,0,0,1-1.76-1.34,6,6,0,0,1-1-1.81" transform="translate(-122.47 -45.66)"/><path class="cls-1" d="M174.33,256.76a4.81,4.81,0,0,1-1.76-1.34,6,6,0,0,1-1-1.81" transform="translate(-122.47 -45.66)"/><path class="cls-1" d="M175.93,255.41a4.89,4.89,0,0,1-1.76-1.34,6.26,6.26,0,0,1-1-1.81" transform="translate(-122.47 -45.66)"/><path class="cls-1" d="M177.65,255.54a4.79,4.79,0,0,1-1.75-1.34,6.1,6.1,0,0,1-1.05-1.81" transform="translate(-122.47 -45.66)"/><path class="cls-1" d="M179.42,255.68a5,5,0,0,1-1.76-1.34,6.06,6.06,0,0,1-1-1.82" transform="translate(-122.47 -45.66)"/><path class="cls-1" d="M181.55,255.84a4.91,4.91,0,0,1-1.75-1.34,6.1,6.1,0,0,1-1.05-1.81" transform="translate(-122.47 -45.66)"/><path class="cls-1" d="M183.64,257.05a4.79,4.79,0,0,1-1.75-1.34,6.1,6.1,0,0,1-1-1.81" transform="translate(-122.47 -45.66)"/><path class="cls-1" d="M187.3,260.57l-1.39-2.67" transform="translate(-122.47 -45.66)"/><path class="cls-1" d="M189.62,261.81l-1.88-2.18" transform="translate(-122.47 -45.66)"/><path class="cls-1" d="M184.83,257.7,183,255.53" transform="translate(-122.47 -45.66)"/><path class="cls-1" d="M179.38,277.32a15.22,15.22,0,0,0,.31-4.33c-.12-1.13-.68-2.49-1.08-2.44-.55.07-.61,2.73-.62,3.09a14.44,14.44,0,0,0,.57,3.52C179,277.69,179.31,277.5,179.38,277.32Z" transform="translate(-122.47 -45.66)"/><path class="cls-1" d="M250.8,275.32s-7.83-5.25-13.49-17.17c-6.61-13.94-33.14-32.93-36.83-33.61" transform="translate(-122.47 -45.66)"/><path class="cls-1" d="M258.16,308.57c.82,12.87-4.91,38.59,5.62,67" transform="translate(-122.47 -45.66)"/><path class="cls-1" d="M214,437.6s83.18-21.31,100.79-90.15-1-120.89-7.3-131.61" transform="translate(-122.47 -45.66)"/><path class="cls-1" d="M286.71,226.27C287,225,336.57,327,269.52,410.54" transform="translate(-122.47 -45.66)"/><path class="cls-1" d="M264.77,276.46" transform="translate(-122.47 -45.66)"/><path class="cls-1" d="M226.49,229.06" transform="translate(-122.47 -45.66)"/><path class="cls-1" d="M214,437.6s211.66,34.7,124.6-231.19" transform="translate(-122.47 -45.66)"/><path class="cls-1" d="M245.4,230.55c1.39,3.2,51.65,57.44,52.56,125.8" transform="translate(-122.47 -45.66)"/><path class="cls-1" d="M264.22,301.71s2.14,48.82,6.82,53.93" transform="translate(-122.47 -45.66)"/><path class="cls-1" d="M322.94,208.76S359.89,320,330.63,383.47" transform="translate(-122.47 -45.66)"/><path class="cls-1" d="M298,222s24,87.44,18.44,118.81" transform="translate(-122.47 -45.66)"/><path class="cls-1" d="M226.49,229.06s31.65,41.15,49.15,46" transform="translate(-122.47 -45.66)"/><path class="cls-1" d="M266.88,271.18s14.52,41.12,12.81,48.52" transform="translate(-122.47 -45.66)"/><path class="cls-1" d="M271,224.69s28.82,80.74,33.25,87.14" transform="translate(-122.47 -45.66)"/><path class="cls-1" d="M288.57,305.39s-5.93,74.66-4.78,84.22" transform="translate(-122.47 -45.66)"/><path class="cls-1" d="M277,334s-2.25,70.4-23.47,86.88" transform="translate(-122.47 -45.66)"/><path class="cls-1" d="M331.52,240.3c.08-1.74.1,134.65-9.34,155.55" transform="translate(-122.47 -45.66)"/><path class="cls-1" d="M329.34,336.31s-18.47,69.9-34.85,86.17" transform="translate(-122.47 -45.66)"/><path class="cls-1" d="M230.12,432.08s56.15-7.55,81.36-40.87" transform="translate(-122.47 -45.66)"/><path class="cls-1" d="M262,226.59s23.39,58.58,32.45,61.86" transform="translate(-122.47 -45.66)"/><path class="cls-1" d="M301.28,426s17.63,16,52.93,10.48c0,0-20.46-16.21-10.16-51" transform="translate(-122.47 -45.66)"/><path class="cls-1" d="M315.92,417.24s17.43,19.27,38.29,19.27" transform="translate(-122.47 -45.66)"/><path class="cls-1" d="M286.11,431.81s26.18,8.44,39.43,4.7" transform="translate(-122.47 -45.66)"/></svg>